<svg width="264" height="461" fill="none" xmlns="http://www.w3.org/2000/svg"><g clip-path="url(#a)"><g clip-path="url(#b)"><path d="M203 0H60C26.863 0 0 26.863 0 60v300c0 33.137 26.863 60 60 60h143c33.137 0 60-26.863 60-60V60c0-33.137-26.863-60-60-60Z" fill="url(#c)"/></g><circle cx="131.5" cy="401.5" r="168.5" fill="#FFE0B6"/><circle cx="131.5" cy="417.5" r="168.5" fill="#FFD49B"/><circle cx="131.5" cy="437.5" r="168.5" fill="#FFC77C"/></g><path d="M.01 375.6v-86.26s15.97-56.8 46.05-81.44c0 0-21.98-38.09-10.81-64.7 0 0 1.69-14.02 12.37-13.54 0 0 15.67 1.8 36.58 11.71l14.26 2.54 13.52 2.61s18.1-1.19 19.88-1.19c1.78 0 13.16.34 13.16.34l16.31-.24 18.88-5.09 24.24-9.27s10.01-5.23 18.9 1.19c0 0 13.65 25.23 2.96 56.32l-9.19 17.24s35.33 40.02 46.02 83.27v86.5s.48 45.39-52.51 50.38c0 0-30.24-2.08-40.04-22.04 0 0-19.78-27.45-11.41-43.66 0 0 1.96-25.31 19.07-21.92 0 0 6.06-11.76 25.13-4.28 0 0 9.8 3.92 14.08 13.01 0 0 2.14 7.66 2.67 9.45 0 0 10.62 20.22 24.11 7.79 0 0 23.3-21.52 12.42-55.91 0 0-7.49-50.44-73.25-42.24 0 0-43.31 33.33-103.19-.36l-4.28-.18s-17.47-4.81-39.92 4.63c0 0-40.81 24.42-32.08 65.23 0 0 9.67 29.65 21.5 32.38 0 0 14.48-.47 17.67-13.05.08-.32.15-.64.22-.98 2.67-13.54 13.54-21.74 27.8-22.27 0 0 10.97 1.95 13.26 6.77 0 0 13.94-4.27 18.43 18.72l3.59 8.02s1.07 33.5-34.4 56.67c0 0-15.86 10.51-42.95-2.14 0 0-29.06-14.61-29.06-44.02l.01.01Z" fill="url(#d)"/><path d="M104.28 241.04s25.24 3.56 27.23-12.39c0 0 .75 1.78 1.01 1.87.26.09 3.07 15.95 28.36 10.25l-.02 4.01s-1.34 7.4-5.61 10.92c0 0-8.47-7.8-24.33-9.14 0 0-13.75.27-23.09 9.36 0 0-4.98-7.62-5.07-11.16l1.51-3.72h.01Z" fill="#1D1D1B"/><path d="M183.4 266.17s25.73-4.75 43.58 4.93c0 0 33 15.11 32.44 51.72 0 0 .78 35.36-21.75 45.26 0 0-7.48 1.22-13.94-6.74l-3.61-4.81s-3.79-29.88-34.33-22.63c0 0-6.42 1.43-7.37 5.58 0 0-13.9-5.58-17.7 16.63 0 0-6.6 5.93-2.61 21.46 0 0 11.52 37.35 32.79 44.84 0 0-26.26 29.35-56.91 32.91 0 0-39.92-5.82-61.96-33.56 0 0 21.21-8.5 30.24-37.13 0 0 8.08-13.78 1.31-23.29l-.74-4.28s-1.28-21.5-19.1-18.77c0 0-13.09-16.54-33.87 2.37 0 0-6.25 6.95-6.74 14.17 0 0-6.77 19.97-22.22 10.69 0 0-21.17-14.99-16.64-40.41 0 0 .69-33.41 17.83-43.48 0 0 18.8-21.81 57.4-15.84 0 0 27.67 17.14 57.96 15.95 0 0 29.58-3.92 45.98-15.56l-.04-.01Z" fill="#FF7269"/><path d="M43.15 184.15s-6.06-20.45 0-44.69c0 0 1.96-5.88 6.59-1.25 0 0 10.97 13.72 16 27.71 0 0 1.38 4.55-2.1 9.98 0 0-6.33 11.14-6.33 15.24 0 0-3.21 9.27-10.07 1.87 0 0-3.21-4.94-4.1-8.86h.01ZM220.93 184.15s6.06-20.45 0-44.69c0 0-1.96-5.88-6.59-1.25 0 0-10.97 13.72-16 27.71 0 0-1.38 4.55 2.1 9.98 0 0 6.33 11.14 6.33 15.24 0 0 3.21 9.27 10.07 1.87 0 0 3.21-4.94 4.1-8.86h-.01Z" fill="#FFC0DB"/><path d="M108.29 255.3s8.53-8.66 23.38-8.66c0 0 15.92 1.01 23.58 9.07 0 0-7.84 14.83-27.8 11.27 0 0-16.4-3.39-19.16-11.67v-.01Z" fill="#F98CC0"/><path d="M159.08 176.35s-9.09 5.35-8.2 18.62c0 0 1.16 15.06 17.64 15.24 0 0 22.19-1.32 23.88-18.21l-.8-4.33s-3.12-10.36-13.37-13.07c0 0-11.05-2.7-19.16 1.75h.01ZM104.35 176.35s9.09 5.35 8.2 18.62c0 0-1.16 15.06-17.64 15.24 0 0-22.19-1.32-23.88-18.21l.8-4.33s3.12-10.36 13.37-13.07c0 0 11.05-2.7 19.16 1.75h-.01ZM95.68 237.12s-.98 9.36 4.1 11.18c0 0 5.79.8 8.82-5.88 0 0-8.69-.22-12.92-5.3ZM167.57 237.12s.98 9.36-4.1 11.18c0 0-5.79.8-8.82-5.88 0 0 8.69-.22 12.92-5.3Z" fill="#fff"/><path d="M225.28 186.57s-7.14 21.29-19.97 12.59c0 0-7.49-4.62-10.69 8.74 0 0-3.59 69.02-59.36 72.82 0 0 31.23 2.25 57.5-21.21 0 0 29.79-27.6 25.8-38.63 0 0-5.09-2.63-2.4-12.98 0 0 10.02-10.4 9.11-21.33h.01ZM43.26 130.38s12.9-2.86 20.2 19.06c0 0 7.66 22.1 14.08 12.3 0 0 7.89-17.86 26.49-15.7l-5.58-2.12s-21.7-1.76-32.71-9.88c0 0-12.2-10.42-22.48-3.66Z" fill="#EDE096" style="mix-blend-mode:multiply" opacity=".9"/><path d="M137.25 228.66s12.81-5.7 10.23-14.9c0 0-6.71 10.37-13.74 12.39l.13-.67-9.8-5.8s-6.29-1.96-6.31 1.06c0 0 3.34 7 11.83 8.61-14.45 14.03-33.43 7.25-33.43 7.25 12.79 9.62 20.84 5.2 20.84 5.2 12.08-3.22 13.82-8.96 13.93-11.66.43.05.87.09 1.32.08.23 1 3.74 14.71 22.17 12.07 0 0 8.28-.33 12.51-4.37l.58-.04s.76 4.77-1.65 8.76c0 0 4.43-2.59 4.54-8.11 0 0 2.15-2.44 2.23-7.93 0 0-24.78 10.1-35.38-1.93v-.01Z" fill="#EDE096" style="mix-blend-mode:multiply" opacity=".63"/><path d="M183.76 266.17s28.75-22.66 33.5-39.73l1.3-5.56s-6.17-5.91-1.06-12.98c0 0 23.29 18.94 45.62 81.2v66.53s-4.28 18.6-19.49 19.16c0 0-21.35 3.01-28.23-18.45 0 0-2.02-15.28-12.91-22.61 0 0 14.56 4.31 17.16 21.18 0 0 4.5 14.85 18.41 12.36 0 0 12.12-4.87 18.18-21.74 0 0 12.94-43.28-17.03-66.23 0 0-17.13-19.2-55.45-13.14v.01ZM186.26 361.34s-10.53.95-13.11-5.82c0 0-5.61-13.76.65-16.63l4.44-.53s-2.55 17.64 8.02 22.99v-.01ZM163.33 390.79s22.57 32.57 63.92 22.36c0 0 25.64-7.95 34.74-28.43 0 0-6.46 46.96-63.13 39.12 0 0-26.49-.51-35.52-33.05h-.01ZM76.63 361.34s10.53.95 13.11-5.82c0 0 5.61-13.76-.65-16.63l-4.44-.53s2.55 17.64-8.02 22.99v-.01ZM99.56 390.79s-22.57 32.57-63.92 22.36c0 0-25.64-7.95-34.74-28.43 0 0 6.46 46.96 63.13 39.12 0 0 26.49-.51 35.52-33.05h.01ZM46.29 228.66s-18.2 19.82-21.52 50.35c0 0 15.49-18.25 54.68-13.22 0 0-15.11-13.57-33.16-37.13Z" fill="#EDE096" style="mix-blend-mode:multiply" opacity=".9"/><path d="M229.07 271.16s14.56-21.01 3.7-46.16c0 0-11.94-16.04-16.4-18.36 0 0-3.64 7.8 2.19 14.24s-.05-1.21-.05-1.21-1.96 24.04-33.33 46.32c0 0 21.82-6.42 43.88 5.17h.01Z" fill="#EDE096" style="mix-blend-mode:multiply" opacity=".62"/><path d="M66.49 265.28s3.74-.18 16.4 9.27c0 0 34.79 30.3 77.99 10.69 0 0 42.24-26.56 65.62-12.3 0 0-9.65-13.01-45.44-6.59 0 0-42.06 31.22-88.56 5.98l-12.28-6.52s-7.51-.96-13.72-.53h-.01Z" fill="#E54B48" style="mix-blend-mode:multiply" opacity=".56"/><path d="M215.41 269.12s42.49 9.29 32.75 59.19c0 0-5.95 17.82-22.82 13.07 0 0-13.98-19.1-36.81-11.1 0 0 21.31-1.73 29.18 17.75l2.17 8.31s9.39 17.82 22.46 9.74c0 0 15.64-13.92 17.09-36.01 0 0 4.14-53.5-44.02-60.96v.01ZM95.12 340.68s10.15 5.25 11.89 14.24c0 0 26.93 15.45-7.45 59.64 0 0 45.38 14.2 60.75-29.85 0 0 10.4 28.62 30.95 36.6 0 0-15.03 25.09-59.62 34 0 0-41.47-9.44-59.31-33.18 0 0 14.3-4.13 28.2-33.72 0 0 10.16-19.43 2.85-29.58 0 0-3.91-16.05-8.27-18.16l.01.01ZM10.35 298.79s-9.27 48.73 16.57 50.74c0 0 9.09.61 13.37-8.85 0 0 16.69-23.28 40.33-5.86 0 0-22.44-11.13-35.04 12.15 0 0-2.7 3.09-3.1 9.8 0 0-12.41 21.34-25.92 5.82 0 0-28.66-29.06-6.2-63.81l-.01.01Z" fill="#E54B48" style="mix-blend-mode:multiply" opacity=".56"/><path d="M65.16 166.15s-15.15-34.7-20.32-29.72c0 0-3.33 3.18-3.27 10.81 0 0 2.2-15.72 10.31 4.24 0 0 4.45 11 5.98 22.36.85 5.19-4.02 9.1-4.02 9.1-7.67 5.61-11.75-4.46-11.75-4.46 1.47 11.14 5.87 14.44 5.87 14.44 4.6 6.26 9.27 0 9.27 0l1.84-7.18 2.6-6.15s5.52-6.96 3.49-13.44ZM198.3 166.15s15.15-34.71 20.32-29.72c0 0 3.33 3.18 3.27 10.81 0 0-2.2-15.72-10.31 4.24 0 0-4.45 11-5.98 22.36-.85 5.19 4.02 9.1 4.02 9.1 7.67 5.61 11.75-4.46 11.75-4.46-1.47 11.14-5.87 14.44-5.87 14.44-4.6 6.26-9.27 0-9.27 0l-1.84-7.18-2.6-6.15s-5.52-6.96-3.49-13.44Z" fill="#FFC0DB" style="mix-blend-mode:multiply"/><path d="M121.9 264.57s-8.36-3.42-4.56-12.73c0 0 2.51-5.62 14.5-6.57 0 0-13.82-1.13-24.02 10.66 0 0 6.4 10.61 14.08 8.65v-.01Z" fill="#FFA4D4" style="mix-blend-mode:multiply"/><path d="M141.77 264.57s8.36-3.42 4.56-12.73c0 0-2.51-5.62-14.5-6.57 0 0 13.82-1.13 24.02 10.66 0 0-6.4 10.61-14.08 8.65v-.01Z" fill="#FFA4D4" style="mix-blend-mode:multiply"/><path d="M99.2 247.42s4.56 2.22 4.69-5.42l4.4-.21s-3.86 8.7-9.09 5.63Z" fill="#A8A8A8" style="mix-blend-mode:multiply" opacity=".47"/><path d="M155.48 204.69s17.41 7.84 28.64-9.53c0 0 6.24-9.92-3.21-18.55 0 0 10.07 2.51 11.94 13.91 0 0-3.12 20.47-26.33 19.59 0 0-6.44.03-11.04-5.42Z" fill="#9E9E9E" style="mix-blend-mode:multiply" opacity=".09"/><path d="M160.16 247.86s5.2 1.04 4.31-4.56l-.4-3.18 3.43-2.24s.57 8.1-4.01 10.46c0 0-1.11 1.14-3.33-.26" fill="#A8A8A8" style="mix-blend-mode:multiply" opacity=".47"/><path d="M86.11 208.39s15.76 6.55 24.22-5.22c0 0 7.9-13.53-3.31-24.59 0 0 6.73 28.06-20.91 29.8v.01Z" fill="#9E9E9E" style="mix-blend-mode:multiply" opacity=".09"/><path opacity=".31" d="M71.02 273.3s-32.15-6.95-52.47 26.38c0 0-9.27 15.5 2.67 21.92 0 0 13.15 6.24 18.07-7.66 0 0-3.31-37.78 31.72-40.63l.01-.01ZM216.04 280.59s-20.95-13.56-44.31 4.64c0 0-10.74 8.52-3.99 16.27 0 0 7.66 7.96 14.88-.59 0 0 7.79-27.7 33.42-20.32Z" fill="#fff"/><path d="M122.76 261.63c3.42 1.64 11.26 4.18 17.87 0 .31-.2.11-.69-.25-.61-2.9.62-9.32 1.55-17.41 0-.39-.07-.57.46-.21.63v-.02Z" fill="#FFC0DB"/><path opacity=".53" d="M43.26 172.78s-2.08-14.37 0-25.66c0 0 .89-2.97 2.68-1.78 0 0 1.66.36 0 3.45 0 0-3.33 2.72-2.68 24v-.01Z" fill="#FFE9F4"/><path d="M222.88 165.04s.27-33.38-7.01-26.1c0 0-10.85 13.05-16.07 27.47 0 0-1.65 2.47 0 7.69 0 0 7.42 11.81 8.24 16.76 0 0 2.75 7.69 9.2-1.1 0 0 3.85-5.63 4.4-11.95 0 0-.32 18.82-10.67 18.82 0 0-4.79.44-5.95-7.56 0 0-3.16-9.16-6.18-13.71 0 0-3.98-3.87-1.79-9.23 0 0 18.41-43 24.18-27.61 0 0 3.3 11.1 1.65 26.51v.01ZM185.37 263.9c-.45.19 2.98-4.67 2.52-12 0 0-2.11-12 5.31-11.63 0 0 13.19 2.18 14.93-1.75 0 0 1.65-3.05-1.56-3.54 0 0-9.7.52-9.61-5.15 0 0 .45-2.2 5.49-1.01 0 0 11.54 1.19 14.01-6.04 0 0 1.29-.73-.87-3.11l2.88 1.21s1.24 1.85 1.17 2.06c-.07.21-7.69 15.58-7.69 15.58l-6.52 8.39s-10.1 12.82-20.06 16.99Z" fill="#9E6A32"/><path d="M214.14 131.08c5.53 0 7.98 1.95 7.98 1.95 18.13 35.17-4.95 69.78-4.95 69.78-8.52 14.84 1.1 19.51 1.1 19.51-24.7 53.27-74.07 57.88-85.44 58.23v.02h-2.38v-.02c-11.37-.34-60.74-4.96-85.44-58.23 0 0 9.62-4.67 1.1-19.51 0 0-23.08-34.62-4.95-69.78 0 0 2.44-1.95 7.98-1.95 2.77 0 6.31.49 10.7 1.95 0 0 25.14 11.54 39.15 12.5 0 0 1.67-.1 3.87-.1 3.52 0 8.4.26 10.01 1.61 0 0 8.15-2.57 17.58-2.97v-.05c.4 0 .8 0 1.19.01.4 0 .79-.01 1.19-.01v.05c9.43.4 17.58 2.97 17.58 2.97 1.61-1.35 6.49-1.61 10.01-1.61 2.2 0 3.87.1 3.87.1 14.01-.96 39.15-12.5 39.15-12.5 4.4-1.47 7.94-1.95 10.7-1.95Zm0-3.08c-3.55 0-7.48.71-11.68 2.11-.11.04-.21.08-.31.12-.25.11-24.56 11.21-37.89 12.21-.53-.03-2.01-.1-3.84-.1-5.76 0-8.72.62-10.41 1.37-2.69-.74-9.13-2.32-16.46-2.69-.23-.05-.47-.08-.71-.08-.4 0-.8 0-1.19.01-.4 0-.79-.01-1.19-.01-.25 0-.48.03-.71.08-7.33.38-13.77 1.95-16.46 2.69-1.7-.75-4.65-1.37-10.41-1.37-1.83 0-3.31.07-3.84.1-13.34-1-37.64-12.1-37.89-12.21-.1-.05-.21-.09-.31-.12-4.23-1.4-8.16-2.11-11.7-2.11-6.43 0-9.57 2.36-9.9 2.63-.34.27-.62.61-.81.99-7.77 15.07-9.35 32.46-4.56 50.29 3.44 12.81 8.94 21.47 9.62 22.52 2.65 4.65 3.61 8.66 2.76 11.59-.69 2.38-2.37 3.4-2.61 3.53-.74.34-1.28.93-1.57 1.7-.29.77-.21 1.61.14 2.36 10.8 23.29 27.36 40.27 49.21 50.46 17.04 7.94 32.45 9.33 38.61 9.54l.31.03s.31.01.9.01h.8c.59 0 .9-.01.9-.01.1 0 .21-.01.31-.03 6.16-.22 21.57-1.6 38.61-9.54 21.85-10.19 38.41-27.16 49.21-50.46.35-.75.43-1.59.14-2.36-.29-.77-.82-1.36-1.57-1.7-.23-.13-1.92-1.15-2.61-3.53-.85-2.94.11-6.95 2.76-11.59.68-1.05 6.18-9.71 9.62-22.52 4.79-17.83 3.21-35.22-4.56-50.29-.2-.39-.48-.72-.81-.99-.33-.27-3.47-2.63-9.9-2.63Z" fill="#9E6A32"/><path d="M40.82 165.04s-.27-33.38 7.01-26.1c0 0 10.85 13.05 16.07 27.47 0 0 1.65 2.47 0 7.69 0 0-7.42 11.81-8.24 16.76 0 0-2.75 7.69-9.2-1.1 0 0-3.85-5.63-4.4-11.95 0 0 .32 18.82 10.67 18.82 0 0 4.79.44 5.95-7.56 0 0 3.16-9.16 6.18-13.71 0 0 3.98-3.87 1.79-9.23 0 0-18.41-43-24.18-27.61 0 0-3.3 11.1-1.65 26.51v.01ZM78.32 263.9c.45.19-2.98-4.67-2.52-12 0 0 2.11-12-5.31-11.63 0 0-13.19 2.18-14.93-1.75 0 0-1.65-3.05 1.56-3.54 0 0 9.7.52 9.61-5.15 0 0-.45-2.2-5.49-1.01 0 0-11.54 1.19-14.01-6.04 0 0-1.29-.73.87-3.11l-2.88 1.21s-1.24 1.85-1.17 2.06c.07.21 7.69 15.58 7.69 15.58l6.52 8.39s10.1 12.82 20.06 16.99Z" fill="#9E6A32"/><path d="M107.83 255.7s20.22-17.45 47.65 0c0 0-23-23.49-47.65 0Z" fill="#D63A8C"/><path d="M101.81 145.44s7.23.96 4.85 6c0 0-3.96 9.16.92 9.8 0 0 1.65.09 2.93-4.49 0 0 3.3-7.97 6.59-5.13 0 0 1.37.92.64 4.12 0 0-2.2 17.4 5.13 18.13 0 0 5.13.64 4.85-6.78 0 0 3.48-19.87 12.27-16.39 0 0 3.21 1.65 2.11 5.59 0 0-2.66 9.8-.37 10.81 0 0 3.75 2.2 5.59-4.67 0 0 3.3-9.98 10.26-12.18 0 0 18.22-4.12 21.52-8.88 0 0-7.88 3.57-12.09 2.56 0 0-14.1-2.01-17.31 1.92 0 0-17.58-6.96-35.72-.37 0 0-4.85-3.58-12.18-.05l.01.01ZM241.7 366.28c-14.7 7.83-22.67-10.17-22.67-10.17-.82-7.83-7.01-14.15-7.01-14.15-21.02-17.17-32.28-2.06-32.28-2.06-15.25-2.47-18.13 18.13-18.13 18.13-4.4 3.16-.73 20.6-.73 20.6 12.45 45.88 46.34 45.33 46.34 45.33 50.55 0 55.77-48.63 55.77-48.63s2.84 49.36-55.59 52.47c0 0-26.92 1.28-42.68-29.49 0 0-19.78-35.9-5.28-42.31 0 0 .33-21.06 18.65-19.23 0 0 12.64-16.3 33.52.37 0 0 7.88 6.41 9.34 17.77 0 0 1.74 8.7 12.64 12.27 0 0 3.43.29 6.56-.43l1.55-.48v.01Z" fill="#9E6A32"/><path d="M180.42 339.13s-4.71 9.21 5.36 22.21c0 0-12.82-8.43-8.61-23.63l3.25 1.42ZM173.15 374.71s-14.53-4.17-10.56-20.86l-4.83 4.74s-.73 17.58 15.39 16.12ZM217.11 205.83s32.1 29.32 45.9 77.67v13s-16.23-58.98-47.6-90.19l1.7-.49v.01Z" fill="#9E6A32"/><path d="M185.33 266.01s50.46-9.43 68.45 40.52c0 0 10.78 39.56-13.63 60.24 0 0 30.63-13.34 19.54-61.2 0 0-16.85-51.47-74.36-39.56Z" fill="#CE3E3E"/><path d="M21.32 366.28c14.7 7.83 22.67-10.17 22.67-10.17.82-7.83 7.01-14.15 7.01-14.15 21.02-17.17 32.28-2.06 32.28-2.06 15.25-2.47 18.13 18.13 18.13 18.13 4.4 3.16.73 20.6.73 20.6-12.45 45.88-46.34 45.33-46.34 45.33-50.55 0-55.77-48.63-55.77-48.63s-2.84 49.36 55.59 52.47c0 0 26.92 1.28 42.68-29.49 0 0 19.78-35.9 5.28-42.31 0 0-.33-21.06-18.65-19.23 0 0-12.64-16.3-33.52.37 0 0-7.88 6.41-9.34 17.77 0 0-1.74 8.7-12.64 12.27 0 0-3.43.29-6.56-.43l-1.55-.48v.01Z" fill="#9E6A32"/><path d="M82.6 339.13s4.71 9.21-5.36 22.21c0 0 12.82-8.43 8.61-23.63l-3.25 1.42ZM89.87 374.71s14.53-4.17 10.56-20.86l4.83 4.74s.73 17.58-15.39 16.12ZM45.91 205.83S13.82 235.15.01 283.5v13s16.23-58.98 47.6-90.19l-1.7-.49v.01Z" fill="#9E6A32"/><path d="M77.69 266.01s-50.46-9.43-68.45 40.52c0 0-10.78 39.56 13.63 60.24 0 0-30.63-13.34-19.54-61.2 0 0 16.85-51.47 74.36-39.56Z" fill="#CE3E3E"/><path d="M192.16 185.24c-10.03-20.12-33.2-9.88-33.52-9.59-6.8 6.11-7.2 10.05-7.2 10.05-6.46 20.33 11.74 24.41 11.74 24.41 22.94 4.26 34.89-19.64 34.89-19.64-2.61.14-5.91-5.22-5.91-5.22v-.01Zm-7.01 17.03c-6.46 8.65-18.96 7.01-18.96 7.01-18.82-2.88-13.74-22.12-13.74-22.12 2.47-9.2 8.1-11.13 8.1-11.13 21.84-6.32 28.98 10.3 28.98 10.3 4.4 6.59-4.4 15.93-4.4 15.93l.02.01ZM65.74 190.46s11.95 23.9 34.89 19.64c0 0 18.19-4.08 11.74-24.41 0 0-.4-3.94-7.2-10.05-.32-.29-23.5-10.53-33.52 9.59 0 0-3.3 5.36-5.91 5.22v.01Zm8.52-4.12s7.14-16.62 28.98-10.3c0 0 5.63 1.92 8.1 11.13 0 0 5.08 19.23-13.74 22.12 0 0-12.5 1.65-18.96-7.01 0 0-8.79-9.34-4.4-15.93l.02-.01Z" fill="#9E6A32"/><path d="m191.26 424.26-2.57-1.13c-18.06 16.91-38.67 24.19-49 26.98-7.53 1.59-14.44.44-18.35-.56-10.83-3.15-30.05-10.54-47-26.42l-2.67 1.23s12.21 16.19 47.38 32.44c4.03 2.07 8.26 3.17 8.37 3.21 6.46 2.29 14.12-2.09 14.12-2.09 36.99-16.57 49.72-33.66 49.72-33.66Z" fill="#CE3E3E"/><path d="M96.17 238.52s7 4.04 10.76 4.04c.32 0 .62-.03.89-.1 0 0-3.55 5.61-6.84 5.61-.87 0-1.73-.39-2.5-1.39 0 0-2.61-2.68-2.31-8.16Zm-.91-1.68-.09 1.63c-.3 5.51 2.16 8.44 2.55 8.86 1.13 1.44 2.39 1.75 3.26 1.75 3.74 0 7.29-5.45 7.69-6.07l1.32-2.09-2.4.58c-.18.04-.4.07-.66.07-2.86 0-8.37-2.82-10.26-3.91l-1.41-.81v-.01Z" fill="#9E6A32"/><path d="M130.95 227.73s-.72 12.82-19.86 12.82c0 0-13.33.82-20.57-10.53 0 0 3.13 14.47 23.08 13.46 0 0 18.07-2.66 18.07-13.92v-3.11l-.72 1.28ZM167.13 238.52c.3 5.48-2.31 8.16-2.31 8.16-.77 1-1.62 1.39-2.5 1.39-3.3 0-6.84-5.61-6.84-5.61.27.07.57.1.89.1 3.76 0 10.76-4.04 10.76-4.04Zm.91-1.68-1.41.81c-1.88 1.09-7.4 3.91-10.26 3.91-.25 0-.47-.02-.66-.07l-2.4-.58 1.32 2.09c.39.62 3.95 6.07 7.69 6.07.87 0 2.14-.3 3.26-1.75.39-.42 2.84-3.35 2.55-8.86l-.09-1.63v.01Z" fill="#9E6A32"/><path d="M132.35 227.73s.72 12.82 19.86 12.82c0 0 13.33.82 20.57-10.53 0 0-3.13 14.47-23.08 13.46 0 0-18.07-2.66-18.07-13.92v-3.11l.72 1.28Z" fill="#9E6A32"/><path d="M145.97 211.35s-4.35-3.45-14.33-3.45-14.33 3.45-14.33 3.45c-3.71 3.17 0 8.78 0 8.78.23.33.46.64.7.94 1.29-1.24 2.37-.3 2.37-.3.63.11.3 1.67-.04 2.84 5.45 5.01 11.3 4.62 11.3 4.62s5.85.39 11.3-4.62c-.34-1.17-.67-2.73-.04-2.84 0 0 1.08-.94 2.37.3.24-.3.47-.61.7-.94 0 0 3.71-5.61 0-8.78Z" fill="#F98CC0"/><path d="M122.33 225.18s11.47 4.46 19.25-5.17c0 0 5.54-6.25 1.46-10.2 0 0 4.7.98 4.48 5.15 0 0 .59 2.73-2.32 6.06 0 0-1.23-1.5-2.61-.12 0 0-.41 1.09.35 2.7 0 0-9.37 9.41-20.61 1.57v.01Z" fill="#FFA4D4" style="mix-blend-mode:multiply"/><path d="M131.13 208.9s-13.94.56-13.01 6.06c0 0 .24 1.84 1.72 1.43 0 0 1.07-.3 1.25-1.54 0 0-.36-4.99 10.04-5.94v-.01Z" fill="#FFC0DB"/><path d="M159.45 247.37c-7.06 17.54-23.12 18.91-27.6 18.94-4.5-.03-20.7-1.42-27.71-19.21l-.7.48c1.71 6.08 7.74 19.96 27.21 21.02v.07c.41 0 .79-.02 1.19-.03.4.01.78.03 1.19.03v-.07c19.14-1.03 25.29-14.46 27.12-20.69l-.71-.54h.01Z" fill="#9E6A32"/><path d="M182.06 199.56c3.799-7.665 1.561-16.515-5.001-19.768-6.561-3.253-14.96.324-18.76 7.988-3.8 7.665-1.561 16.515 5 19.768s14.961-.324 18.761-7.988Z" fill="url(#e)"/><path d="M100.973 207.567c6.562-3.253 8.8-12.103 5.001-19.768-3.8-7.665-12.2-11.241-18.76-7.989-6.562 3.253-8.8 12.103-5 19.768 3.799 7.665 12.198 11.241 18.759 7.989Z" fill="url(#f)"/><path opacity=".81" d="M166.52 191.69a7.54 7.54 0 1 0 0-15.08 7.54 7.54 0 0 0 0 15.08ZM88.61 191.69a7.54 7.54 0 1 0 0-15.08 7.54 7.54 0 0 0 0 15.08Z" fill="#fff"/><path d="M98.945 21.1c.238-.034.505-.062.8-.085a24.344 24.344 0 0 1 1.852-.068c.306-.011.578-.017.816-.017 1.054 0 1.955.147 2.703.442.748.295 1.355.708 1.819 1.241a4.968 4.968 0 0 1 1.02 1.904c.216.737.323 1.547.323 2.431 0 .805-.102 1.581-.306 2.329a5.27 5.27 0 0 1-1.02 1.989c-.476.578-1.105 1.043-1.887 1.394-.77.351-1.728.527-2.873.527-.181 0-.425-.006-.731-.017a30.818 30.818 0 0 1-.935-.051 22.309 22.309 0 0 1-.918-.051 6.33 6.33 0 0 1-.663-.051V21.1Zm3.655 1.904c-.249 0-.504.006-.765.017a4.564 4.564 0 0 0-.561.051v7.973c.046.011.119.023.221.034.114 0 .233.006.357.017.125 0 .244.006.357.017h.255c.658 0 1.202-.113 1.632-.34.442-.238.788-.55 1.037-.935.261-.385.442-.827.544-1.326.102-.51.153-1.031.153-1.564 0-.465-.045-.93-.136-1.394a3.405 3.405 0 0 0-.51-1.275 2.747 2.747 0 0 0-.986-.918c-.419-.238-.952-.357-1.598-.357Zm6.893 5.746c0-1.44.351-2.544 1.054-3.315.703-.782 1.689-1.173 2.958-1.173.68 0 1.269.108 1.768.323.499.215.912.521 1.241.918.329.385.572.856.731 1.411.17.555.255 1.167.255 1.836 0 1.44-.351 2.55-1.054 3.332-.691.77-1.672 1.156-2.941 1.156-.68 0-1.269-.108-1.768-.323a3.5 3.5 0 0 1-1.258-.901 4.076 4.076 0 0 1-.748-1.428 6.656 6.656 0 0 1-.238-1.836Zm2.278 0c0 .374.034.72.102 1.037.068.317.17.595.306.833.136.238.312.425.527.561.227.125.493.187.799.187.578 0 1.009-.21 1.292-.629.283-.42.425-1.082.425-1.989 0-.782-.13-1.411-.391-1.887-.261-.487-.703-.731-1.326-.731-.544 0-.969.204-1.275.612-.306.408-.459 1.077-.459 2.006ZM124.234 33v-4.828c0-.691-.102-1.19-.306-1.496-.193-.306-.527-.459-1.003-.459-.419 0-.776.125-1.071.374a2.007 2.007 0 0 0-.612.901V33h-2.21v-8.5h1.751l.255 1.122h.068c.261-.363.606-.68 1.037-.952.431-.272.986-.408 1.666-.408.419 0 .793.057 1.122.17.329.113.606.3.833.561.227.26.397.618.51 1.071.113.442.17.992.17 1.649V33h-2.21Zm4.011-8.007a6.98 6.98 0 0 1 1.615-.476 9.945 9.945 0 0 1 1.955-.187c.589 0 1.082.074 1.479.221.396.136.708.334.935.595.238.26.402.572.493.935.102.363.153.77.153 1.224 0 .499-.017 1.003-.051 1.513-.034.499-.057.992-.068 1.479 0 .487.017.963.051 1.428.034.453.119.884.255 1.292h-1.802l-.357-1.173h-.085a3.086 3.086 0 0 1-.952.918c-.397.25-.913.374-1.547.374-.397 0-.754-.057-1.071-.17a2.48 2.48 0 0 1-.816-.51 2.425 2.425 0 0 1-.527-.782 2.674 2.674 0 0 1-.187-1.02c0-.521.113-.958.34-1.309a2.507 2.507 0 0 1 1.003-.867c.442-.227.963-.38 1.564-.459.612-.09 1.292-.119 2.04-.085.079-.635.034-1.088-.136-1.36-.17-.283-.55-.425-1.139-.425-.442 0-.913.045-1.411.136-.488.09-.89.21-1.207.357l-.527-1.649Zm2.805 6.324c.442 0 .793-.096 1.054-.289.26-.204.453-.42.578-.646v-1.105a6.17 6.17 0 0 0-1.02-.017 3.664 3.664 0 0 0-.85.153c-.25.08-.448.193-.595.34a.757.757 0 0 0-.221.561c0 .317.09.567.272.748.192.17.453.255.782.255Zm11.697 1.156c-.34.25-.753.436-1.241.561a5.357 5.357 0 0 1-1.479.204c-.68 0-1.258-.108-1.734-.323a2.996 2.996 0 0 1-1.139-.901 3.945 3.945 0 0 1-.646-1.428 8.43 8.43 0 0 1-.187-1.836c0-1.44.323-2.544.969-3.315.646-.782 1.587-1.173 2.822-1.173.624 0 1.122.051 1.496.153.386.102.731.232 1.037.391l-.527 1.802a4.337 4.337 0 0 0-.782-.289 3.306 3.306 0 0 0-.867-.102c-.612 0-1.076.204-1.394.612-.317.397-.476 1.037-.476 1.921 0 .363.04.697.119 1.003.08.306.199.572.357.799.159.227.363.408.612.544.261.125.561.187.901.187.374 0 .692-.045.952-.136a3.64 3.64 0 0 0 .697-.357l.51 1.683Zm1.524-7.973h2.21V33h-2.21v-8.5Zm-.323-2.397c0-.329.119-.606.357-.833.249-.238.589-.357 1.02-.357.43 0 .776.119 1.037.357.272.227.408.504.408.833 0 .329-.136.606-.408.833-.261.215-.607.323-1.037.323-.431 0-.771-.108-1.02-.323a1.106 1.106 0 0 1-.357-.833Zm4.293 6.647c0-1.44.352-2.544 1.054-3.315.703-.782 1.689-1.173 2.958-1.173.68 0 1.27.108 1.768.323.499.215.913.521 1.241.918.329.385.573.856.731 1.411.17.555.255 1.167.255 1.836 0 1.44-.351 2.55-1.054 3.332-.691.77-1.671 1.156-2.941 1.156-.68 0-1.269-.108-1.768-.323a3.51 3.51 0 0 1-1.258-.901 4.092 4.092 0 0 1-.748-1.428 6.694 6.694 0 0 1-.238-1.836Zm2.278 0c0 .374.034.72.102 1.037.068.317.17.595.306.833.136.238.312.425.527.561.227.125.493.187.799.187.578 0 1.009-.21 1.292-.629.284-.42.425-1.082.425-1.989 0-.782-.13-1.411-.391-1.887-.26-.487-.702-.731-1.326-.731-.544 0-.969.204-1.275.612-.306.408-.459 1.077-.459 2.006Zm1.836-7.99h2.244v.51l-1.887 2.108h-1.258l.901-2.618ZM162.982 33v-4.828c0-.691-.102-1.19-.306-1.496-.193-.306-.527-.459-1.003-.459-.419 0-.776.125-1.071.374a2.007 2.007 0 0 0-.612.901V33h-2.21v-8.5h1.751l.255 1.122h.068c.261-.363.606-.68 1.037-.952.431-.272.986-.408 1.666-.408.419 0 .793.057 1.122.17.329.113.606.3.833.561.227.26.397.618.51 1.071.113.442.17.992.17 1.649V33h-2.21ZM37.142 67.956c-.768.552-1.752.948-2.952 1.188a18.14 18.14 0 0 1-3.636.36 13.57 13.57 0 0 1-4.32-.684 9.513 9.513 0 0 1-3.564-2.268c-1.032-1.056-1.86-2.412-2.484-4.068-.6-1.68-.9-3.708-.9-6.084 0-2.472.336-4.536 1.008-6.192.696-1.68 1.584-3.024 2.664-4.032 1.104-1.032 2.328-1.764 3.672-2.196a12.482 12.482 0 0 1 4.032-.684c1.44 0 2.652.096 3.636.288 1.008.192 1.836.42 2.484.684l-.972 4.176c-.552-.264-1.212-.456-1.98-.576-.744-.12-1.656-.18-2.736-.18-1.992 0-3.6.708-4.824 2.124-1.2 1.416-1.8 3.612-1.8 6.588 0 1.296.144 2.484.432 3.564.288 1.056.72 1.968 1.296 2.736a6.55 6.55 0 0 0 2.196 1.764c.888.408 1.908.612 3.06.612 1.08 0 1.992-.108 2.736-.324a8.035 8.035 0 0 0 1.944-.828l1.008 4.032ZM37.915 60c0-3.048.744-5.388 2.232-7.02 1.488-1.656 3.576-2.484 6.264-2.484 1.44 0 2.688.228 3.744.684 1.056.456 1.932 1.104 2.628 1.944.696.816 1.212 1.812 1.548 2.988.36 1.176.54 2.472.54 3.888 0 3.048-.744 5.4-2.232 7.056-1.464 1.632-3.54 2.448-6.228 2.448-1.44 0-2.688-.228-3.744-.684a7.42 7.42 0 0 1-2.664-1.908c-.696-.84-1.224-1.848-1.584-3.024-.336-1.176-.504-2.472-.504-3.888Zm4.824 0c0 .792.072 1.524.216 2.196.144.672.36 1.26.648 1.764.288.504.66.9 1.116 1.188.48.264 1.044.396 1.692.396 1.224 0 2.136-.444 2.736-1.332.6-.888.9-2.292.9-4.212 0-1.656-.276-2.988-.828-3.996-.552-1.032-1.488-1.548-2.808-1.548-1.152 0-2.052.432-2.7 1.296-.648.864-.972 2.28-.972 4.248Zm26.392 9V58.776c0-1.464-.216-2.52-.648-3.168-.409-.648-1.117-.972-2.124-.972-.888 0-1.644.264-2.268.792a4.24 4.24 0 0 0-1.296 1.908V69h-4.68V51h3.707l.54 2.376h.145c.552-.768 1.284-1.44 2.196-2.016.912-.576 2.087-.864 3.528-.864.888 0 1.68.12 2.376.36.695.24 1.284.636 1.764 1.188.48.552.84 1.308 1.08 2.268.24.936.36 2.1.36 3.492V69h-4.68Zm32.106-1.548c-.72.576-1.704 1.068-2.952 1.476-1.224.384-2.532.576-3.924.576-2.904 0-5.028-.84-6.372-2.52-1.344-1.704-2.016-4.032-2.016-6.984 0-3.168.756-5.544 2.268-7.128 1.512-1.584 3.636-2.376 6.372-2.376.912 0 1.8.12 2.664.36a6.2 6.2 0 0 1 2.304 1.188c.672.552 1.212 1.296 1.62 2.232.408.936.612 2.1.612 3.492a13.1 13.1 0 0 1-.108 1.62 17.035 17.035 0 0 1-.252 1.8h-10.8c.072 1.512.456 2.652 1.152 3.42.72.768 1.872 1.152 3.456 1.152.984 0 1.86-.144 2.628-.432.792-.312 1.392-.624 1.8-.936l1.548 3.06ZM94.541 54.24c-1.224 0-2.136.372-2.736 1.116-.576.72-.924 1.692-1.044 2.916h6.696c.096-1.296-.108-2.292-.612-2.988-.48-.696-1.248-1.044-2.304-1.044Zm15.401 8.712c0 .84.108 1.452.324 1.836.216.384.564.576 1.044.576.288 0 .564-.024.828-.072a5 5 0 0 0 1.044-.324l.504 3.672c-.384.192-.972.384-1.764.576-.792.192-1.608.288-2.448.288-1.368 0-2.412-.312-3.132-.936-.72-.648-1.08-1.704-1.08-3.168V43.8h4.68v19.152Zm31.579 5.004c-.768.552-1.752.948-2.952 1.188a18.14 18.14 0 0 1-3.636.36 13.57 13.57 0 0 1-4.32-.684 9.513 9.513 0 0 1-3.564-2.268c-1.032-1.056-1.86-2.412-2.484-4.068-.6-1.68-.9-3.708-.9-6.084 0-2.472.336-4.536 1.008-6.192.696-1.68 1.584-3.024 2.664-4.032 1.104-1.032 2.328-1.764 3.672-2.196a12.482 12.482 0 0 1 4.032-.684c1.44 0 2.652.096 3.636.288 1.008.192 1.836.42 2.484.684l-.972 4.176c-.552-.264-1.212-.456-1.98-.576-.744-.12-1.656-.18-2.736-.18-1.992 0-3.6.708-4.824 2.124-1.2 1.416-1.8 3.612-1.8 6.588 0 1.296.144 2.484.432 3.564.288 1.056.72 1.968 1.296 2.736a6.55 6.55 0 0 0 2.196 1.764c.888.408 1.908.612 3.06.612 1.08 0 1.992-.108 2.736-.324a8.035 8.035 0 0 0 1.944-.828l1.008 4.032Zm.772-7.956c0-3.048.744-5.388 2.232-7.02 1.488-1.656 3.576-2.484 6.264-2.484 1.44 0 2.688.228 3.744.684 1.056.456 1.932 1.104 2.628 1.944.696.816 1.212 1.812 1.548 2.988.36 1.176.54 2.472.54 3.888 0 3.048-.744 5.4-2.232 7.056-1.464 1.632-3.54 2.448-6.228 2.448-1.44 0-2.688-.228-3.744-.684a7.42 7.42 0 0 1-2.664-1.908c-.696-.84-1.224-1.848-1.584-3.024-.336-1.176-.504-2.472-.504-3.888Zm4.824 0c0 .792.072 1.524.216 2.196.144.672.36 1.26.648 1.764.288.504.66.9 1.116 1.188.48.264 1.044.396 1.692.396 1.224 0 2.136-.444 2.736-1.332.6-.888.9-2.292.9-4.212 0-1.656-.276-2.988-.828-3.996-.552-1.032-1.488-1.548-2.808-1.548-1.152 0-2.052.432-2.7 1.296-.648.864-.972 2.28-.972 4.248Zm25.312-4.608c-.744-.264-1.416-.396-2.016-.396-.84 0-1.548.228-2.124.684a3.155 3.155 0 0 0-1.116 1.692V69h-4.68V51h3.636l.54 2.376h.144c.408-.888.96-1.572 1.656-2.052s1.512-.72 2.448-.72c.624 0 1.332.132 2.124.396l-.612 4.392Zm2.578-3.348c.96-.432 2.1-.768 3.42-1.008 1.32-.264 2.7-.396 4.139-.396 1.249 0 2.293.156 3.133.468.84.288 1.5.708 1.98 1.26a4.503 4.503 0 0 1 1.044 1.98c.216.768.324 1.632.324 2.592a48.16 48.16 0 0 1-.108 3.204c-.072 1.056-.12 2.1-.144 3.132 0 1.032.036 2.04.108 3.024.072.96.252 1.872.54 2.736h-3.816l-.756-2.484h-.18c-.48.744-1.152 1.392-2.016 1.944-.84.528-1.932.792-3.276.792-.84 0-1.596-.12-2.268-.36a5.279 5.279 0 0 1-1.728-1.08 5.17 5.17 0 0 1-1.116-1.656c-.264-.648-.396-1.368-.396-2.16 0-1.104.24-2.028.72-2.772.504-.768 1.212-1.38 2.124-1.836.936-.48 2.04-.804 3.312-.972 1.296-.192 2.736-.252 4.32-.18.168-1.344.072-2.304-.288-2.88-.36-.6-1.164-.9-2.412-.9-.936 0-1.932.096-2.988.288-1.032.192-1.884.444-2.556.756l-1.116-3.492Zm5.94 13.392c.936 0 1.68-.204 2.232-.612.552-.432.96-.888 1.224-1.368v-2.34a13.07 13.07 0 0 0-2.16-.036 7.772 7.772 0 0 0-1.8.324c-.528.168-.948.408-1.26.72-.312.312-.468.708-.468 1.188 0 .672.192 1.2.576 1.584.408.36.96.54 1.656.54Zm11.091-.396 7.092-8.532 1.836-1.548h-8.928V51h14.112v3.96l-7.02 8.676-1.8 1.404h8.82V69h-14.112v-3.96ZM208.317 60c0-3.048.744-5.388 2.232-7.02 1.488-1.656 3.576-2.484 6.264-2.484 1.44 0 2.688.228 3.744.684 1.056.456 1.932 1.104 2.628 1.944.696.816 1.212 1.812 1.548 2.988.36 1.176.54 2.472.54 3.888 0 3.048-.744 5.4-2.232 7.056-1.464 1.632-3.54 2.448-6.228 2.448-1.44 0-2.688-.228-3.744-.684a7.42 7.42 0 0 1-2.664-1.908c-.696-.84-1.224-1.848-1.584-3.024-.336-1.176-.504-2.472-.504-3.888Zm4.824 0c0 .792.072 1.524.216 2.196.144.672.36 1.26.648 1.764.288.504.66.9 1.116 1.188.48.264 1.044.396 1.692.396 1.224 0 2.136-.444 2.736-1.332.6-.888.9-2.292.9-4.212 0-1.656-.276-2.988-.828-3.996-.552-1.032-1.488-1.548-2.808-1.548-1.152 0-2.052.432-2.7 1.296-.648.864-.972 2.28-.972 4.248Zm3.888-16.92h4.752v1.08l-3.996 4.464h-2.664l1.908-5.544ZM239.533 69V58.776c0-1.464-.216-2.52-.648-3.168-.408-.648-1.116-.972-2.124-.972-.888 0-1.644.264-2.268.792a4.24 4.24 0 0 0-1.296 1.908V69h-4.68V51h3.708l.54 2.376h.144c.552-.768 1.284-1.44 2.196-2.016.912-.576 2.088-.864 3.528-.864.888 0 1.68.12 2.376.36s1.284.636 1.764 1.188c.48.552.84 1.308 1.08 2.268.24.936.36 2.1.36 3.492V69h-4.68ZM84.384 99.39c-1.14-.04-2.14-.16-3-.36-.86-.2-1.53-.43-2.01-.69l1.17-3.39c.36.22.86.43 1.5.63.66.2 1.44.34 2.34.42v-6.15c-.62-.28-1.24-.59-1.86-.93-.6-.34-1.14-.75-1.62-1.23-.48-.48-.87-1.05-1.17-1.71-.28-.68-.42-1.48-.42-2.4 0-1.72.45-3.05 1.35-3.99.92-.96 2.16-1.58 3.72-1.86V75h3.12v2.61c.88.06 1.65.18 2.31.36.66.18 1.27.39 1.83.63l-1.08 3.33a10.225 10.225 0 0 0-3.06-.84v5.61c.62.28 1.24.6 1.86.96.64.34 1.2.75 1.68 1.23.5.48.9 1.05 1.2 1.71.32.64.48 1.41.48 2.31 0 1.84-.47 3.28-1.41 4.32-.92 1.02-2.19 1.68-3.81 1.98V102h-3.12v-2.61Zm4.44-6.03c0-.64-.26-1.16-.78-1.56-.5-.42-1.11-.8-1.83-1.14V96c.88-.1 1.53-.38 1.95-.84.44-.46.66-1.06.66-1.8Zm-5.61-10.11c0 .6.23 1.1.69 1.5.48.4 1.07.77 1.77 1.11V81c-.94.04-1.59.27-1.95.69-.34.42-.51.94-.51 1.56Zm18.282 12.87c1.24 0 2.18-.33 2.82-.99.66-.66.99-1.46.99-2.4 0-1.14-.34-1.98-1.02-2.52-.68-.54-1.75-.81-3.21-.81h-2.16v-2.07l3.63-4.95 1.71-1.35-2.37.27h-5.04V78h11.46v2.13l-4.23 5.67-1.32.81v.15l1.26-.18c.7.06 1.36.22 1.98.48.64.26 1.19.64 1.65 1.14.48.48.86 1.08 1.14 1.8.28.72.42 1.55.42 2.49 0 1.18-.2 2.2-.6 3.06a5.81 5.81 0 0 1-1.62 2.16c-.68.58-1.48 1.01-2.4 1.29-.92.28-1.91.42-2.97.42-.88 0-1.79-.08-2.73-.24-.94-.16-1.7-.39-2.28-.69l1.05-3.24c.52.26 1.09.47 1.71.63.64.16 1.35.24 2.13.24Zm10.991-7.65c0-3.68.63-6.41 1.89-8.19 1.26-1.8 3.07-2.7 5.43-2.7 2.52 0 4.37.89 5.55 2.67 1.18 1.76 1.77 4.5 1.77 8.22 0 3.7-.64 6.45-1.92 8.25-1.26 1.8-3.07 2.7-5.43 2.7-2.5 0-4.34-.94-5.52-2.82-1.18-1.9-1.77-4.61-1.77-8.13Zm3.9 0c0 2.44.26 4.33.78 5.67.54 1.32 1.42 1.98 2.64 1.98 1.18 0 2.04-.61 2.58-1.83.56-1.22.84-3.16.84-5.82 0-2.42-.26-4.29-.78-5.61-.52-1.32-1.41-1.98-2.67-1.98-1.2 0-2.07.62-2.61 1.86-.52 1.24-.78 3.15-.78 5.73Zm13.182 8.55c0-.7.22-1.25.66-1.65.44-.42 1.02-.63 1.74-.63.76 0 1.36.21 1.8.63.44.4.66.95.66 1.65s-.22 1.26-.66 1.68c-.44.42-1.04.63-1.8.63-.72 0-1.3-.21-1.74-.63-.44-.42-.66-.98-.66-1.68Zm7.322-8.55c0-3.68.63-6.41 1.89-8.19 1.26-1.8 3.07-2.7 5.43-2.7 2.52 0 4.37.89 5.55 2.67 1.18 1.76 1.77 4.5 1.77 8.22 0 3.7-.64 6.45-1.92 8.25-1.26 1.8-3.07 2.7-5.43 2.7-2.5 0-4.34-.94-5.52-2.82-1.18-1.9-1.77-4.61-1.77-8.13Zm3.9 0c0 2.44.26 4.33.78 5.67.54 1.32 1.42 1.98 2.64 1.98 1.18 0 2.04-.61 2.58-1.83.56-1.22.84-3.16.84-5.82 0-2.42-.26-4.29-.78-5.61-.52-1.32-1.41-1.98-2.67-1.98-1.2 0-2.07.62-2.61 1.86-.52 1.24-.78 3.15-.78 5.73Zm13.122 0c0-3.68.63-6.41 1.89-8.19 1.26-1.8 3.07-2.7 5.43-2.7 2.52 0 4.37.89 5.55 2.67 1.18 1.76 1.77 4.5 1.77 8.22 0 3.7-.64 6.45-1.92 8.25-1.26 1.8-3.07 2.7-5.43 2.7-2.5 0-4.34-.94-5.52-2.82-1.18-1.9-1.77-4.61-1.77-8.13Zm3.9 0c0 2.44.26 4.33.78 5.67.54 1.32 1.42 1.98 2.64 1.98 1.18 0 2.04-.61 2.58-1.83.56-1.22.84-3.16.84-5.82 0-2.42-.26-4.29-.78-5.61-.52-1.32-1.41-1.98-2.67-1.98-1.2 0-2.07.62-2.61 1.86-.52 1.24-.78 3.15-.78 5.73Zm13.121 0c0-3.68.63-6.41 1.89-8.19 1.26-1.8 3.07-2.7 5.43-2.7 2.52 0 4.37.89 5.55 2.67 1.18 1.76 1.77 4.5 1.77 8.22 0 3.7-.64 6.45-1.92 8.25-1.26 1.8-3.07 2.7-5.43 2.7-2.5 0-4.34-.94-5.52-2.82-1.18-1.9-1.77-4.61-1.77-8.13Zm3.9 0c0 2.44.26 4.33.78 5.67.54 1.32 1.42 1.98 2.64 1.98 1.18 0 2.04-.61 2.58-1.83.56-1.22.84-3.16.84-5.82 0-2.42-.26-4.29-.78-5.61-.52-1.32-1.41-1.98-2.67-1.98-1.2 0-2.07.62-2.61 1.86-.52 1.24-.78 3.15-.78 5.73Z" fill="#EA8C0D"/><defs><linearGradient id="c" x1="131.5" y1="417.95" x2="131.5" y2="99.76" gradientUnits="userSpaceOnUse"><stop stop-color="#E9881B"/><stop offset="1" stop-color="#FFECC7"/></linearGradient><linearGradient id="d" x1="131.57" y1="523.16" x2="131.57" y2="264.75" gradientUnits="userSpaceOnUse"><stop stop-color="#FFDD8A"/><stop offset="1" stop-color="#FFF9CA"/></linearGradient><linearGradient id="e" x1="171.8" y1="211.359" x2="168.77" y2="178.389" gradientUnits="userSpaceOnUse"><stop stop-color="#9FC701"/><stop offset=".18" stop-color="#A5CE01"/><stop offset=".45" stop-color="#B5E401"/><stop offset=".54" stop-color="#BCED01"/><stop offset=".8" stop-color="#D8ED2D"/><stop offset="1" stop-color="#ECED4D"/></linearGradient><linearGradient id="f" x1="92.472" y1="211.475" x2="95.502" y2="178.505" gradientUnits="userSpaceOnUse"><stop stop-color="#9FC701"/><stop offset=".18" stop-color="#A5CE01"/><stop offset=".45" stop-color="#B5E401"/><stop offset=".54" stop-color="#BCED01"/><stop offset=".8" stop-color="#D8ED2D"/><stop offset="1" stop-color="#ECED4D"/></linearGradient><clipPath id="a"><rect width="263" height="420" rx="60" fill="#fff"/></clipPath><clipPath id="b"><path fill="#fff" d="M0 0h263v420H0z"/></clipPath></defs></svg>