<svg width="263" height="463" fill="none" xmlns="http://www.w3.org/2000/svg"><g clip-path="url(#a)"><path d="M203 0H60C26.863 0 0 26.863 0 60v300c0 33.137 26.863 60 60 60h143c33.137 0 60-26.863 60-60V60c0-33.137-26.863-60-60-60Z" fill="url(#b)"/><circle cx="131.5" cy="401.5" r="168.5" fill="#FFF6B2"/><circle cx="131.5" cy="417.5" r="168.5" fill="#FFF49D"/><circle cx="131.5" cy="437.5" r="168.5" fill="#FEF086"/></g><mask id="c" style="mask-type:luminance" maskUnits="userSpaceOnUse" x="0" y="91" width="263" height="330"><path d="M203 420.71H60c-33.14 0-60-26.86-60-60L.34 92.19C.34 93.85 263 91 263 91v269.71c0 33.14-26.86 60-60 60Z" fill="#fff"/></mask><g mask="url(#c)"><mask id="d" style="mask-type:luminance" maskUnits="userSpaceOnUse" x="-1" y="79" width="264" height="342"><path d="M262.94 79.5h-263v341.21h263V79.5Z" fill="#fff"/></mask><g mask="url(#d)"><path d="M251.85 203.1c-12.75-12.35-26.57-48.55-26.57-48.55 10.63-5.86 0-12.14 0-12.14-12.96-3.98-24.02-24.48-24.02-24.48-9.14-12.97-27.63-6.28-27.63-6.28-4.96.81-9.69.72-13.92.17v-.17C149.59 110.1 140.5 103 140.5 103c-11.12-17.09-8.77-1.27-8.77-1.27-.36 4.11-2.62 3.89-2.62 3.89-9.59-7.6-8.59.09-11.4 1.9-4.9 3.16-19.44 4.16-30.39 4.13 0 0-18.49-6.7-27.63 6.28 0 0-11.05 20.51-24.02 24.48 0 0-10.63 6.28 0 12.14 0 0-13.81 36.2-26.57 48.55 0 0-12.75 15.28-12.33 29.09V422.4h267.41V232.18c.43-13.81-12.33-29.09-12.33-29.09v.01Z" fill="url(#e)"/><path d="M76.99 252.84s1.49 11.33 5.65 18.93l3.66-5.25s-2.56-1.9-1.18-7.01c0 0-4.86-2.34-8.13-6.68v.01ZM186.69 252.84s-1.49 11.33-5.65 18.93l-3.66-5.25s2.56-1.9 1.18-7.01c0 0 4.86-2.34 8.13-6.68v.01Z" fill="#432918"/><path d="M151.61 190.25s-11.21-20.02 4.34-29.91c0 0 14.77-8.56 25.32 5.67 0 0 12.98 13.87 10.11 24.96 0 0-9.62 10.8-16.01 10.83 0 0-10.01-7.57-23.76-11.55ZM114.47 191.28s11.21-17.91-3.98-29.3c0 0-14.65-14.65-31.29 10.67 0 0-7.78 12.84-2.35 20.62 0 0 5.83 7.43 12.95 7.97 0 0 14.87-8.92 24.67-9.96Z" fill="#fff"/><path d="M182.017 184.15c1.752-8.362-2.455-16.32-9.396-17.774-6.941-1.453-13.987 4.147-15.739 12.51-1.751 8.362 2.455 16.319 9.396 17.773 6.941 1.454 13.987-4.146 15.739-12.509Z" fill="url(#f)"/><path d="M99.854 196.678c6.94-1.454 11.147-9.412 9.395-17.774-1.751-8.362-8.798-13.963-15.738-12.509-6.941 1.454-11.148 9.411-9.396 17.774 1.751 8.362 8.798 13.963 15.739 12.509Z" fill="url(#g)"/><path d="M84.48 259.51s-.85 7.69 5.52 11.4c0 0 2 1.36 5.5-2.01l4.27-3.73s-12.49-1.85-15.29-5.65v-.01ZM178.56 259.51s.82 7.69-5.3 11.4c0 0-1.92 1.36-5.28-2.01l-4.1-3.73s12-1.85 14.69-5.65l-.01-.01Z" fill="#fff"/><path d="M192.07 236.86s6.87-23.51-43.95-44.86c0 0 54.66 6.7 47.86 41.33l-3.91 3.53Z" fill="#FFDBB3" style="mix-blend-mode:multiply"/><path d="M266.53 316.75v-20.26c-.48 5.55-9.89 4.1-9.89 4.1-32.8-2.89-29.91-40.73-29.91-40.73 4.18-53.33-26.16-96.19-26.16-96.19 14.34 75.91.76 106.22.76 106.22-1.93 5.43-14.46 13.02-14.46 13.02l1.15 4.27c17.88-3.86 24.11-16.08 24.11-16.08v26.59c1.71 10.44 5.63 18.25 10.3 24.09h-.02c14.96 20.26-12.09 38.98-12.09 38.98-17.58 3.62-15.56 28.22-15.56 28.22-7.41 29.4-24.87 35.49-34.47 36.54h75.25c5.33-7.6 3.35-27.13 3.35-27.13-1.45-12.3 5.06-25.69 5.06-25.69 6.62-16.79 3.7-28.51-1.85-36.44 4.16 1.66 7.03 2.15 7.03 2.15 20.02-.14 17.36-21.66 17.36-21.66h.04ZM122.84 234.69l-.05 3.16c.72 7.5-7.33 10.14-7.33 10.14-27.11 16.61-39.7-8.89-39.7-8.89 0-6.03-9.22-11.09-9.22-11.09-15.73-14.71-4.79-66.02-4.79-66.02-19.8 14.53-18.79 84.08-18.79 84.08.24 31.32-10.37 37.9-10.37 37.9C-4.07 308.55-3.2 260-3.2 260l-1.89-13.01v81.03c1.45 9.22 15.38 10.39 15.38 10.39 6.05.58 11.39.08 16.11-1.16-13.79 22.2-.97 46.67-.97 46.67-1.49 10.13 4.22 22.07 4.22 22.07 4.17 9.04 2.34 18.09 2.34 18.09h77.67C73 420.04 73 396.95 73 396.95c.57-15.19-23.43-32.92-23.43-32.92-11.77-8.51-14.67-21.91-15.32-29.79 20.54-10.6 25.59-36.59 25.59-36.59l-.36-8.14c7.86 2.17 12.15 2.2 12.15 2.2 3-19.84 13.76-30.29 13.76-30.29 7.96 5.06 27.63 2.07 27.63 2.07 15.74-.69 18.75-16.4 18.75-16.4l.46-11.69-9.39-.71Z" fill="#FFDBB3" style="mix-blend-mode:multiply"/><path d="M52.79 189.65s-10.12 74.28 23.79 85.29c0 0-2.44 6.74-4.26 12.35 0 0-10.85-5.57-16.46-10.82 0 0 .28 19.54-1.22 22.79 0 0-10 24.78-42.92 28.58 0 0 21.77-7.96 37.84-31.11 0 0 .21-42.08 0-42.2-.21-.12 0-32.68 0-32.68s-1.3-24.78 3.22-32.2h.01Z" fill="#FFDBB3" style="mix-blend-mode:multiply"/><path d="M161.28 191.72s13.51 6.39 22.01-2.62c0 0 6.87-6.29 0-19.06 0 0 10.94 11.64 6.69 22.4l-9.25 7.55-5.22 1.77s-11.01-8.16-14.23-10.05v.01Z" fill="#000" style="mix-blend-mode:multiply" opacity=".05"/><path d="M206.35 181.53s14.72 25.03 10.26 69.03c0 0-6.75 50.51 29.66 65.22 0 0 12.91 5.31 17.91-2.89v4.58s-6.58 18.57-26.59 4.82l-25.45-25.81V266.7s-7.42 6.51-15.59 8.5c0 0 14.98-12 14.98-19.23 0 0 4.08-54.09-5.2-74.44h.02Z" fill="#FFDBB3" style="mix-blend-mode:multiply"/><path d="M111.03 165.77s6.51 19.53-10.58 28.22l15.16-3.18s-.46-7.67-.46-7.85c0-.18 1.9-9.59-4.12-17.18v-.01Z" fill="#000" style="mix-blend-mode:multiply" opacity=".05"/><path d="M109.04 266.52s11.7-.18 18.21-6.03c0 0 3.92-4.02 8.62 0 0 0 7.17 6.15 16.16 5.85 0 0-12.96-3.58-16.28-10.56 0 0-2.66-7.45-7.27-1.46 0 0-6.9 11.78-19.44 12.2Z" fill="#000" style="mix-blend-mode:multiply" opacity=".14"/><path d="M178.05 265.17c-.87 2.11-2.41 4.09-4.51 5.4-3.88 2.42-8.92-5.33-8.92-5.33.84.04 1.76-.08 2.71-.28l-.92-.43s-27.19 5.04-34.17-13.7l-2.97 3.89s-7.76 13.99-30.75 10.93c-3.01 4.98-5.94 5.47-7.52 5.27l-.21.18c.27 0 6.22.03 8.35-1.6 0 0 16.41 8.5 29.75-5.97 0 0 3.26-3.65 6.27.63 0 0 7.54 9.77 27.45 6.23 0 0 3.65-.99 4.14-1.51 0 0 6.6 9.56 13.66-.34 0 0-.76-1.77-2.35-3.39l-.01.02Z" fill="#000" style="mix-blend-mode:multiply" opacity=".14"/><path d="m193.99 235.12-3.55 10.57c-5.21 13.85-26.1 16.32-26.1 16.32-29.54.18-27.8-25.14-27.8-25.14l-6.28.95c-1.58 15.6-12.53 20.03-12.53 20.03-38.71 10.31-48.48-23.15-48.48-23.15.54 25.69 10.52 34.21 10.52 34.21l5.4-7.26 9.04 3.07c29.12 3.8 34.67-11.03 34.67-11.03l2.05-3.12 2.87-1.29c3.21 18.75 27.32 16.76 37.98 14.93l-.55-.45 8.27-4.44s-.07 3.31-1.26 5.97l2.17 3.28c17.16-13.15 13.59-33.44 13.59-33.44l-.01-.01Z" fill="#FFDBB3" style="mix-blend-mode:multiply"/><path d="M195.65 231.84c-4.02-.13-6.63 8.64-6.63 8.64-16.8 15.01-31.37 6.51-31.37 6.51-9.11-5.97-1.93-11.76-1.93-11.76 6.51-7.42-5.57-19.06-5.57-19.06-.14 10.42-2.75 9.84-2.75 9.84l-15.26 11.84.28 12.72c6.71 16.69 27.94 13.7 38.82 13.19l8.27-4.44s-.31 3.07-1.49 5.79c2.65 3.35 5.24 8.44 5.24 8.44 20.08-21.71 12.4-41.7 12.4-41.7l-.01-.01Z" fill="#FFDBB3" style="mix-blend-mode:multiply"/><path d="M88.81 269.75s4.24.49 3.78-5.59l6.19.91s-2.88 5.31-7.61 6.02c0 0-.57.65-2.36-1.34ZM168.92 269.51s4.53 1.43 4.89-5.84V262l5.31-2.48s-1.13 11.71-7.88 11.44l-2.32-1.45Z" fill="#000" style="mix-blend-mode:multiply" opacity=".14"/><path d="M121.96 197.61s-28.11-2.89-42.58 19.9c0 0-2.89 6.51 6.15 7.6 0 0 2.06.9 6.91-4.7 0 0 6.99-19.35 29.52-22.79v-.01Z" fill="#fff" opacity=".43"/><path opacity=".8" d="M166.1 180.23a8.36 8.36 0 1 0 0-16.72 8.36 8.36 0 0 0 0 16.72ZM93.14 180.23a8.36 8.36 0 1 0 0-16.72 8.36 8.36 0 0 0 0 16.72Z" fill="#fff"/><path d="M113.86 188.33s7.1-19.64-9.67-27.82c0 0-16.66-6.84-26.74 19.38 0 0-1.54 6.07 0 9.77 0 0 6.17 9.1 12.34 11.57l-1.95.87s-12.44-4.83-14.7-12.13c0 0-1.03-7.3 2.37-13.78 0 0 14.4-30.54 35.79-17.48 0 0 20.26 13.68 4.94 31.98l-6.68 1.23s3.7-1.44 4.32-3.6l-.02.01Z" fill="#432918"/><path d="M121.96 188.97s-19.05-5.24-47.58 25.22c0 0 .23 1.77 1.93 0 0 0 16.58-18.2 37.17-20.82 0 0 9.02.85 10.41-1.93 0 0 1.83-1.58-1.93-2.47ZM151.89 188.33s-7.1-19.64 9.67-27.82c0 0 16.66-6.84 26.74 19.38 0 0 1.54 6.07 0 9.77 0 0-6.17 9.1-12.34 11.57l1.95.87s12.44-4.83 14.7-12.13c0 0 1.03-7.3-2.37-13.78 0 0-14.4-30.54-35.79-17.48 0 0-20.26 13.68-4.94 31.98l6.68 1.23s-3.7-1.44-4.32-3.6l.02.01Z" fill="#432918"/><path d="M143.8 188.97s19.05-5.24 47.58 25.22c0 0-.23 1.77-1.93 0 0 0-16.58-18.2-37.17-20.82 0 0-9.02.85-10.41-1.93 0 0-1.83-1.58 1.93-2.47Z" fill="#432918"/><path d="M164.21 265.26s6.54 7.93 9.33 5.32c0 0 5.49-3.71 5.32-10.72 0 0-6.5 5.32-14.64 5.4h-.01Z" stroke="#432918" stroke-width="1.01" stroke-miterlimit="10"/><path d="M131.63 235.1s1.91.23 1.91 4.39c0 0-1.69 18.57 14.06 22.39 0 0 22.05 7.2 36.34-9.11 0 0 7.2-6.86 7.99-16.54 0 0 .11-4.61 3.71-4.39 0 0 2.59.11 0 7.31 0 0-9.34 31.05-42.87 27.23 0 0-21.15-1.8-21.15-22.17v-9.11h.01Z" fill="#432918"/><path d="M99.13 265.26s-6.54 7.93-9.33 5.32c0 0-5.49-3.71-5.32-10.72 0 0 6.5 5.32 14.64 5.4h.01Z" stroke="#432918" stroke-width="1.01" stroke-miterlimit="10"/><path d="M131.72 235.1s-1.91.23-1.91 4.39c0 0 1.69 18.57-14.06 22.39 0 0-22.05 7.2-36.34-9.11 0 0-7.2-6.86-7.99-16.54 0 0-.11-4.61-3.71-4.39 0 0-2.59.11 0 7.31 0 0 9.34 31.05 42.87 27.23 0 0 21.15-1.8 21.15-22.17v-9.11h-.01Z" fill="#432918"/><path d="M129.42 254.53s2.29-3.14 4.5 0l.75-1.39-2.62-11.69s-1.8 7.58-1.79 7.83c.01.25-1.37 5.01-1.37 5.01l.54.24h-.01Z" fill="#432918"/><path d="M152.12 218.88c-6.99-11.44-20.45-9.86-20.45-9.86s-13.46-1.59-20.45 9.86c0 0-4.66 7.21 2.12 11.23 0 0 2.65-2.65 5.51-.64 0 0 1.91 1.8-.21 4.56 0 0 4.34 3.81 13.03 3.81s13.03-3.81 13.03-3.81c-2.12-2.76-.21-4.56-.21-4.56 2.86-2.01 5.51.64 5.51.64 6.78-4.03 2.12-11.23 2.12-11.23Z" fill="#CE5700"/><path opacity=".22" d="M130.26 210.87s-13.61.48-16.63 9.29c0 0-1.21 2.98 1.99 3.24 0 0 3.44.98 3.44-2.76 0 0 .7-8.08 11.2-9.77Z" fill="#fff"/><path d="M120.26 235.11s15.8 5.66 27.14-9.11c0 0 5.8-7.14-1.5-13.55 0 0 8.42 5.16 7.8 12.7 0 0-.71 3.52-3.68 4.96 0 0-3.24-2.84-5.69-.49 0 0-1.54 1.97.39 4.41 0 0-10.22 7.98-24.45 1.08h-.01Z" fill="#CE5700" style="mix-blend-mode:multiply" opacity=".51"/><path d="M150.97 143.18s-3.19 4.01 2.98 4.32c0 0 20.87-4.01 32.6 10.18 0 0 .9.82.9-.64 0 0-5.48-12.57-24.45-15.27 0 0-8.33-1.26-12.03 1.41ZM114.79 143.18s3.19 4.01-2.98 4.32c0 0-20.87-4.01-32.6 10.18 0 0-.9.82-.9-.64 0 0 5.48-12.57 24.45-15.27 0 0 8.33-1.26 12.03 1.41Z" fill="#6D4A37"/><path d="M199.96 161.97s16.21 32.11 14.3 63.26c0 0-2.55 56.9.16 69.94 0 0 36.4 48.96 49.75 21.3 0 0-10.17 40.69-54.04-18.44 0 0-.32-47.37.64-78.52 0 0 1.6-24.16-10.8-57.54h-.01Z" fill="#432918"/><path d="M186.69 281.85s21.32-16.35 25.46-31.29v7.74s-8.25 13.29-25.19 25l-.27-1.45ZM226.99 334.94c-.47-.71 6.97 24.96.77 32.13l-5.63 6.22s-3.87 1.86-2.76 6.08l.67 11.11s1.57 4.12-2.66 6.98c0 0-8.06 8.44-11.04 18.4 0 0 6.48-10.81 12.66-14.49 0 0 5.72-2.7 5.34-8.92 0 0-2.87-11.89 2.14-17.83 0 0 10.83-8.17 8.83-18.31 0 0-2-11.88-8.33-21.37h.01ZM34 334.94c.47-.71-6.97 24.96-.77 32.13l5.63 6.22s3.87 1.86 2.76 6.08l-.67 11.11s-1.57 4.12 2.66 6.98c0 0 8.06 8.44 11.04 18.4 0 0-6.48-10.81-12.66-14.49 0 0-5.72-2.7-5.34-8.92 0 0 2.87-11.89-2.14-17.83 0 0-10.83-8.17-8.83-18.31 0 0 2-11.88 8.33-21.37H34ZM61.75 161.97s-16.21 32.11-14.3 63.26c0 0 2.55 56.9-.16 69.94 0 0-36.4 48.96-49.75 21.3 0 0 10.17 40.69 54.04-18.44 0 0 .32-47.37-.64-78.52 0 0-1.6-24.16 10.8-57.54h.01Z" fill="#432918"/><path d="M74.16 281.48s-21.91-14.83-24.59-30.92v7.74s5.12 12.8 24.12 24.45l.47-1.27Z" fill="#432918"/><path d="M133.37 96.22c1.11 0 3.34 2.18 7.7 9.61 0 0 8.54 4.27 18.66 5.82v.17c2.06.27 4.22.43 6.48.43 2.39 0 4.89-.18 7.44-.6 0 0 4.77-1.73 10.66-1.73 5.89 0 12.47 1.62 16.97 8.01 0 0 11.05 20.51 24.02 24.48 0 0 10.63 6.28 0 12.14 0 0 13.81 36.2 26.57 48.55 0 0 12.75 15.28 12.33 29.09V422.4H-3.2V232.18c-.43-13.81 12.33-29.09 12.33-29.09 12.75-12.35 26.57-48.55 26.57-48.55-10.63-5.86 0-12.14 0-12.14 12.96-3.98 24.02-24.48 24.02-24.48 4.5-6.38 11.26-8.01 16.97-8.01 5.89 0 10.66 1.73 10.66 1.73 2.32.38 4.75.54 7.21.54 9.64 0 19.62-2.51 23.9-4.31.37-.24 1.38-4.78 4.67-4.78 1.6 0 3.75 1.09 6.63 4.29 0 0 2.36-2.64 2.72-6.75 0 0-.68-4.44.9-4.44m0-2.03c-.82 0-1.57.35-2.11.98-1.18 1.37-1.05 3.95-.83 5.53-.15 1.38-.58 2.56-1.02 3.46-2.26-2.07-4.33-3.08-6.29-3.08-3.8 0-5.47 3.68-6.13 5.21-4.2 1.6-13.33 3.88-22.44 3.88-2.41 0-4.67-.16-6.71-.49-.99-.34-5.58-1.78-11.16-1.78-8.1 0-14.54 3.07-18.63 8.87l-.07.1-.06.11c-.11.2-10.81 19.82-22.82 23.51l-.23.07-.21.12c-.59.35-5.79 3.56-5.72 8.22.04 2.43 1.46 4.62 4.24 6.5-2.8 7.04-14.67 35.79-25.47 46.24l-.08.07-.07.08c-.54.65-13.22 16.01-12.8 30.42v192.21h271.44V232.21c.42-14.41-12.26-29.77-12.8-30.42l-.07-.08-.08-.07c-10.8-10.45-22.66-39.21-25.47-46.24 2.78-1.89 4.2-4.07 4.24-6.5.07-4.67-5.13-7.87-5.72-8.22l-.21-.12-.23-.07c-12.03-3.69-22.72-23.31-22.82-23.5l-.06-.11-.07-.1c-4.09-5.8-10.53-8.87-18.63-8.87-5.58 0-10.17 1.45-11.16 1.78-2.26.36-4.6.54-6.94.54-1.48 0-2.98-.07-4.49-.22v-.1l-1.68-.26c-8.29-1.27-15.56-4.46-17.53-5.38-4.96-8.37-7.18-10.08-9.13-10.08l.02-.03Z" fill="#432918"/></g></g><mask id="h" style="mask-type:luminance" maskUnits="userSpaceOnUse" x="7" y="236" width="250" height="227"><path d="M67.62 239.55s4.28 13.37 16.49 21.21c0 0-.4 5.88 5.75 10.51 0 0 1.43 1.25 4.19-.67 0 0 3.61-2.76 4.95-4.46 0 0 12.07 3.07 23.88-4.23 0 0 4.66-3.76 5.52-5.48 0 0 .98-3.16 3.3-3.43 0 0 2 .04 3.03 3.03 0 0 4.9 9.4 20 10.56 0 0 6.91.36 9.67-.45 0 0 2.72 3.7 7.04 5.35 0 0 1.83.8 4.01-2 0 0 3.3-3.12 3.88-8.73 0 0 8.78-7.04 11.94-12.52 0 0 3.85-6.61 5.15-11.12h60.12v225.39H7.74V236.28l59.88 3.27Z" fill="#fff"/></mask><g mask="url(#h)"><path d="M131.5 459.5c57.769 0 104.6-46.831 104.6-104.6 0-57.769-46.831-104.6-104.6-104.6-57.769 0-104.6 46.831-104.6 104.6 0 57.769 46.831 104.6 104.6 104.6Z" fill="url(#i)"/><path d="M131.5 252.12c56.76 0 102.78 46.02 102.78 102.78S188.26 457.68 131.5 457.68 28.72 411.66 28.72 354.9 74.74 252.12 131.5 252.12Zm0-3.65c-58.68 0-106.43 47.74-106.43 106.43 0 58.69 47.74 106.43 106.43 106.43 58.69 0 106.43-47.74 106.43-106.43 0-58.69-47.74-106.43-106.43-106.43Z" fill="#432918"/><path d="M131.5 439.68c46.823 0 84.78-37.957 84.78-84.78s-37.957-84.78-84.78-84.78-84.78 37.957-84.78 84.78 37.957 84.78 84.78 84.78Z" fill="url(#j)"/><g opacity=".57" fill="#000"><path d="M83.59 363.86v-1.48c5.87-.14 7.29-1.55 7.29-7.29v-27.8c0-2.97-1.15-4.59-3.91-4.59-1.35 0-2.5.34-3.78.54v-1.49l17.68-7.02h3.51v42.65c0 3.78 1.01 4.93 5.8 4.99v1.48H83.59v.01ZM144.79 339.84c0 17.54-7.15 24.83-15.92 24.83s-15.93-7.29-15.93-24.83 7.15-24.83 15.93-24.83 15.92 7.29 15.92 24.83Zm-19.16 16.6c0 4.79 1.35 5.8 3.24 5.8 1.89 0 3.24-1.01 3.24-5.8v-33.2c0-4.79-1.35-5.8-3.24-5.8-1.89 0-3.24 1.01-3.24 5.8v33.2ZM179.81 339.84c0 17.54-7.15 24.83-15.92 24.83s-15.93-7.29-15.93-24.83 7.15-24.83 15.93-24.83 15.92 7.29 15.92 24.83Zm-19.16 16.6c0 4.79 1.35 5.8 3.24 5.8 1.89 0 3.24-1.01 3.24-5.8v-33.2c0-4.79-1.35-5.8-3.24-5.8-1.89 0-3.24 1.01-3.24 5.8v33.2ZM75.82 394.66v-.72c2.27 0 3.15-.56 3.15-3.09v-15.76c0-2.53-.89-3.09-3.15-3.09v-.72h12.15c6.24 0 9.26 2.1 9.26 6.3 0 3.87-3.09 6.44-8.67 6.44h-2.49v6.83c0 2.56 1.02 3.09 3.41 3.09v.72H75.82Zm10.25-12.08c3.15 0 3.87-1.77 3.87-4.99 0-3.02-.59-4.86-3.87-4.86v9.85ZM97.49 394.66v-.72c2.27 0 3.15-.56 3.15-3.09v-15.76c0-2.53-.89-3.09-3.15-3.09v-.72h20.36v6.44h-.72c-.36-3.55-1.97-4.99-5.71-4.99h-3.68v9.33c3.35 0 4.14-1.12 4.6-4.99h.72v11.36h-.72c-.46-3.87-1.25-4.99-4.6-4.92v8.01c0 1.25.26 1.71 1.64 1.71h2.89c2.17 0 4.93-.46 6.24-5.45h.82l-1.18 6.9H97.5l-.01-.02ZM121.78 386.78h.72c.76 4.3 4.2 6.83 8.14 6.83 2.46 0 4.53-.98 4.53-3.02 0-5.48-13.33-3.97-13.33-12.58 0-4.86 4.5-7.12 8.83-7.12 4.01 0 5.65 1.77 6.9 1.77.69 0 1.02-.33 1.08-1.38h.72v6.96h-.72c-.85-3.71-3.81-5.91-7.62-5.91-2.1 0-3.74.95-3.74 2.96 0 4.79 13.07 3.09 13.07 12.05 0 5.48-3.88 7.72-9.06 7.72-2.95 0-6.57-1.38-7.26-1.38-.69 0-1.35.53-1.54 1.12h-.72v-8.02ZM154.31 370.89c7.29 0 12.74 4.1 12.74 12.08s-5.45 12.08-12.74 12.08-12.74-4.1-12.74-12.08 5.45-12.08 12.74-12.08Zm0 22.72c3.22 0 5.45-2.96 5.45-10.64 0-7.68-2.23-10.64-5.45-10.64s-5.45 2.96-5.45 10.64c0 7.68 2.23 10.64 5.45 10.64ZM168.59 386.78h.72c.76 4.3 4.2 6.83 8.14 6.83 2.46 0 4.53-.98 4.53-3.02 0-5.48-13.33-3.97-13.33-12.58 0-4.86 4.5-7.12 8.83-7.12 4.01 0 5.65 1.77 6.9 1.77.69 0 1.02-.33 1.08-1.38h.72v6.96h-.72c-.85-3.71-3.81-5.91-7.62-5.91-2.1 0-3.74.95-3.74 2.96 0 4.79 13.07 3.09 13.07 12.05 0 5.48-3.88 7.72-9.06 7.72-2.95 0-6.57-1.38-7.26-1.38-.69 0-1.35.53-1.54 1.12h-.72v-8.02Z"/></g><path d="M82.74 362.42v-1.48c5.87-.14 7.29-1.55 7.29-7.29v-27.8c0-2.97-1.15-4.59-3.91-4.59-1.35 0-2.5.34-3.78.54v-1.49l17.68-7.02h3.51v42.65c0 3.78 1.01 4.93 5.8 4.99v1.48H82.74v.01Z" fill="url(#k)"/><path d="M143.94 338.4c0 17.54-7.15 24.83-15.92 24.83s-15.93-7.29-15.93-24.83 7.15-24.83 15.93-24.83 15.92 7.29 15.92 24.83ZM124.78 355c0 4.79 1.35 5.8 3.24 5.8 1.89 0 3.24-1.01 3.24-5.8v-33.2c0-4.79-1.35-5.8-3.24-5.8-1.89 0-3.24 1.01-3.24 5.8V355Z" fill="url(#l)"/><path d="M178.96 338.4c0 17.54-7.15 24.83-15.92 24.83s-15.93-7.29-15.93-24.83 7.15-24.83 15.93-24.83 15.92 7.29 15.92 24.83ZM159.8 355c0 4.79 1.35 5.8 3.24 5.8 1.89 0 3.24-1.01 3.24-5.8v-33.2c0-4.79-1.35-5.8-3.24-5.8-1.89 0-3.24 1.01-3.24 5.8V355Z" fill="url(#m)"/><path d="M74.97 393.22v-.72c2.27 0 3.15-.56 3.15-3.09v-15.76c0-2.53-.89-3.09-3.15-3.09v-.72h12.15c6.24 0 9.26 2.1 9.26 6.3 0 3.87-3.09 6.44-8.67 6.44h-2.49v6.83c0 2.56 1.02 3.09 3.41 3.09v.72H74.97Zm10.25-12.08c3.15 0 3.87-1.77 3.87-4.99 0-3.02-.59-4.86-3.87-4.86v9.85Z" fill="url(#n)"/><path d="M96.64 393.22v-.72c2.27 0 3.15-.56 3.15-3.09v-15.76c0-2.53-.89-3.09-3.15-3.09v-.72H117v6.44h-.72c-.36-3.55-1.97-4.99-5.71-4.99h-3.68v9.33c3.35 0 4.14-1.12 4.6-4.99h.72v11.36h-.72c-.46-3.87-1.25-4.99-4.6-4.92v8.01c0 1.25.26 1.71 1.64 1.71h2.89c2.17 0 4.93-.46 6.24-5.45h.82l-1.18 6.9H96.65l-.01-.02Z" fill="url(#o)"/><path d="M120.93 385.33h.72c.76 4.3 4.2 6.83 8.14 6.83 2.46 0 4.53-.98 4.53-3.02 0-5.48-13.33-3.97-13.33-12.58 0-4.86 4.5-7.12 8.83-7.12 4.01 0 5.65 1.77 6.9 1.77.69 0 1.02-.33 1.08-1.38h.72v6.96h-.72c-.85-3.71-3.81-5.91-7.62-5.91-2.1 0-3.74.95-3.74 2.96 0 4.79 13.07 3.09 13.07 12.05 0 5.48-3.88 7.72-9.06 7.72-2.95 0-6.57-1.38-7.26-1.38-.69 0-1.35.53-1.54 1.12h-.72v-8.02Z" fill="url(#p)"/><path d="M153.46 369.44c7.29 0 12.74 4.1 12.74 12.08s-5.45 12.08-12.74 12.08-12.74-4.1-12.74-12.08 5.45-12.08 12.74-12.08Zm0 22.72c3.22 0 5.45-2.96 5.45-10.64 0-7.68-2.23-10.64-5.45-10.64s-5.45 2.96-5.45 10.64c0 7.68 2.23 10.64 5.45 10.64Z" fill="url(#q)"/><path d="M167.74 385.33h.72c.76 4.3 4.2 6.83 8.14 6.83 2.46 0 4.53-.98 4.53-3.02 0-5.48-13.33-3.97-13.33-12.58 0-4.86 4.5-7.12 8.83-7.12 4.01 0 5.65 1.77 6.9 1.77.69 0 1.02-.33 1.08-1.38h.72v6.96h-.72c-.85-3.71-3.81-5.91-7.62-5.91-2.1 0-3.74.95-3.74 2.96 0 4.79 13.07 3.09 13.07 12.05 0 5.48-3.88 7.72-9.06 7.72-2.95 0-6.57-1.38-7.26-1.38-.69 0-1.35.53-1.54 1.12h-.72v-8.02Z" fill="url(#r)"/><g opacity=".37"><path d="m48.69 415.77 157.07-131.89c-3.33-3.48-6.91-6.73-10.7-9.72l-154.1 129.4c2.29 4.26 4.89 8.33 7.74 12.21h-.01ZM185.21 267.27c-15.63-9.6-34.02-15.15-53.71-15.15-56.76 0-102.78 46.02-102.78 102.78 0 13.33 2.57 26.05 7.18 37.74l149.31-125.37Z" fill="#fff" opacity=".64"/></g></g><path d="M62.002 23.8a26.335 26.335 0 0 1 1.692-.18 54.52 54.52 0 0 1 3.924-.144 47.245 47.245 0 0 1 1.728-.036c2.232 0 4.14.312 5.724.936 1.584.624 2.868 1.5 3.852 2.628.984 1.128 1.704 2.472 2.16 4.032.456 1.56.684 3.276.684 5.148a18.66 18.66 0 0 1-.648 4.932 11.161 11.161 0 0 1-2.16 4.212c-1.008 1.224-2.34 2.208-3.996 2.952-1.632.744-3.66 1.116-6.084 1.116-.384 0-.9-.012-1.548-.036a65.348 65.348 0 0 1-1.98-.108c-.672-.024-1.32-.06-1.944-.108a13.445 13.445 0 0 1-1.404-.108V23.8Zm7.74 4.032c-.528 0-1.068.012-1.62.036-.528.024-.924.06-1.188.108V44.86c.096.024.252.048.468.072.24 0 .492.012.756.036.264 0 .516.012.756.036h.54c1.392 0 2.544-.24 3.456-.72.936-.504 1.668-1.164 2.196-1.98.552-.816.936-1.752 1.152-2.808.216-1.08.324-2.184.324-3.312 0-.984-.096-1.968-.288-2.952a7.258 7.258 0 0 0-1.08-2.7c-.504-.792-1.2-1.44-2.088-1.944-.888-.504-2.016-.756-3.384-.756ZM84.338 40c0-3.048.744-5.388 2.232-7.02 1.488-1.656 3.576-2.484 6.264-2.484 1.44 0 2.688.228 3.744.684 1.056.456 1.932 1.104 2.628 1.944.696.816 1.212 1.812 1.548 2.988.36 1.176.54 2.472.54 3.888 0 3.048-.744 5.4-2.232 7.056-1.464 1.632-3.54 2.448-6.228 2.448-1.44 0-2.688-.228-3.744-.684a7.42 7.42 0 0 1-2.664-1.908c-.696-.84-1.224-1.848-1.584-3.024-.336-1.176-.504-2.472-.504-3.888Zm4.824 0c0 .792.072 1.524.216 2.196.144.672.36 1.26.648 1.764.288.504.66.9 1.116 1.188.48.264 1.044.396 1.692.396 1.224 0 2.136-.444 2.736-1.332.6-.888.9-2.292.9-4.212 0-1.656-.276-2.988-.828-3.996-.552-1.032-1.488-1.548-2.808-1.548-1.152 0-2.052.432-2.7 1.296-.648.864-.972 2.28-.972 4.248Zm26.392 9V38.776c0-1.464-.216-2.52-.648-3.168-.408-.648-1.116-.972-2.124-.972-.888 0-1.644.264-2.268.792a4.24 4.24 0 0 0-1.296 1.908V49h-4.68V31h3.708l.54 2.376h.144c.552-.768 1.284-1.44 2.196-2.016.912-.576 2.088-.864 3.528-.864.888 0 1.68.12 2.376.36s1.284.636 1.764 1.188c.48.552.84 1.308 1.08 2.268.24.936.36 2.1.36 3.492V49h-4.68Zm8.494-16.956c.96-.432 2.1-.768 3.42-1.008a21.07 21.07 0 0 1 4.14-.396c1.248 0 2.292.156 3.132.468.84.288 1.5.708 1.98 1.26a4.503 4.503 0 0 1 1.044 1.98c.216.768.324 1.632.324 2.592a48.16 48.16 0 0 1-.108 3.204c-.072 1.056-.12 2.1-.144 3.132 0 1.032.036 2.04.108 3.024.072.96.252 1.872.54 2.736h-3.816l-.756-2.484h-.18c-.48.744-1.152 1.392-2.016 1.944-.84.528-1.932.792-3.276.792-.84 0-1.596-.12-2.268-.36a5.279 5.279 0 0 1-1.728-1.08 5.17 5.17 0 0 1-1.116-1.656c-.264-.648-.396-1.368-.396-2.16 0-1.104.24-2.028.72-2.772.504-.768 1.212-1.38 2.124-1.836.936-.48 2.04-.804 3.312-.972 1.296-.192 2.736-.252 4.32-.18.168-1.344.072-2.304-.288-2.88-.36-.6-1.164-.9-2.412-.9-.936 0-1.932.096-2.988.288-1.032.192-1.884.444-2.556.756l-1.116-3.492Zm5.94 13.392c.936 0 1.68-.204 2.232-.612.552-.432.96-.888 1.224-1.368v-2.34a13.07 13.07 0 0 0-2.16-.036 7.772 7.772 0 0 0-1.8.324c-.528.168-.948.408-1.26.72-.312.312-.468.708-.468 1.188 0 .672.192 1.2.576 1.584.408.36.96.54 1.656.54Zm24.771 2.448c-.72.528-1.596.924-2.628 1.188a11.344 11.344 0 0 1-3.132.432c-1.44 0-2.664-.228-3.672-.684-.984-.456-1.788-1.092-2.412-1.908-.624-.84-1.08-1.848-1.368-3.024-.264-1.176-.396-2.472-.396-3.888 0-3.048.684-5.388 2.052-7.02 1.368-1.656 3.36-2.484 5.976-2.484 1.32 0 2.376.108 3.168.324a10.72 10.72 0 0 1 2.196.828l-1.116 3.816a9.249 9.249 0 0 0-1.656-.612c-.528-.144-1.14-.216-1.836-.216-1.296 0-2.28.432-2.952 1.296-.672.84-1.008 2.196-1.008 4.068 0 .768.084 1.476.252 2.124.168.648.42 1.212.756 1.692s.768.864 1.296 1.152c.552.264 1.188.396 1.908.396.792 0 1.464-.096 2.016-.288a7.73 7.73 0 0 0 1.476-.756l1.08 3.564ZM157.985 31h4.68v18h-4.68V31Zm-.684-5.076c0-.696.252-1.284.756-1.764.528-.504 1.248-.756 2.16-.756.912 0 1.644.252 2.196.756.576.48.864 1.068.864 1.764s-.288 1.284-.864 1.764c-.552.456-1.284.684-2.196.684-.912 0-1.632-.228-2.16-.684a2.342 2.342 0 0 1-.756-1.764ZM166.393 40c0-3.048.744-5.388 2.232-7.02 1.488-1.656 3.576-2.484 6.264-2.484 1.44 0 2.688.228 3.744.684 1.056.456 1.932 1.104 2.628 1.944.696.816 1.212 1.812 1.548 2.988.36 1.176.54 2.472.54 3.888 0 3.048-.744 5.4-2.232 7.056-1.464 1.632-3.54 2.448-6.228 2.448-1.44 0-2.688-.228-3.744-.684a7.42 7.42 0 0 1-2.664-1.908c-.696-.84-1.224-1.848-1.584-3.024-.336-1.176-.504-2.472-.504-3.888Zm4.824 0c0 .792.072 1.524.216 2.196.144.672.36 1.26.648 1.764.288.504.66.9 1.116 1.188.48.264 1.044.396 1.692.396 1.224 0 2.136-.444 2.736-1.332.6-.888.9-2.292.9-4.212 0-1.656-.276-2.988-.828-3.996-.552-1.032-1.488-1.548-2.808-1.548-1.152 0-2.052.432-2.7 1.296-.648.864-.972 2.28-.972 4.248Zm3.888-16.92h4.752v1.08l-3.996 4.464h-2.664l1.908-5.544ZM197.609 49V38.776c0-1.464-.216-2.52-.648-3.168-.408-.648-1.116-.972-2.124-.972-.888 0-1.644.264-2.268.792a4.24 4.24 0 0 0-1.296 1.908V49h-4.68V31h3.708l.54 2.376h.144c.552-.768 1.284-1.44 2.196-2.016.912-.576 2.088-.864 3.528-.864.888 0 1.68.12 2.376.36s1.284.636 1.764 1.188c.48.552.84 1.308 1.08 2.268.24.936.36 2.1.36 3.492V49h-4.68ZM63.215 74.596l.648 4.284h.18l.72-4.32 4.824-14.76h5.184l-9.36 25.38h-3.528L52.451 59.8h5.724l5.04 14.796ZM72.948 76c0-3.048.744-5.388 2.232-7.02 1.488-1.656 3.576-2.484 6.264-2.484 1.44 0 2.688.228 3.744.684 1.056.456 1.932 1.104 2.628 1.944.696.816 1.212 1.812 1.548 2.988.36 1.176.54 2.472.54 3.888 0 3.048-.744 5.4-2.232 7.056-1.464 1.632-3.54 2.448-6.228 2.448-1.44 0-2.688-.228-3.744-.684a7.42 7.42 0 0 1-2.664-1.908c-.696-.84-1.224-1.848-1.584-3.024-.336-1.176-.504-2.472-.504-3.888Zm4.824 0c0 .792.072 1.524.216 2.196.144.672.36 1.26.648 1.764.288.504.66.9 1.116 1.188.48.264 1.044.396 1.692.396 1.224 0 2.136-.444 2.736-1.332.6-.888.9-2.292.9-4.212 0-1.656-.276-2.988-.828-3.996-.552-1.032-1.488-1.548-2.808-1.548-1.152 0-2.052.432-2.7 1.296-.648.864-.972 2.28-.972 4.248Zm20.2 2.952c0 .84.108 1.452.324 1.836.216.384.564.576 1.044.576.288 0 .564-.024.828-.072a5 5 0 0 0 1.044-.324l.504 3.672c-.384.192-.972.384-1.764.576-.792.192-1.608.288-2.448.288-1.368 0-2.412-.312-3.132-.936-.72-.648-1.08-1.704-1.08-3.168V59.8h4.68v19.152ZM108.23 67v10.224c0 1.464.168 2.52.504 3.168.36.648 1.044.972 2.052.972.888 0 1.62-.264 2.196-.792a4.783 4.783 0 0 0 1.332-1.944V67h4.68v12.528c0 .984.048 1.956.144 2.916.096.936.24 1.788.432 2.556h-3.528l-.828-2.664h-.144c-.552.912-1.32 1.668-2.304 2.268-.984.6-2.148.9-3.492.9-.912 0-1.728-.12-2.448-.36a4.022 4.022 0 0 1-1.8-1.188c-.48-.552-.852-1.296-1.116-2.232-.24-.936-.36-2.112-.36-3.528V67h4.68Zm25.887 18V74.776c0-1.464-.216-2.52-.648-3.168-.408-.648-1.116-.972-2.124-.972-.888 0-1.644.264-2.268.792a4.24 4.24 0 0 0-1.296 1.908V85h-4.68V67h3.708l.54 2.376h.144c.552-.768 1.284-1.44 2.196-2.016.912-.576 2.088-.864 3.528-.864.888 0 1.68.12 2.376.36s1.284.636 1.764 1.188c.48.552.84 1.308 1.08 2.268.24.936.36 2.1.36 3.492V85h-4.68Zm6.729-18h2.484v-3.384l4.68-1.332V67h4.392v3.96h-4.392v6.912c0 1.248.12 2.148.36 2.7.264.528.744.792 1.44.792.48 0 .888-.048 1.224-.144.36-.096.756-.24 1.188-.432l.828 3.6c-.648.312-1.404.576-2.268.792-.864.216-1.74.324-2.628.324-1.656 0-2.88-.42-3.672-1.26-.768-.864-1.152-2.268-1.152-4.212V70.96h-2.484V67Zm14.315 1.044c.96-.432 2.1-.768 3.42-1.008a21.07 21.07 0 0 1 4.14-.396c1.248 0 2.292.156 3.132.468.84.288 1.5.708 1.98 1.26a4.503 4.503 0 0 1 1.044 1.98c.216.768.324 1.632.324 2.592a48.16 48.16 0 0 1-.108 3.204c-.072 1.056-.12 2.1-.144 3.132 0 1.032.036 2.04.108 3.024.072.96.252 1.872.54 2.736h-3.816l-.756-2.484h-.18c-.48.744-1.152 1.392-2.016 1.944-.84.528-1.932.792-3.276.792-.84 0-1.596-.12-2.268-.36a5.279 5.279 0 0 1-1.728-1.08 5.17 5.17 0 0 1-1.116-1.656c-.264-.648-.396-1.368-.396-2.16 0-1.104.24-2.028.72-2.772.504-.768 1.212-1.38 2.124-1.836.936-.48 2.04-.804 3.312-.972 1.296-.192 2.736-.252 4.32-.18.168-1.344.072-2.304-.288-2.88-.36-.6-1.164-.9-2.412-.9-.936 0-1.932.096-2.988.288-1.032.192-1.884.444-2.556.756l-1.116-3.492Zm5.94 13.392c.936 0 1.68-.204 2.232-.612.552-.432.96-.888 1.224-1.368v-2.34a13.07 13.07 0 0 0-2.16-.036 7.772 7.772 0 0 0-1.8.324c-.528.168-.948.408-1.26.72-.312.312-.468.708-.468 1.188 0 .672.192 1.2.576 1.584.408.36.96.54 1.656.54Zm21.963-10.044c-.744-.264-1.416-.396-2.016-.396-.84 0-1.548.228-2.124.684a3.155 3.155 0 0 0-1.116 1.692V85h-4.68V67h3.636l.54 2.376h.144c.408-.888.96-1.572 1.656-2.052s1.512-.72 2.448-.72c.624 0 1.332.132 2.124.396l-.612 4.392ZM186.145 67h4.68v18h-4.68V67Zm-.684-5.076c0-.696.252-1.284.756-1.764.528-.504 1.248-.756 2.16-.756.912 0 1.644.252 2.196.756.576.48.864 1.068.864 1.764s-.288 1.284-.864 1.764c-.552.456-1.284.684-2.196.684-.912 0-1.632-.228-2.16-.684a2.342 2.342 0 0 1-.756-1.764Zm9.848 6.12c.96-.432 2.1-.768 3.42-1.008a21.07 21.07 0 0 1 4.14-.396c1.248 0 2.292.156 3.132.468.84.288 1.5.708 1.98 1.26a4.503 4.503 0 0 1 1.044 1.98c.216.768.324 1.632.324 2.592a48.16 48.16 0 0 1-.108 3.204c-.072 1.056-.12 2.1-.144 3.132 0 1.032.036 2.04.108 3.024.072.96.252 1.872.54 2.736h-3.816l-.756-2.484h-.18c-.48.744-1.152 1.392-2.016 1.944-.84.528-1.932.792-3.276.792-.84 0-1.596-.12-2.268-.36a5.279 5.279 0 0 1-1.728-1.08 5.17 5.17 0 0 1-1.116-1.656c-.264-.648-.396-1.368-.396-2.16 0-1.104.24-2.028.72-2.772.504-.768 1.212-1.38 2.124-1.836.936-.48 2.04-.804 3.312-.972 1.296-.192 2.736-.252 4.32-.18.168-1.344.072-2.304-.288-2.88-.36-.6-1.164-.9-2.412-.9-.936 0-1.932.096-2.988.288-1.032.192-1.884.444-2.556.756l-1.116-3.492Zm5.94 13.392c.936 0 1.68-.204 2.232-.612.552-.432.96-.888 1.224-1.368v-2.34a13.07 13.07 0 0 0-2.16-.036 7.772 7.772 0 0 0-1.8.324c-.528.168-.948.408-1.26.72-.312.312-.468.708-.468 1.188 0 .672.192 1.2.576 1.584.408.36.96.54 1.656.54Z" fill="#F87E25"/><defs><linearGradient id="l" x1="110.99" y1="295.83" x2="142.19" y2="373.83" gradientUnits="userSpaceOnUse"><stop stop-color="#FFEA59"/><stop offset="1" stop-color="#EA9F2F"/></linearGradient><linearGradient id="b" x1="131.5" y1="257.55" x2="131.5" y2="58.62" gradientUnits="userSpaceOnUse"><stop stop-color="#FFDD8A"/><stop offset="1" stop-color="#FFF9CA"/></linearGradient><linearGradient id="f" x1="172.153" y1="198.205" x2="167.633" y2="170.345" gradientUnits="userSpaceOnUse"><stop stop-color="#9A3700"/><stop offset=".57" stop-color="#CE5700"/><stop offset="1" stop-color="#CE8600"/></linearGradient><linearGradient id="g" x1="96.687" y1="199.601" x2="96.687" y2="172.941" gradientUnits="userSpaceOnUse"><stop stop-color="#9A3700"/><stop offset=".57" stop-color="#CE5700"/><stop offset="1" stop-color="#CE8600"/></linearGradient><linearGradient id="i" x1="74.51" y1="242.93" x2="168.42" y2="427.44" gradientUnits="userSpaceOnUse"><stop stop-color="#FFEA59"/><stop offset="1" stop-color="#EA9F2F"/></linearGradient><linearGradient id="j" x1="67.5" y1="257.01" x2="170.63" y2="414.74" gradientUnits="userSpaceOnUse"><stop stop-color="#F6F6F6"/><stop offset="1" stop-color="#DBDBDB"/></linearGradient><linearGradient id="k" x1="81.1" y1="307.78" x2="112.3" y2="385.78" gradientUnits="userSpaceOnUse"><stop stop-color="#FFEA59"/><stop offset="1" stop-color="#EA9F2F"/></linearGradient><linearGradient id="e" x1="130.49" y1="472.55" x2="130.49" y2="221.79" gradientUnits="userSpaceOnUse"><stop stop-color="#FFBD63"/><stop offset="1" stop-color="#FFDBB3"/></linearGradient><linearGradient id="m" x1="141.17" y1="283.75" x2="172.37" y2="361.75" gradientUnits="userSpaceOnUse"><stop stop-color="#FFEA59"/><stop offset="1" stop-color="#EA9F2F"/></linearGradient><linearGradient id="n" x1="58.76" y1="316.71" x2="89.96" y2="394.71" gradientUnits="userSpaceOnUse"><stop stop-color="#FFEA59"/><stop offset="1" stop-color="#EA9F2F"/></linearGradient><linearGradient id="o" x1="77.84" y1="309.08" x2="109.04" y2="387.08" gradientUnits="userSpaceOnUse"><stop stop-color="#FFEA59"/><stop offset=".4" stop-color="#F7CC48"/><stop offset="1" stop-color="#EA9F2F"/></linearGradient><linearGradient id="p" x1="97.57" y1="301.19" x2="128.77" y2="379.19" gradientUnits="userSpaceOnUse"><stop stop-color="#FFEA59"/><stop offset="1" stop-color="#EA9F2F"/></linearGradient><linearGradient id="q" x1="118.05" y1="293" x2="149.25" y2="371" gradientUnits="userSpaceOnUse"><stop stop-color="#FFEA59"/><stop offset="1" stop-color="#EA9F2F"/></linearGradient><linearGradient id="r" x1="137.92" y1="285.05" x2="169.12" y2="363.05" gradientUnits="userSpaceOnUse"><stop stop-color="#FFEA59"/><stop offset="1" stop-color="#EA9F2F"/></linearGradient><clipPath id="a"><rect width="263" height="420" rx="60" fill="#fff"/></clipPath></defs></svg>