<svg width="264" height="476" fill="none" xmlns="http://www.w3.org/2000/svg"><g clip-path="url(#a)"><g clip-path="url(#b)"><path d="M203 0H60C26.863 0 0 26.863 0 60v300c0 33.137 26.863 60 60 60h143c33.137 0 60-26.863 60-60V60c0-33.137-26.863-60-60-60Z" fill="url(#c)"/></g><circle cx="131.5" cy="401.5" r="168.5" fill="#FFF2F1"/><circle cx="131.5" cy="417.5" r="168.5" fill="#FFE7E5"/><circle cx="131.5" cy="437.5" r="168.5" fill="#FFDEDB"/></g><mask id="d" style="mask-type:luminance" maskUnits="userSpaceOnUse" x="0" y="155" width="263" height="321"><path d="M263 155H0v320.79h263V155Z" fill="#fff"/></mask><g mask="url(#d)"><path d="M102.77 454.05s14.34-15.96 27.78-15.96c13.44 0 27.14 15.96 27.14 15.96s-14.54-13.54-26.73-13.54c-12.19 0-23.84 9.8-28.18 13.54h-.01Z" fill="#B17F4A"/><path d="M189.93 176.42s-6.97-.63-10.46 2.06c0 0-13.07-13.82-47.98-13.82-30.42 0-47.98 13.82-47.98 13.82-3.49-2.69-10.46-2.06-10.46-2.06-35.17 5.23-73.83 49.75-73.83 49.75v188.46c10.99 26.83 66.98 26.83 66.98 26.83 40.99-.85 35.71-42.89 35.71-42.89-1.69-31.9-37.82-26.39-37.82-26.39-10.78 2.35-19.44 0-19.44 0C6.83 366.08 7.04 343 7.04 343c2.96-14.79 15.85-20.71 15.85-20.71 48.44 49.5 99.53 49.7 108.61 49.7 7.4 0 60.17-.2 108.61-49.7 0 0 12.89 5.92 15.85 20.71 0 0 .21 23.08-37.61 29.18 0 0-8.66 2.35-19.44 0 0 0-36.13-5.52-37.82 26.39 0 0-5.28 42.04 35.71 42.89 0 0 55.99 0 66.98-26.83V226.17s-38.66-44.53-73.84-49.76l-.01.01Z" fill="url(#e)"/><mask id="f" style="mask-type:luminance" maskUnits="userSpaceOnUse" x="158" y="263" width="43" height="46"><path d="M161.76 303.06s21.66 16.71 38.37-8.8c0 0 6.42-29-19.18-31.21 0 0-32.22-.94-19.18 40.01h-.01Z" fill="#fff"/></mask><g mask="url(#f)"><path d="M184.323 311.664c9.904-1.615 16.244-13.281 14.161-26.058s-11.801-21.826-21.705-20.211c-9.904 1.615-16.245 13.282-14.161 26.058 2.083 12.777 11.8 21.826 21.705 20.211Z" fill="url(#g)"/></g><mask id="h" style="mask-type:luminance" maskUnits="userSpaceOnUse" x="62" y="263" width="44" height="46"><path d="M101.93 303.06s-21.66 16.71-38.37-8.8c0 0-6.42-29 19.18-31.21 0 0 32.22-.94 19.18 40.01h.01Z" fill="#fff"/></mask><g mask="url(#h)"><path d="M101.055 291.444c2.083-12.777-4.257-24.444-14.161-26.058-9.904-1.615-19.622 7.433-21.705 20.21-2.083 12.777 4.257 24.444 14.161 26.059 9.904 1.614 19.622-7.434 21.705-20.211Z" fill="url(#i)"/></g><path d="M93.53 354.78s3.55-11.47 17.26-14.3c0 0 27.41 8.53 46.87-4.86 0 0 19.7.31 23.86 16.34v1.35s-31.05 20.18-66.92 9.66c0 0-18.99-4.41-21.07-8.2v.01ZM145.63 307.62s-6.74-2.33-13.88-2.52v-.02h-.88v.02c-7.15.19-13.88 2.52-13.88 2.52-3.29 1.27-2.2 4.54-2.2 4.54.68 1.59 2.38 3.57 3.27 4.81 1.69-1.48 2.91-1.16 2.91-1.16 1.74.61 1.39 1.97 1.19 4.89 3.54 3.43 7.11 4.32 8.72 4.55v.08s.16 0 .44-.03c.28.03.44.03.44.03v-.08c1.61-.23 5.17-1.12 8.72-4.55-.2-2.91-.55-4.28 1.19-4.89 0 0 1.21-.32 2.91 1.16.9-1.24 2.59-3.21 3.27-4.81 0 0 1.09-3.27-2.2-4.54h-.02Z" fill="#F98CC0"/><path d="M126.17 443.25s3.97.81 3.3-20.07c0 0 0-26.6-3.84-30.37 0 0-.61-.81-1.82.67 0 0-2.42 3.17-7.07 1.82 0 0-3.17-.07-3.3 1.75 0 0-3.97-12.39 7-12.05 0 0 6.06-.47 8.01 8.75 0 0 1.9-7.47 1.09-10.03 0 0-1.22-4.51-.21-7.41 0 0-.2 4.58 1.21 6.73 0 0 2.29 5.52 0 10.98 0 0-1.82 2.69-.2 9.9 0 0 1.89 7.54.74 13.4 0 0 1.75-4.31 3.43-7.21 0 0 5.93-13.47 17.71-7.95 0 0 6.33 3.23 5.45 11.72 0 0-.47-2.36-2.96-1.08 0 0-5.12 4.18-9.63-.81 0 0-5.52-5.59-10.77 2.42 0 0-2.29 2.69-2.22 16.3 0 0-.07 10.37 3.91 13.6 0 0-5.77 6.97-9.83-1.08v.02Z" fill="url(#j)"/><path d="M113.45 397.05s1.21-7.34 8.38-7.34c0 0-6.9-2.96-8.38 7.34ZM128.43 394.12s-.37-3.06-4.11-4.01c0 0 4.11-.2 4.11 4.01ZM157.69 413.88s-.32-6.6-8.8-7.56c0 0 6.55 1.33 8.8 7.56ZM133.229 414.71s2.21-8.2 10-7.93c0 0-6.36.61-10 7.93Z" fill="#8EAD0B" style="mix-blend-mode:multiply"/><path d="M-2.37 243.17s30.81-16.64 32.02 2.32c0 0-.12 3.04-1.01 7.15 0 0-4.62 13.34-4.25 22.49l-.76.58s-20.48-4.64-27.05 1.11l1.06-33.66-.01.01ZM264.83 243.17s-30.81-16.64-32.02 2.32c0 0 .12 3.04 1.01 7.15 0 0 4.62 13.34 4.25 22.49l.76.58s20.48-4.64 27.05 1.11l-1.06-33.66.01.01Z" fill="#FFC0DB"/><path d="M83.61 177.62s-16.15 9.3-24.96 35.69c0 0-3.36 6.61-7.77-.18 0 0-10.36-20.47 3.22-32.4 0 0 21.71-9.09 29.51-3.11ZM179.32 177.21s14.2 9.71 23.01 36.1c0 0 3.36 6.61 7.77-.18 0 0 10.36-20.47-3.22-32.4 0 0-19.75-9.49-27.56-3.52Z" fill="#9E9E9E" style="mix-blend-mode:multiply" opacity=".1"/><path d="M26.17 236.42s13.15 2.82 9.97 20.21c0 0-14.06 71.48 53.05 102.56 0 0 36.72 20.27 88.39 5.73 0 0-53.81 22.36-111.83-8.69 0 0-29.7-17.84-44.1-33.26 0 0-18.78 15.57-11.82 27.86 0 0-18.74-20.52-6.01-54.54 0 0 4.24-10.59-4.61-13.5v-7.49s19.82-4.48 26.29 2.38c0 0-1.88-10.58 3.35-28.52 0 0 2.51-9.7-2.69-12.73l.01-.01Z" fill="#9E9E9E" style="mix-blend-mode:multiply" opacity=".41"/><path d="M-2.37 256.62s28.59-15.66 28.82 2.66c0 0 6.44-15.02.57-21.45 0 0-11.47-6.46-28.73 5.35l-.66 13.45v-.01ZM264.8 256.62s-28.59-15.66-28.82 2.66c0 0-6.44-15.02-.57-21.45 0 0 11.47-6.46 28.73 5.35l.66 13.45v-.01Z" fill="#FFC0DB" style="mix-blend-mode:multiply"/><path d="M-1.61 394.12s18.42 35.18 68.59 33.71c0 0 19.32-1.84 21.12-9.3 0 0 3.53-7.46-5.91-11.94 0 0 22.05-2.56 11.34-28.63 0 0 18.82 14.46 5.06 47.15 0 0-6.78 20.77-41.29 17.09 0 0-48.83-1.1-58.92-26.98v-21.11l.01.01ZM264.73 394.12s-18.42 35.18-68.59 33.71c0 0-19.32-1.84-21.12-9.3 0 0-3.53-7.46 5.91-11.94 0 0-22.05-2.56-11.34-28.63 0 0-18.82 14.46-5.06 47.15 0 0 6.78 20.77 41.29 17.09 0 0 48.83-1.1 58.92-26.98v-21.11l-.01.01ZM263.35 282.78v-7.49s-19.82-4.48-26.29 2.38c0 0 1.88-10.58-3.35-28.52 0 0-2.51-9.7 2.69-12.73 0 0-11.51 2.47-10.39 17.03.04.22 14.06 76.44-25.91 100.74 8.12-5.1 29.32-18.92 40.81-31.22 0 0 18.78 15.57 11.82 27.86 0 0 18.74-20.52 6.01-54.54 0 0-4.24-10.59 4.61-13.5v-.01ZM99.52 368.19c-4.69-.8-9.54-1.88-14.53-3.28 0 0 5.51 2.29 14.89 4.38-.12-.37-.24-.74-.36-1.1Z" fill="#9E9E9E" style="mix-blend-mode:multiply" opacity=".41"/><path d="M122.14 320.69s7.31 6.06 15.63-1.96c0 0 9.31-7.04 5.97-11.69 0 0 5.52 1.06 4.09 5.12 0 0-1.57 3.23-3.27 4.81 0 0-2.75-2.82-4.15.24 0 0-.25 2.08.06 3.49 0 0-6.04 5.83-11 4.26 0 0-3.67-.77-7.32-4.26l-.01-.01ZM105.03 359.55s2.63-17.41 19.44-16c0 0 12.12 1.59 21.16-1.85 0 0 18.26-2.91 26.1 15.55 0 0 3.49-.51 8.5-4 0 0-1.47-13.65-21.58-17.2 0 0-18.8 13.07-48.35 5.03 0 0-13.03 4.15-14.26 14.13 0 0-1.01 1.01 8.99 4.35v-.01Z" fill="#FFC0DB" style="mix-blend-mode:multiply"/><path d="M139.18 372.7s-49.01 5.12-97.11-21.88c0 0-12.48 9.07 0 18.48l.73 1.52s-33.87-3.38-35.2-26.93c0 0-.86-9.66 14.05-20.92 0 0 55.48 56.4 117.52 49.74l.01-.01Z" fill="#9E9E9E" style="mix-blend-mode:multiply" opacity=".62"/><path d="M123.44 372.7s49.01 5.12 97.11-21.88c0 0 12.48 9.07 0 18.48l-.73 1.52s33.87-3.38 35.2-26.93c0 0 .86-9.66-14.05-20.92 0 0-55.48 56.4-117.52 49.74l-.01-.01Z" fill="#9E9E9E" style="mix-blend-mode:multiply" opacity=".62"/><path style="mix-blend-mode:multiply" d="M113.53 396.67s3.78-7.53 11.19-5.12c0 0 2.24.49 2.7 5.5 0 0-.98-4.7-2.38-4.49 0 0-.83.14-1.46 1.18 0 0-2.4 2.92-6.85 1.55 0 0-2.28-.09-3.2 1.38Z" fill="url(#k)"/><path style="mix-blend-mode:multiply" d="M154.03 403.49c1.48 1.14.56 2.29.56 2.29-.46.23-.64 1-.64 1 .01.32.06.6.12.87-3.22-2.38-9.9-5.11-18.81 3.1 0 0 9.59-7.81 18.35-1.14-1.4.5-2.04 2.51-2.04 2.51-1.19 2.25-8.03-1.37-8.03-1.37.83.65 1.75 1.45 1.75 1.45 3.49 4.08 8.32 1.32 8.32 1.32 3.44-2.59 4.09.36 4.09.36.52-7.42-3.66-10.39-3.66-10.39h-.01Z" fill="url(#l)"/><path style="mix-blend-mode:multiply" d="M127.05 444.72s5.03 1.99 5.5-2.07c0 0 .43.17-.43-10.9 0 0-.04 9.22 3.88 12.57 0 0-1.82 2.63-5.37 2.79 0 0-1.76.18-3.59-2.39h.01Z" fill="url(#m)"/><path d="M182.41 305.12s19.67-7.36 14.53-28.29c0 0-.9-11.97-16.54-17.55 0 0 18.75-.63 26.33 15.86 0 0 4.11 20.71-24.32 29.98ZM65.88 296.42s17.35 9.83 31.45.41c0 0 11.01-5.87 6.12-30.17 0 0 17.01 23.55-6 39.43 0 0-19.33 8.09-31.57-9.67Z" fill="#9E9E9E" style="mix-blend-mode:multiply" opacity=".23"/><path opacity=".72" d="M171.54 288.28c6.65 0 12.04-5.39 12.04-12.04 0-6.65-5.39-12.04-12.04-12.04-6.649 0-12.04 5.39-12.04 12.04 0 6.65 5.391 12.04 12.04 12.04ZM77.8 288.28c6.65 0 12.04-5.39 12.04-12.04 0-6.65-5.39-12.04-12.04-12.04-6.65 0-12.04 5.39-12.04 12.04 0 6.65 5.39 12.04 12.04 12.04Z" fill="#fff"/><path d="M133.03 306.1s-18.54-.28-14.04 6.15c0 0 2.39 2.94 3.95 0 0 0 .46-1.32 1.19-2.63 0 0 0-2.69 8.9-3.52Z" fill="#FFC0DB"/><path d="M120.87 359.3c4.99 2.05 16.1 4.93 30.85-1.31.59-.25.31-1.15-.32-1.01-6.08 1.37-16.72 2.89-30.27 1.3-.62-.07-.84.78-.27 1.01l.01.01Z" fill="#F9D4E5"/><path opacity=".52" d="M139.96 404.54s5.68-6.24 13.33-.69c0 0-6.81-3.21-13.33.69ZM114.1 389.31s2.62-6.14 9.38-2.65c0 0-5.09-1.49-9.38 2.65Z" fill="#FFFFC1"/><path d="M50.88 269.27c2.85 22.66 18.7 34.23 18.7 34.23 23.45 15.21 34.97-2.75 34.97-2.75 8.87-11.25 4.81-27.2 4.81-27.2-4.12-16.16-23.29-17.59-23.29-17.59-16.16-.48-25.83 11.57-25.83 11.57-4.91 4.6-9.35 1.74-9.35 1.74h-.01Zm14.05-2.96s19.23-14.16 34.86-2.32c0 0 15.77 11.44 2.67 34.68 0 0-5.31 11.91-22.32 6.31 0 0-9.19-2.54-14.26-8.56 0 0-6.66-6.76-7.08-17.64 0 0-1.69-5.49 6.13-12.47ZM204.19 278.78c-.42 10.88-7.08 17.64-7.08 17.64-5.07 6.02-14.26 8.56-14.26 8.56-17.01 5.6-22.32-6.31-22.32-6.31-13.1-23.24 2.67-34.68 2.67-34.68 15.63-11.83 34.86 2.32 34.86 2.32 7.82 6.97 6.13 12.47 6.13 12.47Zm-1.43-11.25s-9.67-12.04-25.83-11.57c0 0-19.17 1.43-23.29 17.59 0 0-4.07 15.95 4.81 27.2 0 0 11.51 17.96 34.97 2.75 0 0 15.85-11.57 18.7-34.23 0 0-4.44 2.85-9.35-1.74h-.01Z" fill="#575756"/><path d="M157.69 454.05s3.07 9.45-28.2 6.95c0 0 19.09-.73 15.79-9.73 0 0-2.06-8.79-11.29-10.74 0 0 10.17-1.31 23.7 13.53v-.01Z" fill="#B17F4A" style="mix-blend-mode:multiply" opacity=".48"/><path d="M93.53 354.78s-1.13-9.66 17.26-14.3c0 0-9.7-2.34-10.43-3.9 0 0-11.93-4.5-13.95 6.42 0 0 .03 9.33 7.13 11.78h-.01ZM158.65 336.04s14.03-.21 21.19 10.53l2.57 6.11s9.68-4.09 11.12-10.33c0 0 4.84-9.32-5.07-16.64 0 0-4.13-1.54-9.55-.39 0 0 3.18 12.89-4.56 14.55 0 0-1.96-.08-3.52-2.93 0 0-2.8-4.41-6.96-5.51l-5.24 4.61h.02Z" fill="#1D1D1B"/><path d="M182.56 325.32c3.67 0 6.96 1.36 9.06 5.12 0 0 5.39 9.82-1.9 16.48 0 0-22.09 17.99-54.04 17.99-11.14 0-23.49-2.19-36.51-8.09 0 0-15.29-6.1-11.01-16.56 0 0 2.44-3.91 7.61-3.91 2.23 0 4.96.72 8.23 2.8.24.15 11.5 4.59 25.76 4.59 9.76 0 20.92-2.08 30.91-9.03 0 0 12.25-9.4 21.89-9.4m0-1.78c-9.97 0-22.05 9.06-22.94 9.74-8.31 5.77-18.36 8.69-29.87 8.69-13.52 0-24.03-4.03-24.92-4.39-3.17-1.99-6.23-3.01-9.07-3.01-6.09 0-9 4.55-9.12 4.75l-.08.13-.06.14c-1.18 2.89-1.19 5.75-.02 8.5 2.76 6.49 11.23 10.06 11.98 10.37 12.07 5.46 24.59 8.23 37.21 8.23 32.22 0 54.25-17.64 55.17-18.39l.04-.03.04-.03c6.58-6.01 4.36-14.83 2.26-18.65-2.21-3.96-5.88-6.04-10.62-6.04v-.01Z" fill="#3C3C3B"/><path d="M116.09 342.46s18.54.97 13.26-17.94h4.12s-5.78 20.2 12.17 17.18c0 0-11.32 4.34-29.55.76Z" fill="#3C3C3B"/><path d="M163.89 331.39s6.13 2.96 7.71 6.76c0 0 1.06 2.64 4.01 1.37 0 0 6.23-2.63 3.06-14.2 0 0-9.19.36-14.79 6.07h.01Z" stroke="#3C3C3B" stroke-width=".89" stroke-miterlimit="10"/><path d="M185.17 350.72c-.37.42-6.45-14.79-27.13-15.11 0 0 20.95 3.7 22.22 18.59l4.91-3.49v.01ZM95.96 356.22s.32-10.25 16.16-15.74c0 0-15.85-.01-20.49 12.68l4.33 3.06Z" fill="#3C3C3B"/><path d="M238.85 323.58c.39-.4 8.82-8.46 10.66-17.1 0 0-12.52 3.68-11.73-15.97 0 0 .32-26.94-4.44-41.36 0 0 5.7 10.13 7.13 31.06 0 0 .48 28.52 14.9 19.33 0 0 2.33 11.12-15.73 26.17l-.79-2.13Z" fill="#706F6F"/><path d="M167.27 244.71s-7.13 3.33-8.56-.95c0 0-1.74-4.44 4.91-5.55 0 0 25.83-3.49 38.66 10.3 0 0-17.11-10.62-35.02-3.8h.01Z" fill="#EDEDED"/><path d="M233.35 245.03s-1.11-14.1 15.69-9.51l16.32 5.86v3.64s-29.63-17.27-32.01 0v.01ZM239.37 277.67s-.65-5.23 9.98-5.07h17.6l-.63 5.07s-26.46-5.7-26.94 0h-.01ZM163.52 385.8s-5.04 25.67 24.68 18.06c0 0-22.25 11.88-28.17-7.79 0 0-2.85-5.77 3.49-10.27ZM188.2 429c.74-.36-19.03 5.23-26.64-11.73 0 0 .95 5.39 3.96 9.67 0 0 5.86 10.3 22.68 2.06ZM24.14 323.58c-.39-.4-8.82-8.35-10.66-17.1 0 0 12.52 3.68 11.73-15.97 0 0-.32-26.94 4.44-41.36 0 0-5.7 10.13-7.13 31.06 0 0-.48 28.52-14.9 19.33 0 0-.88 12.48 15.76 26.11l.77-2.07h-.01Z" fill="#706F6F"/><path d="M95.72 244.71s7.13 3.33 8.56-.95c0 0 1.74-4.44-4.91-5.55 0 0-25.83-3.49-38.66 10.3 0 0 17.11-10.62 35.02-3.8h-.01Z" fill="#EDEDED"/><path d="M29.64 245.03s1.11-14.1-15.69-9.51l-16.32 5.87v3.64s29.63-17.27 32.01 0ZM23.62 277.67s.65-5.23-9.98-5.07H-3.95l.63 5.07s26.46-5.7 26.94 0ZM85.79 176.9c-.49.29-10.63 7.08-19.98 19.6 0 0 4.82-13.84 16.37-20.18l3.61.58ZM177.58 176.85c.47.33 10.05 7.88 18.42 21.07 0 0-3.58-14.13-14.6-21.33l-3.82.26ZM99.47 385.8s5.04 25.67-24.68 18.06c0 0 22.25 11.88 28.17-7.79 0 0 2.85-5.77-3.49-10.27ZM74.79 429c-.74-.36 19.03 5.23 26.64-11.73 0 0-.95 5.39-3.96 9.67 0 0-5.86 10.3-22.68 2.06Z" fill="#706F6F"/><path d="M131.5 164.66c34.9 0 47.98 13.82 47.98 13.82 2.37-1.83 6.35-2.12 8.66-2.12 1.08 0 1.8.06 1.8.06 35.18 5.23 73.84 49.76 73.84 49.76v188.46c-10.99 26.83-66.98 26.83-66.98 26.83-40.99-.85-35.71-42.89-35.71-42.89 1.26-23.71 21.52-26.75 31.86-26.75 3.57 0 5.96.36 5.96.36 3.59.78 6.95 1.04 9.83 1.04 5.76 0 9.61-1.04 9.61-1.04 37.82-6.1 37.61-29.18 37.61-29.18-2.96-14.79-15.85-20.71-15.85-20.71C191.67 371.8 138.9 372 131.5 372c-9.08 0-60.17-.2-108.61-49.7 0 0-12.89 5.92-15.85 20.71 0 0-.21 23.08 37.61 29.18 0 0 3.85 1.04 9.61 1.04 2.88 0 6.24-.26 9.83-1.04 0 0 2.39-.36 5.96-.36 10.33 0 30.6 3.05 31.86 26.75 0 0 5.28 42.04-35.71 42.89 0 0-55.99 0-66.98-26.83V226.17s38.66-44.52 73.84-49.75c0 0 .71-.06 1.8-.06 2.31 0 6.29.29 8.66 2.12 0 0 17.55-13.82 47.98-13.82Zm0-2.06c-26.68 0-43.56 10.28-48.06 13.4-2.64-1.38-6.02-1.7-8.58-1.7-1.17 0-1.95.07-1.99.07h-.06l-.06.01c-14.97 2.23-32.17 11.41-51.13 27.3C7.6 213.43-2.24 224.71-2.34 224.82l-.5.58v189.64l.15.38c11.38 27.79 66.54 28.11 68.88 28.11 12.51-.26 22.14-4.22 28.68-11.79 11.21-12.97 9.26-31.78 9.08-33.34-1.41-25.84-24.18-28.63-33.91-28.63-3.69 0-6.17.37-6.27.39h-.06l-.06.02c-3.03.66-6.19 1-9.39 1-5.38 0-9.04-.96-9.07-.97l-.1-.03-.11-.02c-14.76-2.38-25.64-7.85-31.47-15.81-3.91-5.34-4.35-10.19-4.4-11.15 2.25-10.76 10.29-16.48 13.4-18.33 20.4 20.52 43.55 34.93 68.83 42.83 13.55 4.23 27.06 6.38 40.16 6.38 12.36 0 26.03-2.21 39.53-6.38 25.76-7.97 49.12-22.37 69.47-42.83 3.11 1.85 11.16 7.57 13.4 18.34-.05.94-.48 5.8-4.4 11.15-5.83 7.96-16.71 13.43-31.47 15.81l-.11.02-.1.03s-3.69.97-9.07.97c-3.2 0-6.36-.34-9.39-1h-.06l-.06-.02c-.1-.02-2.58-.39-6.27-.39-9.73 0-32.5 2.79-33.91 28.63-.18 1.56-2.13 20.37 9.08 33.34 6.54 7.57 16.17 11.54 28.64 11.79 2.45 0 57.55-.34 68.92-28.11l.15-.38V225.4l-.5-.58c-.1-.11-9.94-11.39-23.96-23.15-18.96-15.89-36.16-25.07-51.13-27.3h-.06l-.06-.01c-.03 0-.82-.07-1.99-.07-2.5 0-5.8.31-8.42 1.62-4.08-3.45-18.38-13.31-48.22-13.31h-.01Z" fill="#706F6F"/></g><path d="M99.945 21.1c.238-.034.505-.062.799-.085a24.393 24.393 0 0 1 1.853-.068c.306-.011.578-.017.816-.017 1.054 0 1.955.147 2.703.442.748.295 1.355.708 1.819 1.241a4.968 4.968 0 0 1 1.02 1.904c.216.737.323 1.547.323 2.431 0 .805-.102 1.581-.306 2.329a5.27 5.27 0 0 1-1.02 1.989c-.476.578-1.105 1.043-1.887 1.394-.77.351-1.728.527-2.873.527-.181 0-.425-.006-.731-.017a30.818 30.818 0 0 1-.935-.051 22.354 22.354 0 0 1-.918-.051 6.348 6.348 0 0 1-.663-.051V21.1Zm3.655 1.904c-.249 0-.504.006-.765.017a4.564 4.564 0 0 0-.561.051v7.973c.046.011.119.023.221.034.114 0 .233.006.357.017.125 0 .244.006.357.017h.255c.658 0 1.202-.113 1.632-.34.442-.238.788-.55 1.037-.935.261-.385.442-.827.544-1.326.102-.51.153-1.031.153-1.564 0-.465-.045-.93-.136-1.394a3.405 3.405 0 0 0-.51-1.275 2.747 2.747 0 0 0-.986-.918c-.419-.238-.952-.357-1.598-.357Zm6.893 5.746c0-1.44.351-2.544 1.054-3.315.703-.782 1.689-1.173 2.958-1.173.68 0 1.269.108 1.768.323.499.215.912.521 1.241.918.329.385.572.856.731 1.411.17.555.255 1.167.255 1.836 0 1.44-.351 2.55-1.054 3.332-.691.77-1.672 1.156-2.941 1.156-.68 0-1.269-.108-1.768-.323a3.5 3.5 0 0 1-1.258-.901 4.076 4.076 0 0 1-.748-1.428 6.656 6.656 0 0 1-.238-1.836Zm2.278 0c0 .374.034.72.102 1.037.068.317.17.595.306.833.136.238.312.425.527.561.227.125.493.187.799.187.578 0 1.009-.21 1.292-.629.283-.42.425-1.082.425-1.989 0-.782-.13-1.411-.391-1.887-.261-.487-.703-.731-1.326-.731-.544 0-.969.204-1.275.612-.306.408-.459 1.077-.459 2.006ZM125.234 33v-4.828c0-.691-.102-1.19-.306-1.496-.193-.306-.527-.459-1.003-.459-.419 0-.776.125-1.071.374a2.007 2.007 0 0 0-.612.901V33h-2.21v-8.5h1.751l.255 1.122h.068c.261-.363.606-.68 1.037-.952.431-.272.986-.408 1.666-.408.419 0 .793.057 1.122.17.329.113.606.3.833.561.227.26.397.618.51 1.071.113.442.17.992.17 1.649V33h-2.21Zm4.011-8.007a6.98 6.98 0 0 1 1.615-.476 9.945 9.945 0 0 1 1.955-.187c.589 0 1.082.074 1.479.221.396.136.708.334.935.595.238.26.402.572.493.935.102.363.153.77.153 1.224 0 .499-.017 1.003-.051 1.513-.034.499-.057.992-.068 1.479 0 .487.017.963.051 1.428.034.453.119.884.255 1.292h-1.802l-.357-1.173h-.085a3.086 3.086 0 0 1-.952.918c-.397.25-.913.374-1.547.374-.397 0-.754-.057-1.071-.17a2.48 2.48 0 0 1-.816-.51 2.425 2.425 0 0 1-.527-.782 2.674 2.674 0 0 1-.187-1.02c0-.521.113-.958.34-1.309a2.507 2.507 0 0 1 1.003-.867c.442-.227.963-.38 1.564-.459.612-.09 1.292-.119 2.04-.085.079-.635.034-1.088-.136-1.36-.17-.283-.55-.425-1.139-.425-.442 0-.913.045-1.411.136-.488.09-.89.21-1.207.357l-.527-1.649Zm2.805 6.324c.442 0 .793-.096 1.054-.289.26-.204.453-.42.578-.646v-1.105a6.17 6.17 0 0 0-1.02-.017 3.664 3.664 0 0 0-.85.153c-.25.08-.448.193-.595.34a.757.757 0 0 0-.221.561c0 .317.09.567.272.748.192.17.453.255.782.255Zm11.697 1.156c-.34.25-.753.436-1.241.561a5.357 5.357 0 0 1-1.479.204c-.68 0-1.258-.108-1.734-.323a2.996 2.996 0 0 1-1.139-.901 3.945 3.945 0 0 1-.646-1.428 8.43 8.43 0 0 1-.187-1.836c0-1.44.323-2.544.969-3.315.646-.782 1.587-1.173 2.822-1.173.624 0 1.122.051 1.496.153.386.102.731.232 1.037.391l-.527 1.802a4.337 4.337 0 0 0-.782-.289 3.306 3.306 0 0 0-.867-.102c-.612 0-1.076.204-1.394.612-.317.397-.476 1.037-.476 1.921 0 .363.04.697.119 1.003.08.306.199.572.357.799.159.227.363.408.612.544.261.125.561.187.901.187.374 0 .692-.045.952-.136a3.64 3.64 0 0 0 .697-.357l.51 1.683Zm1.524-7.973h2.21V33h-2.21v-8.5Zm-.323-2.397c0-.329.119-.606.357-.833.249-.238.589-.357 1.02-.357.43 0 .776.119 1.037.357.272.227.408.504.408.833 0 .329-.136.606-.408.833-.261.215-.607.323-1.037.323-.431 0-.771-.108-1.02-.323a1.106 1.106 0 0 1-.357-.833Zm4.293 6.647c0-1.44.352-2.544 1.054-3.315.703-.782 1.689-1.173 2.958-1.173.68 0 1.27.108 1.768.323.499.215.913.521 1.241.918.329.385.573.856.731 1.411.17.555.255 1.167.255 1.836 0 1.44-.351 2.55-1.054 3.332-.691.77-1.671 1.156-2.941 1.156-.68 0-1.269-.108-1.768-.323a3.51 3.51 0 0 1-1.258-.901 4.092 4.092 0 0 1-.748-1.428 6.694 6.694 0 0 1-.238-1.836Zm2.278 0c0 .374.034.72.102 1.037.068.317.17.595.306.833.136.238.312.425.527.561.227.125.493.187.799.187.578 0 1.009-.21 1.292-.629.284-.42.425-1.082.425-1.989 0-.782-.13-1.411-.391-1.887-.26-.487-.702-.731-1.326-.731-.544 0-.969.204-1.275.612-.306.408-.459 1.077-.459 2.006Zm1.836-7.99h2.244v.51l-1.887 2.108h-1.258l.901-2.618ZM163.982 33v-4.828c0-.691-.102-1.19-.306-1.496-.193-.306-.527-.459-1.003-.459-.419 0-.776.125-1.071.374a2.007 2.007 0 0 0-.612.901V33h-2.21v-8.5h1.751l.255 1.122h.068c.261-.363.606-.68 1.037-.952.431-.272.986-.408 1.666-.408.419 0 .793.057 1.122.17.329.113.606.3.833.561.227.26.397.618.51 1.071.113.442.17.992.17 1.649V33h-2.21ZM65.425 48.192h-7.344V69h-4.932V48.192h-7.38V43.8h19.656v4.392ZM62.417 60c0-3.048.743-5.388 2.231-7.02 1.489-1.656 3.577-2.484 6.264-2.484 1.44 0 2.688.228 3.744.684 1.056.456 1.932 1.104 2.628 1.944.697.816 1.212 1.812 1.548 2.988.36 1.176.54 2.472.54 3.888 0 3.048-.743 5.4-2.231 7.056-1.465 1.632-3.54 2.448-6.229 2.448-1.44 0-2.688-.228-3.744-.684a7.42 7.42 0 0 1-2.664-1.908c-.696-.84-1.224-1.848-1.584-3.024-.336-1.176-.504-2.472-.504-3.888Zm4.823 0c0 .792.073 1.524.217 2.196.144.672.36 1.26.648 1.764.287.504.66.9 1.115 1.188.48.264 1.044.396 1.692.396 1.224 0 2.136-.444 2.736-1.332.6-.888.9-2.292.9-4.212 0-1.656-.276-2.988-.828-3.996-.552-1.032-1.487-1.548-2.808-1.548-1.152 0-2.052.432-2.7 1.296-.648.864-.972 2.28-.972 4.248Zm30.677 2.664c0 1.008.011 2.016.035 3.024.025 1.008.133 2.124.325 3.348h-3.349l-.647-2.34h-.145c-.48.84-1.175 1.524-2.087 2.052-.889.504-1.945.756-3.169.756-2.255 0-4.007-.744-5.255-2.232-1.249-1.488-1.873-3.816-1.873-6.984 0-3.072.697-5.46 2.089-7.164 1.392-1.704 3.431-2.556 6.12-2.556.743 0 1.356.048 1.835.144.48.072.96.204 1.44.396V43.8h4.68v18.864Zm-7.957 2.88c.913 0 1.633-.216 2.16-.648.528-.456.9-1.104 1.117-1.944V55.32a3.296 3.296 0 0 0-1.116-.576c-.408-.144-.936-.216-1.584-.216-1.32 0-2.317.444-2.989 1.332-.648.888-.972 2.412-.972 4.572 0 1.536.265 2.772.793 3.708.552.936 1.415 1.404 2.591 1.404ZM101.16 60c0-3.048.744-5.388 2.232-7.02 1.488-1.656 3.576-2.484 6.264-2.484 1.44 0 2.688.228 3.744.684 1.056.456 1.932 1.104 2.628 1.944.696.816 1.212 1.812 1.548 2.988.36 1.176.54 2.472.54 3.888 0 3.048-.744 5.4-2.232 7.056-1.464 1.632-3.54 2.448-6.228 2.448-1.44 0-2.688-.228-3.744-.684a7.42 7.42 0 0 1-2.664-1.908c-.696-.84-1.224-1.848-1.584-3.024-.336-1.176-.504-2.472-.504-3.888Zm4.824 0c0 .792.072 1.524.216 2.196.144.672.36 1.26.648 1.764.288.504.66.9 1.116 1.188.48.264 1.044.396 1.692.396 1.224 0 2.136-.444 2.736-1.332.6-.888.9-2.292.9-4.212 0-1.656-.276-2.988-.828-3.996-.552-1.032-1.488-1.548-2.808-1.548-1.152 0-2.052.432-2.7 1.296-.648.864-.972 2.28-.972 4.248Zm35.568 3.42h-7.74L131.903 69h-4.932l9.072-25.38h3.636L148.751 69h-5.184l-2.016-5.58Zm-6.48-3.96h5.4l-1.872-5.616-.756-3.96h-.18l-.756 3.996-1.836 5.58Zm20.332 1.656.648 2.808h.216l.468-2.844L159.471 51h4.824l-5.472 16.236a85.635 85.635 0 0 1-1.332 3.672c-.408 1.128-.864 2.1-1.368 2.916-.504.816-1.068 1.44-1.692 1.872-.6.456-1.32.684-2.16.684-1.248 0-2.244-.204-2.988-.612l.864-3.744c.36.144.72.216 1.08.216.552 0 1.08-.24 1.584-.72.528-.456.924-1.296 1.188-2.52l-7.524-18h5.616l3.312 10.116ZM170.542 51v10.224c0 1.464.168 2.52.504 3.168.36.648 1.044.972 2.052.972.888 0 1.62-.264 2.196-.792a4.783 4.783 0 0 0 1.332-1.944V51h4.68v12.528c0 .984.048 1.956.144 2.916.096.936.24 1.788.432 2.556h-3.528l-.828-2.664h-.144c-.552.912-1.32 1.668-2.304 2.268-.984.6-2.148.9-3.492.9-.912 0-1.728-.12-2.448-.36a4.022 4.022 0 0 1-1.8-1.188c-.48-.552-.852-1.296-1.116-2.232-.24-.936-.36-2.112-.36-3.528V51h4.68Zm30.171 11.664c0 1.008.012 2.016.036 3.024.024 1.008.132 2.124.324 3.348h-3.348l-.648-2.34h-.144c-.48.84-1.176 1.524-2.088 2.052-.888.504-1.944.756-3.168.756-2.256 0-4.008-.744-5.256-2.232-1.248-1.488-1.872-3.816-1.872-6.984 0-3.072.696-5.46 2.088-7.164 1.392-1.704 3.432-2.556 6.12-2.556.744 0 1.356.048 1.836.144.48.072.96.204 1.44.396V43.8h4.68v18.864Zm-7.956 2.88c.912 0 1.632-.216 2.16-.648.528-.456.9-1.104 1.116-1.944V55.32a3.296 3.296 0 0 0-1.116-.576c-.408-.144-.936-.216-1.584-.216-1.32 0-2.316.444-2.988 1.332-.648.888-.972 2.412-.972 4.572 0 1.536.264 2.772.792 3.708.552.936 1.416 1.404 2.592 1.404Zm11.955-13.5c.96-.432 2.1-.768 3.42-1.008a21.07 21.07 0 0 1 4.14-.396c1.248 0 2.292.156 3.132.468.84.288 1.5.708 1.98 1.26a4.503 4.503 0 0 1 1.044 1.98c.216.768.324 1.632.324 2.592a48.16 48.16 0 0 1-.108 3.204c-.072 1.056-.12 2.1-.144 3.132 0 1.032.036 2.04.108 3.024.072.96.252 1.872.54 2.736h-3.816l-.756-2.484h-.18c-.48.744-1.152 1.392-2.016 1.944-.84.528-1.932.792-3.276.792-.84 0-1.596-.12-2.268-.36a5.279 5.279 0 0 1-1.728-1.08 5.17 5.17 0 0 1-1.116-1.656c-.264-.648-.396-1.368-.396-2.16 0-1.104.24-2.028.72-2.772.504-.768 1.212-1.38 2.124-1.836.936-.48 2.04-.804 3.312-.972 1.296-.192 2.736-.252 4.32-.18.168-1.344.072-2.304-.288-2.88-.36-.6-1.164-.9-2.412-.9-.936 0-1.932.096-2.988.288-1.032.192-1.884.444-2.556.756l-1.116-3.492Zm5.94 13.392c.936 0 1.68-.204 2.232-.612.552-.432.96-.888 1.224-1.368v-2.34a13.07 13.07 0 0 0-2.16-.036 7.772 7.772 0 0 0-1.8.324c-.528.168-.948.408-1.26.72-.312.312-.468.708-.468 1.188 0 .672.192 1.2.576 1.584.408.36.96.54 1.656.54ZM85.384 99.39c-1.14-.04-2.14-.16-3-.36-.86-.2-1.53-.43-2.01-.69l1.17-3.39c.36.22.86.43 1.5.63.66.2 1.44.34 2.34.42v-6.15c-.62-.28-1.24-.59-1.86-.93-.6-.34-1.14-.75-1.62-1.23-.48-.48-.87-1.05-1.17-1.71-.28-.68-.42-1.48-.42-2.4 0-1.72.45-3.05 1.35-3.99.92-.96 2.16-1.58 3.72-1.86V75h3.12v2.61c.88.06 1.65.18 2.31.36.66.18 1.27.39 1.83.63l-1.08 3.33a10.225 10.225 0 0 0-3.06-.84v5.61c.62.28 1.24.6 1.86.96.64.34 1.2.75 1.68 1.23.5.48.9 1.05 1.2 1.71.32.64.48 1.41.48 2.31 0 1.84-.47 3.28-1.41 4.32-.92 1.02-2.19 1.68-3.81 1.98V102h-3.12v-2.61Zm4.44-6.03c0-.64-.26-1.16-.78-1.56-.5-.42-1.11-.8-1.83-1.14V96c.88-.1 1.53-.38 1.95-.84.44-.46.66-1.06.66-1.8Zm-5.61-10.11c0 .6.23 1.1.69 1.5.48.4 1.07.77 1.77 1.11V81c-.94.04-1.59.27-1.95.69-.34.42-.51.94-.51 1.56ZM98.296 95.7h4.17V83.85l.45-2.04-1.44 1.77-2.67 1.83-1.65-2.25 6.84-5.52h2.19V95.7h4.08V99h-11.97v-3.3Zm15.191-7.23c0-3.68.63-6.41 1.89-8.19 1.26-1.8 3.07-2.7 5.43-2.7 2.52 0 4.37.89 5.55 2.67 1.18 1.76 1.77 4.5 1.77 8.22 0 3.7-.64 6.45-1.92 8.25-1.26 1.8-3.07 2.7-5.43 2.7-2.5 0-4.34-.94-5.52-2.82-1.18-1.9-1.77-4.61-1.77-8.13Zm3.9 0c0 2.44.26 4.33.78 5.67.54 1.32 1.42 1.98 2.64 1.98 1.18 0 2.04-.61 2.58-1.83.56-1.22.84-3.16.84-5.82 0-2.42-.26-4.29-.78-5.61-.52-1.32-1.41-1.98-2.67-1.98-1.2 0-2.07.62-2.61 1.86-.52 1.24-.78 3.15-.78 5.73Zm13.182 8.55c0-.7.22-1.25.66-1.65.44-.42 1.02-.63 1.74-.63.76 0 1.36.21 1.8.63.44.4.66.95.66 1.65s-.22 1.26-.66 1.68c-.44.42-1.04.63-1.8.63-.72 0-1.3-.21-1.74-.63-.44-.42-.66-.98-.66-1.68Zm7.322-8.55c0-3.68.63-6.41 1.89-8.19 1.26-1.8 3.07-2.7 5.43-2.7 2.52 0 4.37.89 5.55 2.67 1.18 1.76 1.77 4.5 1.77 8.22 0 3.7-.64 6.45-1.92 8.25-1.26 1.8-3.07 2.7-5.43 2.7-2.5 0-4.34-.94-5.52-2.82-1.18-1.9-1.77-4.61-1.77-8.13Zm3.9 0c0 2.44.26 4.33.78 5.67.54 1.32 1.42 1.98 2.64 1.98 1.18 0 2.04-.61 2.58-1.83.56-1.22.84-3.16.84-5.82 0-2.42-.26-4.29-.78-5.61-.52-1.32-1.41-1.98-2.67-1.98-1.2 0-2.07.62-2.61 1.86-.52 1.24-.78 3.15-.78 5.73Zm13.122 0c0-3.68.63-6.41 1.89-8.19 1.26-1.8 3.07-2.7 5.43-2.7 2.52 0 4.37.89 5.55 2.67 1.18 1.76 1.77 4.5 1.77 8.22 0 3.7-.64 6.45-1.92 8.25-1.26 1.8-3.07 2.7-5.43 2.7-2.5 0-4.34-.94-5.52-2.82-1.18-1.9-1.77-4.61-1.77-8.13Zm3.9 0c0 2.44.26 4.33.78 5.67.54 1.32 1.42 1.98 2.64 1.98 1.18 0 2.04-.61 2.58-1.83.56-1.22.84-3.16.84-5.82 0-2.42-.26-4.29-.78-5.61-.52-1.32-1.41-1.98-2.67-1.98-1.2 0-2.07.62-2.61 1.86-.52 1.24-.78 3.15-.78 5.73Zm13.121 0c0-3.68.63-6.41 1.89-8.19 1.26-1.8 3.07-2.7 5.43-2.7 2.52 0 4.37.89 5.55 2.67 1.18 1.76 1.77 4.5 1.77 8.22 0 3.7-.64 6.45-1.92 8.25-1.26 1.8-3.07 2.7-5.43 2.7-2.5 0-4.34-.94-5.52-2.82-1.18-1.9-1.77-4.61-1.77-8.13Zm3.9 0c0 2.44.26 4.33.78 5.67.54 1.32 1.42 1.98 2.64 1.98 1.18 0 2.04-.61 2.58-1.83.56-1.22.84-3.16.84-5.82 0-2.42-.26-4.29-.78-5.61-.52-1.32-1.41-1.98-2.67-1.98-1.2 0-2.07.62-2.61 1.86-.52 1.24-.78 3.15-.78 5.73Z" fill="#E5659C"/><defs><linearGradient id="c" x1="131.5" y1="-70.72" x2="131.5" y2="538.61" gradientUnits="userSpaceOnUse"><stop stop-color="#FFFFDB"/><stop offset="1" stop-color="#FFAEDB"/></linearGradient><linearGradient id="e" x1="131.5" y1="484.25" x2="131.5" y2="282.33" gradientUnits="userSpaceOnUse"><stop stop-color="#DADADA"/><stop offset=".51" stop-color="#FFFEFF"/></linearGradient><linearGradient id="g" x1="170.269" y1="261.328" x2="192.299" y2="319.579" gradientUnits="userSpaceOnUse"><stop stop-color="#3FFFFF"/><stop offset="1" stop-color="#3FBAFF"/></linearGradient><linearGradient id="i" x1="93.404" y1="261.21" x2="71.384" y2="319.46" gradientUnits="userSpaceOnUse"><stop stop-color="#3FFFFF"/><stop offset="1" stop-color="#3FBAFF"/></linearGradient><linearGradient id="j" x1="112.75" y1="411.72" x2="157.77" y2="411.72" gradientUnits="userSpaceOnUse"><stop stop-color="#BCED01"/><stop offset="1" stop-color="#BCED01"/></linearGradient><linearGradient id="k" x1="113.53" y1="394.06" x2="127.42" y2="394.06" gradientUnits="userSpaceOnUse"><stop stop-color="#BCED01"/><stop offset="1" stop-color="#BCED01"/></linearGradient><linearGradient id="l" x1="135.26" y1="408.96" x2="157.73" y2="408.96" gradientUnits="userSpaceOnUse"><stop stop-color="#BCED01"/><stop offset="1" stop-color="#BCED01"/></linearGradient><linearGradient id="m" x1="127.05" y1="439.43" x2="136.01" y2="439.43" gradientUnits="userSpaceOnUse"><stop stop-color="#BCED01"/><stop offset="1" stop-color="#BCED01"/></linearGradient><clipPath id="a"><rect width="263" height="420" rx="60" fill="#fff"/></clipPath><clipPath id="b"><path fill="#fff" d="M0 0h263v420H0z"/></clipPath></defs></svg>