<svg width="263" height="462" fill="none" xmlns="http://www.w3.org/2000/svg"><g clip-path="url(#a)"><g clip-path="url(#b)"><path d="M203 0H60C26.863 0 0 26.863 0 60v300c0 33.137 26.863 60 60 60h143c33.137 0 60-26.863 60-60V60c0-33.137-26.863-60-60-60Z" fill="url(#c)"/></g><circle cx="131.5" cy="401.5" r="168.5" fill="#BAF4FF"/><circle cx="131.5" cy="417.5" r="168.5" fill="#98EEFE"/><circle cx="131.5" cy="437.5" r="168.5" fill="#69E7FF"/></g><path d="M117.829 123.26s10.34-6.18 25.55 0c0 0 4.2-1.9 13.43-1.9 1.78 0 3.68.45 6.77-.85 0 0 8.08-3.43 7.61 5 0 0 4.64 1.55 8.44 4.64 0 0 6.89-.48 11.65 1.66 0 0 23.3-7.84 29.12-2.5 0 0 8.2 10.7-11.89 31.73 0 0 .83 6.42-2.14 8.91 0 0 2.61 8.68-.12 14.62 0 0 11.53 10.1 18.54 28.29 0 0 13.31-1.78 21.39 9.27 0 0 8.08 8.32 4.28 23.53 0 0-1.55 7.73-4.99 11.41 0 0 12.36.48 13.91 12.95 0 0 1.43 12.48-8.44 20.8 0 0-9.92 8.62-14.98 20.44 0 0 26.56 43.62 22.11 81.06 0 0-1.78 24.78-21.75 33.16 0 0-8.2 3.57-16.4 3.92 0 0-13.73-.18-18.18 8.91 0 0-3.92 17.83-33.34 15.69 0 0-14.08 4.46-15.69-4.99 0 0-16.85-.18-11.59-21.66 0 0-20.86 12.66-40.2-4.1 0 0 2.93 6.77-.45 12.03 0 0 5.27 16.05-12.92 18.27 0 0-10.43 11.94-26.03-1.34 0 0-8.23-6.77-12.15-15.21 0 0-1.43-6.54-9.15-6.66 0 0-36.49.12-37.2-33.75 0 0-.77-14.08 7.96-50.63 0 0 7.84-27.93 18.54-46.23 0 0-5.11-22.46-7.73-31.26 0 0-6.06-22.58 7.01-26.27 0 0-8.2-19.25 8.2-31.02 0 0-7.73-20.09 16.4-34.11 0 0-12.84-1.66-12.6-12.6 0 0 5.59-2.26 6.89-5.11 0 0 3.57-6.42 11.41-6.54 0 0 2.97-10.82 14.26-12.84 0 0-.18-6.45 8.2-14.2 0 0 3.83-2.67 5.7-9.81 0 0 8.2 8.29 9.27 11.59 0 0-.89-5.62 1.52-8.11 2.41-2.49 5.79-.45 5.79-.45s1.34.71 3.65.62c0 0 5.82-1.46 10.31 3.6l.03.04Z" fill="#fff"/><path d="M188.069 398.94s21.16-16.22 33.52 0c0 0 16.4 17.48 1.43 31.83 0 0 23.3-2.77 32.57-22.02 0 0 10.22-25.95 0-58.02 0 0-9.86-28.78-16.93-38.74 0 0-8.98 4.71-14.09 27.09 0 0 2.02 26.4-7.96 36.99 0 0-20.2 4.05-28.52 22.89l-.02-.02ZM46.1 434.06s-13.01-17.83 2.14-32.62c0 0 11.94-8.91 27.1 1.43 0 0-9.27-7.49-10.7-10.87 0 0-6.42-9.98-22.28-9.63 0 0-4.46-10.34-22.46-13.37l.89-5.53s10.16-26.13 10.34-29.64c0 0 3.68-22.36-2.97-34.24 0 0-15.27 26.45-21.69 58.3 0 0-12.84 51.34 3.8 62.52 0 0 13.99 11.96 28.27 10.38 0 0 5.84 1.03 7.56 3.29v-.02Z" fill="#D6D6D6"/><path d="m127.489 277.2-4.19-1.24-3.61-2.11s4.56 7.96 2.19 14.26c0 0-4.54 12.48-21.94 3.33 0 0-16.45-7.02-16.33-17.59 0 0-9.51-.25-9.86-10.17l-5.94-3.5s-.12.45-.34 1.26l-13.19-10.41s-18.1-19.31-30.78-8.08c0 0-8.58 8.95-2.52 26.41l5.53 20.67s4.81 19.46 6.08 27.43c0 0-1.89 24.37-4.23 28.3 0 0 34.73 10.14 52.9-13 0 0-16.37-2.5-19.39-12.2 0 0-1.19-21.29 22.94-24.19 0 0 21.53-2.9 20.57 20.15 0 0 10.99-3.13 22.13-4.54 0 0 10.25-19.41 0-34.78h-.02Zm-85.01 37.41s-3.81 5.98-7.25-6.4-12-34.86-11.05-44.54c0 0 .83-9.8 7.96-5.99 0 0 5.11 4.79 7.25 11.67 0 0 7.65 20.07 8.17 26.37 0 0 1.7 12.6-5.07 18.9l-.01-.01Z" fill="#D6D6D6"/><path d="M98.69 290.85s-9.81-10.07 3.949-19.42l8.42-1.63s-15.56-10.79-16.37-21.27c0 0-8.59 12.29-10.61 22.9 0 0-4.77 12.06 14.61 19.42ZM174.169 249.01s-.48 11.77 19.14 21.51c0 0-9.66-2.31-12.62 5.44 0 0-2.91 8.58.63 12.86 0 0-4.77-6.06-10.48-6.89 0 0-14.38-4.3-14.5-12.67 0 0 5.35-4.14 7.49-9.64 0 0 5.11-11.09 10.34-10.61ZM63.75 143.86s-2.73 7.09 1.6 11.91c0 0 2.61 2.37 1.49 5.26 0 0-6.79 8.35-3.57 14.18l-6.18.48s.9-5.68-1.6-7.41c0 0-3.03-1.5-6.48-.49 0 0-7.49 1.55-8.56-4.64l5.47-3.68s4.1-8.32 11.89-8.08c0 0 2.08-6.16 5.94-7.51v-.02ZM188.129 129.92s-13.67 1.16-19.82 12.97l-9-2.74s5.13-4.46 10.9-7.17c0 0-3.41-5.92-11.53-5.29 0 0 7.22-7.93 21.75.45l7.7 1.78ZM102.019 170.27s-2.63 3.86 1.18 14.03c0 0 3.57 14.68-4.19 18.26l-5.9-.38s-14.1-1.7-9.01 14.13c0 0-11.49 3.23-10.63-9.61l5.73-4.52s10.1-8.79 11.89-17.88c0 0 1.71-5.65 7.92-11.71l2.13-.95.88-1.37ZM69.809 194.79s1.78 9.67 1.16 14.29c0 0-3.83 3.23-3.83 7.58 0 0-8.47 1.23-9.18-3.58l.45-2.41s7.13-19.02 11.41-15.89l-.01.01ZM208.399 184.33s-20.28 13.15 1.24 35.08c0 0 4.76 7.27 13.32 7.47 0 0 7.83.79 10.15 10.84 0 0-4.51-36.23-24.71-53.38v-.01Z" fill="#D6D6D6"/><path d="M53.79 177.82s-8.97 3.47-5.03 12.46c0 0 3.81 8.52 12.43 5.37 0 0-13.71 10.29.67 20.86 0 0 4.03 1.33 5.28.16 0 0-2.32 13.8-24.69 8.1 0 0-11.5-14.38-6.33-31.97 0 0 6.11-14.32 17.67-14.97v-.01ZM74.979 258.2s5.54-16.74 19.71-9.67l2.22-4.04-11.57-23.4s-13.23 3.97-9.93 25.66c0 0-.26 9.24-.44 11.45h.01ZM31.54 215.49s-.08 14.38 13.45 15.09l2.24 2.73.32 13.82s-10.9-10.8-20.88-5.54c0 0-6.3-19.33 4.87-26.11v.01ZM208.399 228.35s-8.05 10.2-8.66 15.9c0 0-2.87 6.66-7.74 5.23 0 0-4.6 0-5.93-6.66 0 0 .77 18.05-2.18 20.85l3.95 3.04 11.9-1.43 9.76-2.97s-1.72-19.25-3.97-24.6c0 0-1.65-3.22.43-4.94l2.44-4.43v.01Z" fill="#D6D6D6"/><path d="M216.339 235.7s-.22 16.31 15.59 14.4l1.18 9.22-9.38 2.32-13.67-.62s-5.5-14.14 6.28-25.32ZM234.659 247.53s14.14 3.26 18.18-9.1c0 0 1.66-14.74-11.53-22.58 0 0 2.48 11.17-8.21 13.13v3.8l1.55 14.75h.01Z" fill="#D6D6D6"/><path d="M97.72 400.72s3.879-19.75 31.669-19.86c0 0 28.32 3.1 34.12 16.47 0 0-16.67 20.86-45.37 15.69 0 0-16.76-5.53-20.41-12.3h-.01ZM119.689 268.42s3.08-8.09 17.96-8.27c0 0 11.68-.27 13.73 6.15 0 0-14.59 11.68-31.69 2.12ZM147.839 173.3s2.74-7.42 11.95-7.66c0 0 13.91-1.49 14.68 6.77 0 0-17.01 10.58-26.63.89ZM115.219 161.02s2.01-8.17 14.17-7.81c0 0 9.36 1.72 10.91 5.23v5.82s-8.85 9.69-18.78 2.56c0 0-4.58-3.03-6.3-5.8ZM76.83 180.68s-.3-5.9 7.67-8.28c0 0 7.67-1.84 9.12 1.96 0 0-5.26 9.3-16.79 6.31v.01Z" fill="#FF97BB"/><path d="M24.4 262.29s2.08-9.52 8.47-3.86c0 0 6.64 8.28 11.39 24.68 0 0 8.77 19.47-2.21 32.02 0 0-3.43 4.72-7.98-11.69 0 0-11.35-30.37-9.67-41.16v.01ZM207.789 299.58s25.51-36.13 41.73-28.38c0 0 5.35 7.76-8.38 22.38 0 0-15.39 28.17-24.54 27.28 0 0-11.14-6.18-8.81-21.28Z" fill="#FFC0BB"/><path d="M133.519 210.38c-7.01-1.19-18.42 2.02-18.42 2.02-19.85-17.35-29.75-8.8-29.75-8.8-6.93 5.35 3.29 23.27 3.29 23.27l8.28 17.61-1.82 2.64c7.33 6.8 14.06-.27 14.06-.27 7.49-8.44 23.69-12.81 23.69-12.81-6.61-11.02.67-23.68.67-23.68v.02Zm-35.84 23.68c-2.71-2.56-7.45-16.07-7.45-16.07-2.41-8.47 1.6-9.63 1.6-9.63 8.29 1.49 10.87 11.5 10.87 11.5-3.39 3.57-5.03 14.2-5.03 14.2h.01ZM131.229 120.02c-2.14-1.78-13.1.86-13.1.86-2.41-2.97-12.65-2.47-12.65-2.47-4.63-2.5-8.47.39-8.47.39-5.35 8.94 3.34 25.06 3.34 25.06 6.9 8.68 9.59-3.16 9.59-3.16 5.7-11.94 19.79-12.57 19.79-12.57-1.25-4.9 1.51-8.11 1.51-8.11h-.01Zm-25.76 18.1c-.71 3.92-2.27 2.85-2.27 2.85-4.14-4.19-5.31-14.31-5.31-14.31-.73-4.08 4.13-1.92 4.13-1.92 2.44 3.48 11.13 3.39 11.13 3.39-7.3 2.23-7.68 9.98-7.68 9.98v.01Z" fill="#D6D6D6"/><path d="M89.51 212.25s-.17-5.68 5.44-3.54c0 0 6.059 4.46 7.759 10.34l-.68 2.15s-4.38 10.21-4.34 12.85c0 0-7.56-12.92-8.17-21.81l-.01.01ZM98.78 124.75s.53-2.37 4.899.69c0 0 4.3 3.15 9.46 2.7 0 0-6.6 1.96-7.68 9.98 0 0-1.12 4.91-2.8 2.26 0 0-7.46-12.24-3.89-15.63h.01ZM164.389 216.2s7.22-11.57 13.64-14.03c0 0 2.76.12 1.52 6.18 0 0-4.72 16.97-9.98 17.35 0 0-4.9-.33-5.17-9.51l-.01.01ZM40.46 164s2.9 6.05 9.31 3.59c0 0 6.03-1.28 7.24 3.36l.14 4.24-6.19 2.33s-12.58-1.26-10.5-13.51V164ZM94.24 126.05s-3.84-4.41-4.55-1.88c0 0-3.15 12.55 7.7 14.67 0 0-2.07-10.6-3.15-12.79ZM157.529 140.15s1.2-11.75 2.52-12.46c0 0 8.89-.01 10.17 5.29 0 0-8.17 3.72-8.87 6.39l-3.82.78ZM202.099 140.97l10.61-6.92s5.53-2.71 6.51 2.1c0 0 .98 11.77-10.34 18.54 0 0-4.49 3.36-4.29-1.49 0 0 1-5.62-2.12-9.78 0 0-1.52-.41-.36-2.46l-.01.01Z" fill="#FFC0BB"/><path d="M90.41 380.31s8.55 7.49 22.739 3.52l-1.85 2.63s-11.47 6.36-13.58 13.61c0 0-8.28-9.33-11.08-17.03 0 0 3.44-.39 3.77-2.73ZM117.859 382.25s16.49-1.9 22.08 0l-11.04-8.68-11.04 8.68ZM144.299 384.09s17.69 6.59 19.2 13.24c0 0 9.93-11.29 12.14-21.16 0 0-2.01-.24-3.05-1.9 0 0-13.36 7.51-28.29 9.82ZM114.209 261.13s.45-4.99 3.65-4.29c0 0 9.27 6.25 16.85-1.23 0 0 2.32 4.46 11.23 0 0 0 7.04-1.96 8.11 1.69 0 0 1.24 6.58-2.67 9 0 0-1.45-7.94-17.26-6.15 0 0-10.65 1.74-14.43 8.27 0 0-5.75-2.92-5.48-7.29ZM140.949 162.24s5.41 7.9 10.28 1.66l4.69 1.62.24.69s-7.2 1.65-8.32 7.45c0 0-3.98.22-6.89-11.43v.01ZM166.439 164.86s8.02-5.76 10.1-3.27l.48 4.05-2.62 6.28s-1.36-6.19-9.38-6.38l1.43-.67-.01-.01ZM113.669 153.57s1.9-3.57 9.92-2.26c0 0 5.29.86 7.37-4.27 0 0 .65 4.21 4.28 4.45 0 0 6 .65 6.72 1.84l-2.27 4.52s-5.87-5.88-12.83-4.52c0 0-10.1 1.3-11.29 7.99 0 0-4.69-3.35-1.9-7.75ZM73.86 171.96s5.85 3.57 9.49-2.15c0 0 3.88-8.93 8.81-7.15 0 0 4.04.96 3.45 6.78l-1.99 4.93s-2.53-3.33-7.76-1.96c0 0-7.84.59-8.74 8.2 0 0-5.16-1.15-5.25-3.99 0 0 4.18 1.91 1.98-4.66h.01Z" fill="#3D3D3D"/><mask id="d" style="mask-type:luminance" maskUnits="userSpaceOnUse" x="155" y="297" width="34" height="30"><path d="M155.509 315.76s15.54 3.97 20.47 11.16c0 0 12.45-5.17 12.09-15.87 0 0-4.64-18.25-23.77-12.69 0 0-10.05 6.4-8.8 17.4h.01Z" fill="#fff"/></mask><g mask="url(#d)"><path d="M172.279 326.06c7.345 0 13.3-5.955 13.3-13.3 0-7.345-5.955-13.3-13.3-13.3-7.345 0-13.3 5.955-13.3 13.3 0 7.345 5.955 13.3 13.3 13.3Z" fill="url(#e)"/></g><path opacity=".61" d="M170.619 308.76a7.12 7.12 0 1 0 0-14.24 7.12 7.12 0 0 0 0 14.24Z" fill="#fff"/><mask id="f" style="mask-type:luminance" maskUnits="userSpaceOnUse" x="70" y="300" width="30" height="31"><path d="M83.099 329.83s8.35-8.76 16.79-11.81c0 0 1.48-16.84-16.32-17.07 0 0-20.24 2.94-11.23 23.57 0 0 3.65 7.31 10.77 5.31h-.01Z" fill="#fff"/></mask><g mask="url(#f)"><path d="M84.63 329.06c7.345 0 13.3-5.955 13.3-13.3 0-7.345-5.956-13.3-13.3-13.3-7.346 0-13.3 5.955-13.3 13.3 0 7.345 5.954 13.3 13.3 13.3Z" fill="url(#g)"/></g><path opacity=".61" d="M78.559 313.88a7.12 7.12 0 1 0 0-14.24 7.12 7.12 0 0 0 0 14.24Z" fill="#fff"/><path opacity=".11" d="M70.03 363.02s13.98-.81 21.41 6.68c0 0 19.729 10.1 30.429-2.88 0 0 6.54-6.74 4.16-17.98h3.35l-1.82 21.38s-3.6 18.93-27.65 13.93c0 0-14.92-1.26-21.36-14.09 0 0-3.69-6.58-8.54-7.04h.02Z" fill="#000"/><path d="M20.08 370.95s7.73 5.71 5.65 15.51c0 0 12.25-6.76 19.26-3.74 0 0-12.96-12.49-24.9-11.78l-.01.01Z" fill="#000" style="mix-blend-mode:multiply" opacity=".15"/><path d="M212.699 377.9s5.02-4.2 19.23-2.1c0 0 16.75-7.65 8.32-29.64 0 0-3.27-16.58 4.87-20.32 0 0-5.23-13.17-7.19-13.87 0 0-12.3 16.34-12.12 28.56 0 0 2.49 25.78-13.11 37.36v.01Z" fill="#000" style="mix-blend-mode:multiply" opacity=".12"/><path d="M168.039 435.78s-5.88 12.54 5.71 12.72c0 0 16.4 1.84 21.48-12.72 0 0 .98-14.02 25.23-15.81 0 0 38.86-4.04 39.66-45.7 0 0 4.28 41.24-23.04 52.12 0 0-10.74 5.18-22.51 4.37 0 0-11.41 3.83-11.77 10.78 0 0-7.68 18.12-35.04 13.43 0 0-1.51 3.57-11.67.78 0 0-2.87-17.36 11.94-19.97h.01ZM156.559 429.54s-10.62 6.66-4.74 22.52c0 0-10.11-4.03-10.7-8.5 0 0 1.78-17.21 15.43-14.02h.01ZM84.669 423.84s16.92 1.53 12-9.99c0 0 9.77 7.02 5.19 20.21 0 0-5.72-10.1-17.18-10.22h-.01ZM85.68 438.38s5.17-.5 6.95 2.22c0 0 5.75 6.39 9.219-3.29 0 0 3.08 15.58-11.45 16.95 0 0-13.28 13.07-27.72.71 0 0 18.18 4.58 23-7.19 0 0 1.96-3.47 0-9.4ZM30.15 240.38s14.17.78 28.79 27.52c0 0 13.37 19.64 31.56 19.36 0 0-7.6-6.97-7.56-13.74 0 0-5.76 1.74-10.6-9.69 0 0-32.65-28.5-42.19-23.44v-.01ZM174.169 249.01s-6.16.51-12.47 14.52c0 0-4.31 3.68-7.34 6.79-5.65 2.81-22.49 9.72-38.28 1.86 0 0 10.74 14.83-10.01 17.85 0 0-7.74 1.62-14.6-2.76 0 0 16.93 17.04 32.67 9.45 0 0 7.57-3.69 6.01-14.35 0 0 20.1.15 27.3-8.11 0 0 5.78-.73 10.41-12.5 0 0 3.11-7.31 9.27-5.11 0 0-2.89-2.39-2.97-7.63l.01-.01Z" fill="#000" style="mix-blend-mode:multiply" opacity=".15"/><path opacity=".11" d="M162.519 408.92s42.23-25.69 41.57-50.21c0 0-10.79-55.28 8.61-76.73 0 0 31.74-34.08 46.76-18.46 0 0 7.4 15.39-5.12 26.5 0 0-27.22 26.62-28.54 44.23l.11 7.8s-3.67 32.07-11.12 34.73c0 0-23.02 8.9-27.84 23.28l-15.78 8.85h-8.65v.01Z" fill="#000"/><path opacity=".11" d="M186.289 333.63c-6 2.08-8.55-4.16-8.55-4.16-9.21-12.78-31.8-15.59-31.8-15.59v1.89c15.12 5.75 21.04 20.24 21.04 20.24 6.36 22.82-11.58 30.22-11.58 30.22-15.35 6.44-23.2-1.88-23.35-2.04-3-4.85-3.15-9.62-3.15-9.62-2.96 24.09 7.2 26.29 7.2 26.29 20.31 5.5 33.91-2.13 42.16-10.4 3.43 5.44-2.61 6.92-2.61 6.92 10.45 8.93 9.28-9.73 9.28-9.73 14.2-13.82 1.37-34.02 1.37-34.02h-.01Z" fill="#000"/><path opacity=".11" d="M164.059 318.77s21.77 8.95 26.33-10.56l2.9 1.1v6.24s-7.01 12.01-18.48 11.36c0 0-7.55-8.62-10.76-8.14h.01ZM89.32 323.55s16.199-8.8 7.98-23.97c0 0 9.459 7.04 7.359 17.01 0 0-5.94 3.19-15.34 6.97v-.01Z" fill="#000"/><path d="M205.959 289.42s4.01-11.09-2.56-17.98c0 0-6.94-3.21-5.82-5.27l-9.5.88s5.82 3.7 8.61 5.13c0 0 11.58 5.74 9.27 17.24Z" fill="#000" style="mix-blend-mode:multiply" opacity=".15"/><path d="M209.929 222.66s-1.42 10.14 4.76 9.62c0 0 4.04.79 4.4 4.12 0 0-8.8 12.73-7.61 24.67l-11.85 5.64s6.73-7.27 4.57-32.42c0 0 3.81-3.63 5.72-11.64l.01.01ZM233.109 260.3s20.02.42 19.26-15.61c0 0 3.68-15.31-3.57-21.01 0 0-8.56-6.22-13.91 3.61l-2.73 4.88.94 28.13h.01ZM179.649 223.68s11.11 13.54 4.24 40c0 0-7.11-3.02-9.72-14.67 0 0 1.07-.81 2.97-1.47 0 0-8.29-8.29 2.51-23.85v-.01Z" fill="#000" style="mix-blend-mode:multiply" opacity=".27"/><path d="M151.229 180.68s4.31 20.07 32.58 15.14c0 0 20.77-5.03 19.95-28.35 0 0-.95-5.7-5.11-1.84 0 0-29.02 26.19-47.42 15.05Z" fill="#000" style="mix-blend-mode:multiply" opacity=".15"/><path d="M140.949 162.24s6.48 3.13 7.61-5.39c0 0 8.19 5.23 17.17-2.67 0 0 3.59-5.19.53-11.3 0 0 9.81 1.41 13.61 8.9 0 0 6.54 13.07-6.12 22.64 0 0 6.23-6.78 2.49-13.11 0 0-4.49-.5-8.93 2.94 0 0-9.54 4.52-16.44-1.43 0 0-.76 6.67-6.37 3.15 0 0-3.61-1.96-3.55-3.74v.01ZM122.109 173.35s13.57 2.64 21.11-4.47c0 0 3.14 8.96 9.85 12.99 0 0-4.93 8.4-21.45 5.68 0 0-2.73-1.92 3.8-3.21 0 0 4.81-.34 3.06-4.62 0 0-10.13.47-18.98-6.04 0 0-.84-1.94 2.61-.33ZM118.129 150.95s10.03-.96 11.26-7.52l1.1-4.3 5.07-2.29s-1.92 6.86 5.39 7.05c0 0 8.34-.55 6.89-10.61 0 0 4.28 4.64 5.69 8.83l-9.2 8.26-2.92 2.71s-5.27-2.15-8.23-1.25l-2.41-4.19-1.4 2.73s-2.79 3.16-11.26.57l.02.01ZM95.26 177.16s11.289-14.32-1.11-31.5c0 0-11.06-9.38-8.38-20.23 0 0 2.67-3.18 1.34-10.13l8.56 7.78s-2.2 16.78 5.699 20.78c.64.32-2.31 11.46 4.1 19.04l-3.45 6.54v2.08s-3.39.48-6.76 5.64Z" fill="#000" style="mix-blend-mode:multiply" opacity=".15"/><path d="M71.62 169.44s8.17 1.57 9.07-7.7c0 0 1.01-6.74-4.53-7.56 0 0-4.29-.46-7.77 4.78 0 0 3.27-9.47 15.38-9.8 0 0 11.9-.62 12.63 16.67 0 0-3.54-6.34-7.13-3.08l-3.49 2.97s-2.67 11.92-12.75 5.56c0 0 4.1 4.88-1.6 5.33 0 0 2.46-.46.2-7.18l-.01.01ZM134.769 251.03s.48 5.82 9.12 2.7c0 0 7.84-3.74 6.24-11.5 0 0-.44-2.61-3.16-4.52 0 0 9.35 3.83 10.49 10.82 0 0 2.11 11.97-5.28 16.34 0 0 4.88-5.5-.68-10.15l-5.25.8s-6.25 3.71-10.23 1.31c0 0-1.25.03-1.25-1.76 0 0-1.13 6.07-13.17 3.48 0 0 10.92.32 10.85-7.6 0 0 1.66-1.68 2.31.07l.01.01ZM69.46 194.79s-6.95 2.4-10.07-.35c0 0-8.47-3.33-12.48 5.78 0 0-2.85 9.47 7.84 17.85 0 0 7.81 4.34 12.69.03 0 0-13.94 1.01-12.6-12.48 0 0-.18-7.16 5.17-8.76 0 0 7.43-.07 9.45-2.07ZM38.02 221.09s-2.94 11.24.96 19.55l7.46 4.21.63-13.53-9.06-10.22.01-.01ZM61.609 238.03s-2.85 8.98 0 16.69l10.72 8.13s2.59-1.72 2.65-2.08c.06-.36-.09-8.68-.09-8.68s-2.51-6.3-6.05-7.25l-4.31-7.6-2.92.79ZM133.519 208.36s12.57 5.26 17.71-4.1c0 0 3.69-6.3-.35-10.06 0 0 8.14 6.16 6.86 11.94 0 0-1.64 8.36-13.76 5.65 0 0-10.13-2.01-10.46-3.44v.01Z" fill="#000" style="mix-blend-mode:multiply" opacity=".15"/><path d="M111.539 208.72s15.2 2.5 15.5-5.97c0 0 1.74-8.54-5.08-10.93 0 0 9.83 1.67 10.89 7.15l-1.13 4.67s3.11 7.4 2.64 6.86c-.47-.54-13.42-.88-19.51 2.28l-3.32-4.06h.01Z" fill="#000" style="mix-blend-mode:multiply" opacity=".15"/><path d="M107.239 408.38s-3.67-15.35 15.58-20.8c0 0 10.93-3.45 20.8 3.21 0 0 8.91 4.56 8.44 14.4 0 0 9.67-3.57 12.19-8.75 0 0-12.02-12.89-34.09-14.21 0 0-25.24-.84-32.75 17.47l9.84 8.67-.01.01ZM127.039 272.18s-4.12-7.59 7.73-9.44c0 0 11.53-1.65 11.39 6.62l5.07-3.66s-5.09-8.6-16.46-5.4c0 0-11.47.62-15.08 8.13 0 0 4.87 3.15 7.36 3.76l-.01-.01ZM148.869 174.43s1.9-6.57 9.96-6.47c0 0 6.63.2 6.9 3.5 0 0 .2 2.94-4.31 5.7 0 0 11.97-1.53 13.05-4.75 0 0-2.01-7.67-11.23-6.77l-7.15.35s-7.31 1.07-7.21 8.44h-.01ZM120.529 165.99s-4.02-9.23 5.39-10.16c0 0 13.6-2.59 11.82 10.61l3.21-1.58-1.26-8s-8.28-6.85-18.35-1.56c0 0-5.56 1.69-5.76 6.03 0 0 2.85 4.11 4.96 4.67l-.01-.01ZM79.17 181.27s-1.33-5.54 4.41-7.41c0 0 6.06-1.86 7.31 3.71l2.72-3.39s-4.8-4.33-10.87-1.14c0 0-5.8 2.27-5.62 7.65l2.05.59v-.01ZM34.87 306.76s2.73 5.48 5.35-1.18c0 0 5.37-7.45-1.68-27.34 0 0-7.68-25.32-13.64-11.53 0 0-2.63-6.77 4.27-10.58 0 0 6.82-.03 10.61 14.25 0 0 8.15 19.87 7.77 27.38 0 0-.33 18.54-7.93 18.28 0 0-2.28.83-4.75-9.3v.02Z" fill="#FFC0DB" style="mix-blend-mode:multiply"/><path d="M223.389 317.58c.25-.31-12.73-1.45-3.23-21.87 0 0 14.61-23.04 24.96-20.43 0 0 6.74 2.71.28 11.99 0 0 10.06-11.39 2.1-17.16 0 0-6.18-3.04-26.03 12.77 0 0-22.17 14.37-11.97 29.95 0 0 5.59 15.2 13.89 4.75Z" fill="#FFC0DB" style="mix-blend-mode:multiply" opacity=".71"/><path d="M97.69 233.89s-6.85-14.81-4.34-19.38c0 0 1.99-2.05 4.34.98 0 0 2.539 2.69 1.33 4.73 0 0-1.08 4.27.33 7.3 0 0 1.579-5.08 2.299-7.3 0 0 1.41-3.29-4.33-8.42 0 0-7.21-7.6-7.52-.97 0 0-.1 12.15 8.11 23.47M173.569 222.02s-5.75 2.88-4.99-4.84c0 0 1.11-7.31 7.49-10.25 0 0 3.21-1.63 1.07 7.43 0 0 5.35-11.4 1.78-13.42 0 0-9.09 6.3-12.34 12.07 0 0-4.03 4.27-1.12 8.92 0 0 5.26 8.86 8.12.1l-.01-.01ZM57.09 173.35s.13-3.65-.22-4.47c0 0-2.7-4.05-8.92-1.79 0 0-6.36 2.26-7.49-3.95 0 0-4.5 8.65 9.31 14.68l4.02-1.2s-10.99-3.98-6.26-6.35c0 0 5.92-3.76 9.56 3.08ZM94.649 127.14s-3.54-6.04-5.05-3.1c0 0-3.8 11.87 8.22 15.34 0 0-7.86-5.21-6.17-12.24 0 0 .12-2.07 3 0ZM104.029 128.68c2.57 2.42 9.12-.55 9.12-.55-2.93.71-8.05-1.85-9.12-2.08-1.07-.23-5.21-1.76-5.21-1.76-2.47 3.16-.03 9.04 2.08 12.9 0 0 2.37 6.84 4.01 2.84.2-.49.82-3.62 1.17-4.53 0 0-3.74 4.64-5.26-1.45-.3-1.56-.47-2.76-.47-2.76-1.03-4.5 3.69-2.61 3.69-2.61h-.01ZM157.229 140.38s.25-10.92 2.81-12.69c0 0 7.19-1.36 9.76 5.6l-2.95 1.38s-1.4-6.54-5.6-5.11c0 0-2.34.5-.92 10.44l-3.1.37v.01ZM204.239 155.29c.05-.1.08-.21.12-.31l-.03.03-.09.27v.01Z" fill="#FFC0DB" style="mix-blend-mode:multiply"/><path d="M219.029 138.67c.06-2.29-.61-4.56-3.03-5.68l-3 .94-3.96 3.63-7.61 3.42s5.31 8.42 2.91 14.02c.3-.32 2.61-2.94 2.56-7.33 0 0-1.31-3.38.18-5.42 0 0 7.31-6.82 8.85-4.68 1.42 1.96 3.38 8.13-5.71 16.26 0 0 8.28-5.18 9.07-14.97l-.28-.18.02-.01Z" fill="#FFC0DB" style="mix-blend-mode:multiply"/><path d="M87.29 116.01s8.2 8.29 9.27 11.59c0 0-.89-5.62 1.52-8.11.91-.94 1.959-1.24 2.919-1.24 1.57 0 2.88.79 2.88.79s1.18.63 3.26.63h.4s.78-.19 1.99-.19c2.09 0 5.48.59 8.32 3.79 0 0 4.6-2.75 12.17-2.75 3.79 0 8.31.69 13.39 2.75 0 0 4.2-1.9 13.43-1.9.73 0 1.48.08 2.32.08 1.22 0 2.63-.16 4.45-.92 0 0 1.63-.69 3.38-.69 2.15 0 4.49 1.04 4.23 5.7 0 0 4.64 1.55 8.44 4.64 0 0 .65-.05 1.69-.05 2.34 0 6.66.23 9.95 1.71 0 0 12.96-4.36 21.96-4.36 3.07 0 5.68.51 7.16 1.87 0 0 8.2 10.7-11.89 31.73 0 0 .83 6.42-2.14 8.91 0 0 2.61 8.68-.12 14.62 0 0 11.53 10.1 18.54 28.29 0 0 .79-.11 2.11-.11 4.08 0 13.18 1.02 19.29 9.38 0 0 8.08 8.32 4.28 23.53 0 0-1.55 7.73-4.99 11.41 0 0 12.36.48 13.91 12.95 0 0 1.43 12.48-8.44 20.8 0 0-9.92 8.62-14.98 20.44 0 0 26.56 43.62 22.11 81.06 0 0-1.78 24.78-21.75 33.16 0 0-8.2 3.57-16.4 3.92h-.06c-.97 0-13.84.16-18.13 8.91 0 0-3.49 15.87-28.58 15.87-1.51 0-3.09-.06-4.75-.18 0 0-3.32 1.05-6.92 1.05-3.82 0-7.94-1.18-8.77-6.04 0 0-16.85-.18-11.59-21.66 0 0-7.55 4.58-17.78 4.58-6.77 0-14.72-2.01-22.42-8.68 0 0 2.93 6.77-.45 12.03 0 0 5.27 16.05-12.92 18.27 0 0-4.31 4.93-11.53 4.93-4.01 0-8.93-1.52-14.5-6.27 0 0-8.23-6.77-12.15-15.21 0 0-1.43-6.54-9.15-6.66-.5 0-36.49-.12-37.2-33.75 0 0-.77-14.08 7.96-50.63 0 0 7.84-27.93 18.54-46.23 0 0-5.11-22.46-7.73-31.26 0 0-6.06-22.58 7.01-26.27 0 0-8.2-19.25 8.2-31.02 0 0-7.73-20.09 16.4-34.11 0 0-12.84-1.66-12.6-12.6 0 0 5.59-2.26 6.89-5.11 0 0 3.57-6.42 11.41-6.54 0 0 2.97-10.82 14.26-12.84 0 0-.18-6.45 8.2-14.2 0 0 3.83-2.67 5.7-9.81Zm0-3c-.26 0-.52.03-.78.1a3.012 3.012 0 0 0-2.13 2.14c-1.53 5.83-4.43 8.04-4.56 8.13-.11.08-.18.14-.29.23-6.23 5.76-8.23 10.98-8.87 13.95-8.39 2.4-12.24 9.04-13.7 12.45-8.01 1.11-11.72 7.62-11.89 7.92-.04.07-.07.14-.1.21-.47 1.03-3.17 2.71-5.29 3.58a2.993 2.993 0 0 0-1.87 2.72c-.16 7.14 4.21 11.38 8.74 13.63-9.28 7.08-12.42 15.06-13.36 20.88-.76 4.77-.18 8.79.37 11.14-6.43 5.31-9.81 12.55-9.81 21.06 0 3.83.69 7.16 1.32 9.38-11.98 6.49-6.44 27.79-6.18 28.76 0 .03.01.05.02.08 2.22 7.47 6.34 25.24 7.41 29.92-10.46 18.4-17.92 44.77-18.24 45.9-.01.04-.02.08-.03.11-8.53 35.75-8.08 50.25-8.03 51.43.41 18.92 11.33 27.9 20.41 32.11 9.7 4.49 19.37 4.54 19.78 4.54 4.93.08 6.06 3.62 6.23 4.33.05.22.11.39.2.59 4.16 8.95 12.61 15.97 12.97 16.27 5.41 4.6 10.94 6.95 16.41 6.95 6.58 0 11.13-3.44 12.93-5.1 6.01-.94 10.34-3.42 12.869-7.4 3.15-4.95 2.42-10.71 1.86-13.28.95-1.92 1.34-3.91 1.41-5.76 5.62 3.31 11.74 4.99 18.26 4.99 5.6 0 10.44-1.26 13.88-2.52-.5 5.59.6 10.14 3.27 13.59 3.02 3.89 7.28 5.26 9.88 5.74 1.61 4.04 5.54 6.3 11.11 6.3 3.13 0 6.03-.69 7.24-1.02 1.51.1 3 .15 4.43.15 25.17 0 30.61-14.98 31.4-17.79 3.65-6.91 14.83-6.99 15.31-6.99h.19c8.66-.38 17.11-4.01 17.47-4.17 21.03-8.82 23.39-33.76 23.54-35.62 4.1-34.72-17.16-73.66-21.72-81.54 4.86-10.33 13.48-17.91 13.57-17.99 10.93-9.22 9.52-22.83 9.45-23.4-1.09-8.78-6.89-12.99-11.93-14.68 1.9-3.76 2.79-7.85 2.96-8.68 3.86-15.55-3.62-24.69-4.89-26.1-7-9.44-17.43-10.47-21.61-10.47h-.12c-5.73-13.77-13.73-22.68-17.04-26 1.4-4.85.52-10.33-.08-13.02 1.87-2.74 2.03-6.51 1.94-8.61 20.43-22.02 11.57-34.14 11.17-34.65-.11-.14-.22-.27-.35-.38-1.95-1.79-4.95-2.66-9.19-2.66-7.95 0-18.47 3.11-21.85 4.17-3.39-1.24-7.28-1.52-10.07-1.52h-.72c-2.34-1.73-4.8-2.94-6.47-3.66-.21-1.88-.86-3.41-1.94-4.55-.9-.95-2.53-2.08-5.24-2.08-2.3 0-4.33.83-4.55.93-1.43.6-2.46.68-3.28.68-.39 0-.75-.02-1.1-.04-.42-.02-.83-.04-1.23-.04-7.05 0-11.39 1.05-13.39 1.7-4.49-1.69-9-2.54-13.42-2.54-5.27 0-9.29 1.23-11.57 2.16-3.32-2.74-6.9-3.2-8.92-3.2-1.05 0-1.87.12-2.33.2h-.06c-1.06 0-1.71-.23-1.88-.3-.59-.33-2.23-1.13-4.26-1.13s-3.72.75-5.08 2.16c-.58.6-1.04 1.29-1.39 2.02-2.03-2.38-4.12-4.53-5.1-5.53-.57-.58-1.34-.89-2.13-.89l.04.01Z" fill="#706F6F"/><path d="M73.499 237.72s2.14 11.41-.83 23.3c0 0-2.61 11.05 6.89 14.26 0 0 2.14 1.55 5.23 0v-2.85s-11.29.36-8.8-12c0 0 2.5-12.36-2.5-22.7l.01-.01Z" fill="#706F6F"/><path d="M96.2 246.04s-19.05 29.53-6.33 37.74c0 0 21.899 18.12 29.619 5.05 0 0 4.61-9.33-1.63-14.77 0 0 13.7 7.4 4.46 18.01 0 0-10.7 11.32-29.68-2.76 0 0-16.49-7.67-9.09-23.89 0 0 5.97-13.16 12.66-19.37l-.01-.01Z" fill="#706F6F"/><path d="M98.34 239.02s-.12 6.06-2.5 9.86c0 0 6.769 24.22 36.009 26.27 0 0 22.82 0 30.66-15.69 0 0 6.06-11.92 14.62-11.49 0 0-7.96 1.03-13.91 13.87 0 0-7.13 19.02-39.7 14.98 0 0-25.08-5.47-30.19-29.83 0 0 2.85-.71 4.99-7.96l.02-.01Z" fill="#706F6F"/><path d="M156.099 268.71s3.57 9.45 14.62 12.48c0 0 9.98 2.05 13.19 9.27 0 0 4.72 8.38 14.26 4.64 0 0 9.09-3.92 5.08-15.42 0 0-3.74-6.15-12.57-9.98 0 0-15.7-7.44-16.9-20.43l1.28-1.14s.02 11.59 17.75 20.77c0 0 11.94 3.92 13.55 14.89 0 0 1.69 10.07-5.97 14.26 0 0-11.14 6.6-18.63-7.49 0 0-4.99-6.77-10.79-7.22 0 0-13.37-3.12-14.89-14.62l.02-.01ZM65.769 337.91s8.8 4.75 15.33-4.99c0 0 17.23-21.87 59.31-18.66 0 0 26.74 3.21 38.03 17.59 0 0 2.97 4.87 7.84 1.78 0 0-4.64 1.55-8.44-5.59 0 0-9.03-16.28-47.9-18.07 0 0-24.72-.95-48.14 19.37 0 0-7.49 9.98-16.05 8.56l.02.01ZM128.409 353s-.71 23.32 9.51 26.06c0 0 19.34 6.15 41.48-11.2 0 0 7.96-7.37 9.86-14.26 0 0-7.58 31.17-49.2 30.54 0 0-10.67-1.52-12.57-12.3l.92-18.84Z" fill="#706F6F"/><path d="M129.379 376.48s-17.23 16.85-37.64 6.77c0 0-7.04-3.48-13.46-11.77 0 0-5.26-9.09-10.16-7.93 0 0 5.26-3.65 14.44 8.02 0 0 11.59 16.94 34.23 9.09 0 0 8.74-3.92 9.81-12.93l.89-18.9h1.9v27.63l-.01.02Z" fill="#706F6F"/><path d="M115.449 343.14s9 10.7 18.72 6.69c0 0 7.22-2.5 8.47-4.9 0 0-1.87-5.08 2.59-6.95 0 0 3.74-1.52 6.06 2.05 0 0 8.02-1.69 7.09-7.93 0 0-.67-14.35-24.38-23.27 0 0-12.12-3.83-23.87 7.77 0 0-16.87 13.98-2.43 21.29 0 0 4.19-3.12 7.76-.18 0 0 2.41 1.34 0 5.44l-.01-.01Z" fill="#3C3C3B"/><path d="M77.57 368.99s-3.3 11.7 3.21 15.16c0 0 3.48 2.13 9.63-2.95 0 0-6.6 4.72-9.72.36 0 0-4.01-3.48-3.12-12.57ZM172.589 374.69s4.37 4.2 7.13 2.1c0 0 4.06-2.64 2.97-10.57 0 0 .23 7.82-3.77 9 0 0-3.12.89-6.33-.53Z" fill="#706F6F"/><path d="M86.64 383.65s18.829 28.92 39.869 29.01c0 0 31.26 1.66 49.13-35.88 0 0-10.86 38.73-49.61 39.32 0 0-29.59-.74-39.4-32.46l.01.01Z" fill="#706F6F"/><path d="M97.72 398.94s9.179-15.65 31.669-15.6c0 0 23.51.55 34.12 13.11 0 0-10.7-16.41-35.66-16.14 0 0-22.55.71-30.13 18.63ZM150.219 313.81s-1.88-17.32 14.53-20.68c0 0 17.38-3.3 24.78 12.57 0 0 2.59 7.22 2.59 8.65 0 0-6.42 10.7-16.13 12.57l1.16 1.69s15.15-4.81 18.1-13.64c0 0-.45-22.64-25.58-24.87 0 0-27.72-2.67-20.5 23.71h1.07-.02ZM104.659 316.58s.26-17.42-16.39-19.24c0 0-17.61-1.67-23.5 14.82 0 0-1.9 7.43-1.77 8.85 0 0 7.38 10.05 17.23 11.01l-1 1.79s-15.54-3.38-19.28-11.9c0 0-1.66-22.58 23.16-27.14 0 0 27.35-5.24 22.62 21.7l-1.07.1v.01ZM241.199 293.58s13.31-14.23 9.75-22.5c0 0-3.09-4.48-15.69.64 0 0-20.8 11.17-26.39 22.58 0 0-5.35 7.73-1.55 17.47 0 0 7.37 18.9 16.16 5.7 0 0-6.42 7.59-12.84-7.49 0 0-5.59-10.63 11.41-25.13 0 0 23.18-21.52 26.98-11.32 0 0 2.85 5.68-7.84 20.06l.01-.01ZM24.89 271.07s-4.46-12.62 2.5-16c0 0 5.7-3.39 11.94 11.05 0 0 6.95 18.03 8.2 23.9 0 0 4.1 12.32-2.67 22.73 0 0-4.46 10.89-8.2 1.34l-4.37-17.98s4.19 19.32 8.38 17.98c0 0 5.97-5.9 5.88-14.99 0 0-1.6-16.85-11.32-35.74 0 0-3.92-8.82-8.02-4.46 0 0-3.48 3.84-2.32 12.17ZM140.749 429.04s5.24-18.87 18.91-18.16c0 0 5.7.12 8.68.95 0 0 16.64-7.37 20.44-12.9 0 0 19.73-26.56 35.77-22.76 0 0-20.56-4.52-36.84 18.9 0 0-9.86 11.65-20.2 13.43 0 0-20.03-4.93-27.87 13.07 0 0-2.32 4.75-2.32 10.58l3.43-3.12v.01ZM218.739 371.8s7.73-12.74 3.8-31.99c0 0 5.82-23.69 22.58-43.1l-4.51 12.61s-10.03 12.23-13.67 29.75c0 0 2.73 18.57-8.2 32.73ZM153.059 450.37s-5.7-14.98 7.05-23.98c0 0-16.49 4.19-10.16 23.62l3.11.36ZM171.169 432.16s-13.09 11.74-2.04 21.92l-3.4 2.27s-13.28-13.34 5.44-24.19ZM25.72 386.46s26.27-9.93 37.91 6c0 0 9.39 12.36 18.07 14.5 0 0 15.57-1.47 19.609 17.39l4.04 5.19s.71-17.73-11.77-23.07c0 0-4.65-2.91-11.05-2.49 0 0-10.58-3.68-15.33-11.4 0 0-10.58-21.63-41.48-6.12ZM84.669 423.84s14.14 2.87 16.34 14.03l2.56-1.67s-2.14-14.26-18.9-12.36ZM73.38 432.16s19.97 5.23 13.91 22.82l3.12-.71s7.34-18.18-17.03-22.11Z" fill="#706F6F"/><path d="M29.04 297.66s9.15 24.26 0 47.08c0 0-3.76 12.66-5.56 14.26 0 0-3.23 5.17 1.41 8.65 0 0 20.86 9.54 23.35 14.35l-6.4 1.42s-4.83-7.84-21.76-12.47c0 0-4.99-1.96-1.07-9.63 0 0 18.36-31.56 8.38-60.08l1.66-3.58h-.01ZM97.149 244.25s-2.97-7.96-7.49-18.07c0 0-7.49-16.05-2.73-21.75 0 0 4.52-5.47 19.02 3.33l7.46 5.32 3.39-.71s-13.55-13.77-26.56-11.99c0 0-14.23-.58-6.88 19.84 0 0 11.33 18.77 12.05 26.91l1.75-2.88h-.01Z" fill="#706F6F"/><path d="M109.749 214.51s22.82-6.95 43.95 0c0 0-20.86-12.21-43.95 0ZM109.749 207.34s-5.35-9.59 5.79-14.49c0 0 12.57-3.25 16.18 7.25l1.2-.83s-2.5-12.21-17.65-9.63c0 0-14.87 4.01-6.81 18.01l1.28-.31h.01Z" fill="#706F6F"/><path d="M133.459 210.32s-7.4-7.49 0-15.06c0 0 7.49-6.77 17.2-2.5 0 0 11.14 6.15 7.4 14.89 0 0-1.91 5.02-9.87 5.36l-2.34-1.53s7.58 1.25 10.25-6.24c0 0 .98-8.11-9-11.05 0 0-14.53-2.14-14.17 8.82 0 0-.12 5.11 4.64 7.31 0 0-1.52.62-4.1 0h-.01Z" fill="#706F6F"/><path d="M157.459 207.04s9.43-4.48 13.98-7.51c0 0 6.77-3.92 9.89-1.07 0 0 2.59 3.41 0 10.62 0 0-11.32 27.62-6.69 36 0 0 1.34 2.04 2.5 2.89 0 0-3.65-5.83 0-16.79 0 0 5.13-15.64 6.83-19.39 0 0 5.14-10.8-.65-16.5 0 0-5.19-3.95-13.49 3.17 0 0-5.62 3.75-12.03 4.46l-.34 4.12Z" fill="#706F6F"/><path d="M167.039 225.71s-5.94-6.12-2.97-11.2c0 0 13.69-18 15.93-13.36 0 0 3.08 3.79-3.7 15.32 0 0 5.24-11.91 1.68-13.7 0 0-1.43-1.31-11.89 12.24 0 0-2.85 3.37 2.05 9.21 0 0 2.67 2.76 5.79-3.74 0 0-1.56 9.67-6.89 5.23ZM25.78 243.63s8.26-6.27 21.22 4.67c0 0 16.2 14.26 27.45 19.61v-7.01s-11.77-5.17-21.87-13.76c0 0-14.27-14.77-26.8-6.69v3.18ZM101.009 273.07s7.04-2.92 15.06.44l-1.78-3.12s-8.29-3.65-13.29 2.67l.01.01ZM74.45 254.72s.27-8.39-3.92-11.69c0 0-4.19-4.01-4.99-8.65 0 0-9.16 5.91-20.15-7.58 0 0-6.86-8.38-9.27-19.16l-2.05 2.94s.62 16.22 17.47 26.03c0 0 5.17 3.57 12.03 1.96 0 0 .53 4.46 4.64 6.95 0 0 4.64 1 6.24 9.19v.01Z" fill="#706F6F"/><path d="M45.33 230.58s-1.59 9.63 2.14 15.45l2.64 2.5s-2.64-8.68-.5-16.16l-4.28-1.78v-.01ZM48.599 180.28s13.6-6.69 20.97 0c0 0 5.7 5.22 1.31 11.07 0 0-2.2 3.17-8.44 3.23 0 0-11.85 2.14-8.18 15.33 0 0 2.72 10.93 13.18 8.2 0 0 .95-7.49 9.63-12.36 0 0 12.84-11.41 17.95-24.72 0 0 1.43-6.54 7.01-9.98 0 0-8.2 2.61-11.89 12.6 0 0-2.79 12-14.82 20.32 0 0-8.71 4.22-9.3 10.55 0 0-7.71.92-9.03-7.46 0 0-1.78-9.03 6.3-9.75 0 0 12.49.12 11.18-11.77 0 0 .65-10.34-11.12-11.29 0 0-9.09-.95-15.39 3.45l.66 2.58h-.02ZM99.05 228.95s1.689-5.27 3.569-7.31c0 0 2.59-1.51 0-5.08 0 0-9.89-14.53-12.48-9.27 0 0-5.44 3.83 4.37 22.02 0 0 2.5 4.1 3.39 4.99 0 0-10.07-19.43-6.69-23.71 0 0 1.6-3.03 5.62 1.6 0 0 5.17 4.74 4.46 8.03 0 0-3.12 5.34-2.23 8.73h-.01Z" fill="#706F6F"/><path d="M68.51 194.79s2.97 10.97 1.31 14.29l1.66-1.44s2.14-7.25 0-14.86l-2.97 2v.01Z" fill="#706F6F"/><path d="M58.76 213.71s3.41-12.35 9.96-18.06h-4.14s-5.35 6.67-6.77 17.36l.95.7ZM108.939 247.13s10.58-11.23 26.15-12.33c0 0 12.72-.39 18.42 10.79 0 0-5.11-14.74-21.39-12.6 0 0-12.02 1.12-23.18 14.14ZM135.239 250.25s-1.25 6.39 2.23 6.58c0 0 3.27.37 7.03-1.32 0 0 8.48-3.97 10.08 1.36 0 0 2.48 10.23-10.79 14.2 0 0-16.58 6.82-27.72-5.13 0 0 11.94 9.54 27.28 3.92 0 0 10.07-3.74 10.16-10.25 0 0 0-4.49-3.38-4.1 0 0-4.19.36-6.15 1.69 0 0-9.27 2.79-9.63-1.69v-5.26h.89Z" fill="#706F6F"/><path d="M134.769 251.03v4.4s.18 3.86-6.18 4.16c0 0-4.75.77-8.38-1.01 0 0-3.92-2.67-5.11 0 0 0-2.53 4.59 4.59 9.6l-.95.2s-6.49-3.5-5-9.14c0 0 1.25-5.88 7.01-2.02 0 0 4.16 2.79 11.05.36 0 0 1.8-.85 1.8-2.63l-.13-4.68 1.31.77-.01-.01ZM141.129 224.82s-.83 1.78.77 2.97c0 0 1.07 1.01 3.09-.24 0 0 3.05-2.39 7.28 2.51 0 0 3.39 5.57 4.84 5.21 0 0 1.37-.53-1.01-4.64 0 0-3.62-9.21-11.35-7.84 0 0-2.2.24-3.62 2.02v.01ZM127.469 225.41s.63 1.86-1.1 2.87c0 0-1.18.88-3.04-.58 0 0-2.76-2.72-7.51 1.69 0 0-3.99 5.16-5.39 4.64 0 0-1.3-.68 1.52-4.49 0 0 4.63-8.75 12.15-6.53 0 0 2.16.48 3.38 2.41l-.01-.01Z" fill="#706F6F"/><path d="M119.689 268.18s2.63-7.38 14.4-8.86c0 0 15.84-1.78 17.41 7.46 0 0-2.76-6.89-16.73-5.82 0 0-7.82.28-15.08 7.23v-.01ZM96.56 127.6s.89 8.82 5.469 16.22c0 0-1.13 19.49 14.77 27.81 0 0-12.39-2.26-15.48-16.05 0 0-1.2-4.75-.84-10.7 0 0-6.77-7.49-6.29-23.41l2.38 6.12-.01.01Z" fill="#706F6F"/><path d="M106.069 163.37s-6.25 6.18-3.39 20.38c0 0-6.36-12.6 1.9-22.7l1.49 2.32ZM189.079 267.9s6.06.18 12.12-1.6c0 0 8.38-4.36 21.75-2.62 0 0 16.94-1.5 25.49-6.84l2.23-5.51h-1.89s-2.92 4.81-17.98 7.4c0 0-4.81 1.25-13.19.89 0 0-8.11-.72-15.24 2.94 0 0-5.74 4.01-17.45 1.78l4.16 3.57v-.01Z" fill="#706F6F"/><path d="M180.689 225.71s9.29 19.54 1.44 35.92l3.15 3.66s6.68-26.39-4.59-39.58ZM209.819 222.15s-2.73 8.4-4.99 10.02c0 0-1.66 2.06 0 7.79 0 0 3.92 18.32 3.57 22.36l3.09-.69s-.53-10.13-5.02-23.56c0 0-.98-3.21 0-4.75 0 0 4.66-5.94 3.36-11.17h-.01Z" fill="#706F6F"/><path d="M216.599 235.3s-8.12 5.38-8.2 14.96l1.66 7.95s.12-13.2 6.54-22.91ZM224.369 211.8s10.05 24.14 5.66 48.5h4.75s3.68-24.72-7.84-49.2l-2.57.7Z" fill="#706F6F"/><path d="M242.209 234.06s.36 5.4-3.74 5.9c0 0-6.33 2.28-6.69-8.15l-.53-7.4s6.51 3.03 6.15 10.07c0 0 2.5 3.27 4.81-.42ZM97.8 127.51s-2.14-6.42 3.299-4.81c0 0 9.45 6.15 12.57 5.26 0 0-3.73 1.76-10.46-1.52 0 0-5.16-4.29-5.4 1.07h-.01ZM109.749 140.97s5.29-12.18 23.65-12.3c0 0 12.18-.89 17.83 9.51 0 0-4.81-11.89-20.32-10.99 0 0-17.29.95-21.16 13.79v-.01Z" fill="#706F6F"/><path d="M131.889 139.1s-1.88 11.03 3.89 11.98c0 0 4.75.48 6.18 2.14 0 0-3.62-.89-7.67-.89 0 0-3.8.3-3.8-5.76l.74-8.44.66.98v-.01Z" fill="#706F6F"/><path d="M131.229 145.66s.75 5.94-4.72 6.42c0 0-2.97.3-5.65-.24 0 0-8.02.12-7.19 4.58 0 0 3.68 9.98 13.67 11.71 0 0 8.56.36 12.66-4.52l.3 1.55s-11.17 10.87-21.63.89c0 0-11.41-10.28-5.35-13.73 0 0 4.04-3.27 10.7-1.72 0 0 4.81.11 5.82-4.04l.26-8.2 1.75 1.02-.62 6.29v-.01Z" fill="#706F6F"/><path d="M115.569 161.06s2.72-6.66 13.81-7.07c0 0 6.93.24 9.9 3.54 0 0-4.34-5.26-11.47-4.84 0 0-11.65.65-12.24 8.38v-.01ZM115.989 124.75s2.84-2.97 9.09-3.83l-1.36-2.11-5.17 1.31s-2.73 1.25-2.56 4.64v-.01ZM141.959 122.71s8.8 3.76 11.11 8.51c0 0-2.2-5.88-8.5-10.34l-2.61 1.83ZM177.389 128.55s-11.22-5.4-16.3-1.88c0 0-3.21 3.73-2.56 14.31l-4.04 1.92-3.62-.95 5.97-1.95c-.25-1.89-2.25-14.15 4.31-16.19 6.59-2.05 15.18.95 15.18.95l1.06 3.8v-.01Z" fill="#706F6F"/><path d="M154.019 142.81s5.94-2.79 14.02.77c0 0 6.77 2.26 10.04 6.18 0 0-11.11-13.43-20.92-10.1l-3.15 3.15h.01ZM143.529 152.65s-6.51 4.72 3.48 21.39c0 0 10.47 17.65 24.18 13.46 0 0-12.35 5.7-23.67-8.11 0 0-17.03-21.84-4.34-28.44l.36 1.7h-.01Z" fill="#706F6F"/><path d="M141.959 163.14s4.17 5.76 8.92.18c0 0 8.91 3.8 16.46-.18 0 0 9.09-6.83 10.76-1.23 0 0 .77 8.42-4.34 12.53 0 0-15.05 9.82-27.02-.85l-1.68-2.35s13.49 10.87 27.75 1.19c0 0 4.88-6.77 2.26-9.86 0 0-3-1.49-6.89 2.56 0 0-8.56 4.4-16.64-.48 0 0-5.29 7.07-9.57-1.49l-.01-.02Z" fill="#706F6F"/><path d="M149.449 174.84s-1.02-6.66 7.73-8.85c0 0-7.9.06-10.1 7.13l2.38 1.72h-.01ZM173.219 172.58s-.22-5.9-8.2-6.83c0 0 7.61-1.25 10.04 4.51l-1.84 2.32ZM149.739 154.7s-1.64 7.78 4.17 9.57h-3.04s-6-2.56-1.13-9.57ZM188.729 146.14s-1.93-6.88-11.33-7.78c0 0-2.04-.33-2.35 1.59 0 0-.29 2.32 3.09 1.92 0 0 6.99-.89 10.6 4.28l-.01-.01ZM160.039 140.38s14.42-12 28.09-9.92l-8.2-2.32s-11.83 1.49-19.89 12.24Z" fill="#706F6F"/><path d="M163.829 140.14s5.29.24 5.23-1.31c0 0-.94-3.29-6.66.66l1.43.65ZM171.189 132.23s-2.9-5.29-9.38-4.46c0 0 7.49 1.68 7.01 6.28l2.37-1.82ZM204.239 155.29s1.96-4.99-3.45-10.46c0 0-2.14-3.03 0-4.22 0 0 6.6-3.51 9.81-5.82 0 0 4.52-5.81 7.73-1.81 0 0 2.5 3.39 0 9.25 0 0 2.2-6.48-2.2-8.18 0 0-2.97.02-4.52 2.4 0 0-3.86 3.62-6.72 4.52 0 0-1.96.83-1.01 2.46 0 0 3.39 7.22.36 11.86ZM182.579 182.87s12.66-1.99 17.83-13.74c0 0-7.49 9.11-17.83 13.74ZM206.259 184.59l-4.69 6.3s5.44-1.25 7.93-6.69l-3.24.39ZM150.869 182.87s4.99 3.35 4.45 14.14l1.84 3.74s2.32-9.86-.59-15.15l-5.7-2.73ZM42.45 165.48s1.96 1.78 4.99.89c0 0 10.16-2.88 9.63 4.66 0 0-2.49-4.29-7.3-2.78 0 0-3.93 2.39-7.32-2.78v.01ZM73.47 184.29s12.66 7.04 16.76 1.25l-.36 1.69s-5.26 6.22-16.4.88v-3.82ZM91.86 123.86s-1.96-3.27-3.21.42c0 0-2.5 10.36 3.51 10.58 0 0-3.33-1.31-2.61-7.37 0 0 .42-5.11 2.32-3.62l-.01-.01ZM71.43 169.03s5.1 6.93 10.42 1.23c0 0 5.91-11.29 11.2-8.91 0 0 4.58 3.09 3.03 10.28 0 0-3.57 11.59-16.22 10.1 0 0-6.54-.83-7.49-4.1 0 0 7.96 8.44 19.25-2.2 0 0 6.36-7.73.53-11.71 0 0-2.91-.77-5.05 1.75 0 0-4.16 9.3-10.64 8.05 0 0-3.92-.71-6.18-4.93l1.14.43.01.01Z" fill="#706F6F"/><path d="M70.53 177.81s4.49.18 4.75-2.35c0 0 .56-1.99-1.49-4.02l-2.78-2.57-.93.5s4.01 2.82 3.77 5.11c0 0-.89 2.59-5.47 1.55l2.14 1.78h.01ZM77.12 180.68s-.85-4.86 4.95-7.71c0 0 7.58-4.5 11.54 1.2 0 0-6.06-3.74-12.26.27 0 0-3.79 2.32-4.23 6.24ZM72.62 148.41s.18 1.87 1.78 1.96c0 0 2.41.27 3.03-2.36 0 0 1.43-3.79 7.18-2.41 0 0 1.16-.04-.62-1.03 0 0-7-2.23-10.03 1.16 0 0-1.4.82-1.34 2.67v.01ZM58.89 164.36s-.31-3.74 3.12-4.32c0 0 2.67.4 2.18-1.69 0 0-1.25-1.83-3.39-.27 0 0-3.16 2.14-2.63 5.66 0 0 0 1.55.71.62h.01ZM147.069 177.16s1.51 5.44-5.65 8.91c0 0 5.86-.09 8.18-6.24l-2.53-2.67Z" fill="#706F6F"/><path d="M118.829 240.95s4.47 10.09 15.17 10.08c0 0 8.07-.48 12.36-8.8 0 0 2.61-4.22-2.97-7.93 0 0-12-6.21-22.94 2.59 0 0-2.2 2.48-1.62 4.07v-.01ZM121.929 136.69s5.88 4.04 10.58 2.2c0 0 6.08-3.38 7.07-6.89.77-2.73-2.73-4.81-5.23-5.11 0 0-9.15-1.78-12.72 4.75 0 0-2.73 3.45.3 5.05ZM141.479 149.47s1.31 8.32 9.75 6.06c0 0 9.45-1.6 9.09-7.37 0 0-1.07-6.36-10.99-6.6 0 0-8.74-.06-7.84 7.9l-.01.01ZM65.449 169.81s6.86 1.29 8.29-2.63c0 0 3.12-9-.89-9.18 0 0-6.94-.11-9.58 6.01 0 0-2.01 3.8 2.18 5.81v-.01Z" fill="#3C3C3B"/><path opacity=".23" d="M127.699 311.56s-12 .44-17.83 10.54c0 0-1.43 3.38 2.61 4.84 0 0 5.22 1.94 6.18-4.13 0 0 1.19-7.53 9.04-11.25ZM131.719 234.06s-9.32.97-8.33 5.37c0 0 .45 2.71 3.21 1.37 0 0 .95-.62.92-2.32-.03-1.7-.14-2.67 4.2-4.43v.01ZM151.529 142.89s-6.4-1.71-8.14 2.78c0 0-.77 2.88 1.13 3.08 0 0 1.49.43 1.84-1.06 0 0-.12-4.66 5.17-4.8ZM128.769 127.69s-5.05.9-5.94 4.95c0 0-.3 1.84 1.9 1.28 0 0 1.72-.76 1.43-1.7 0 0-.78-3.52 2.61-4.53ZM66.9 161.06s-4.1 3.18-1.84 6.06c0 0 1.55.9 1.84-.68 0 0-1.71-2.75 0-5.38Z" fill="#fff"/><path d="M97.945 21.1c.238-.034.505-.062.8-.085a24.36 24.36 0 0 1 1.852-.068c.306-.011.578-.017.816-.017 1.054 0 1.955.147 2.703.442.748.295 1.355.708 1.819 1.241a4.968 4.968 0 0 1 1.02 1.904c.216.737.323 1.547.323 2.431 0 .805-.102 1.581-.306 2.329a5.27 5.27 0 0 1-1.02 1.989c-.476.578-1.105 1.043-1.887 1.394-.77.351-1.728.527-2.873.527-.181 0-.425-.006-.731-.017a30.748 30.748 0 0 1-.935-.051 22.294 22.294 0 0 1-.918-.051 6.33 6.33 0 0 1-.663-.051V21.1Zm3.655 1.904c-.249 0-.504.006-.765.017a4.564 4.564 0 0 0-.561.051v7.973c.046.011.119.023.221.034.114 0 .233.006.357.017.125 0 .244.006.357.017h.255c.658 0 1.202-.113 1.632-.34.442-.238.788-.55 1.037-.935.261-.385.442-.827.544-1.326.102-.51.153-1.031.153-1.564 0-.465-.045-.93-.136-1.394a3.405 3.405 0 0 0-.51-1.275 2.747 2.747 0 0 0-.986-.918c-.419-.238-.952-.357-1.598-.357Zm6.893 5.746c0-1.44.351-2.544 1.054-3.315.703-.782 1.689-1.173 2.958-1.173.68 0 1.269.108 1.768.323.499.215.912.521 1.241.918.329.385.572.856.731 1.411.17.555.255 1.167.255 1.836 0 1.44-.351 2.55-1.054 3.332-.691.77-1.672 1.156-2.941 1.156-.68 0-1.269-.108-1.768-.323a3.5 3.5 0 0 1-1.258-.901 4.076 4.076 0 0 1-.748-1.428 6.656 6.656 0 0 1-.238-1.836Zm2.278 0c0 .374.034.72.102 1.037.068.317.17.595.306.833.136.238.312.425.527.561.227.125.493.187.799.187.578 0 1.009-.21 1.292-.629.283-.42.425-1.082.425-1.989 0-.782-.13-1.411-.391-1.887-.261-.487-.703-.731-1.326-.731-.544 0-.969.204-1.275.612-.306.408-.459 1.077-.459 2.006ZM123.234 33v-4.828c0-.691-.102-1.19-.306-1.496-.193-.306-.527-.459-1.003-.459-.419 0-.776.125-1.071.374a2.007 2.007 0 0 0-.612.901V33h-2.21v-8.5h1.751l.255 1.122h.068c.261-.363.606-.68 1.037-.952.431-.272.986-.408 1.666-.408.419 0 .793.057 1.122.17.329.113.606.3.833.561.227.26.397.618.51 1.071.113.442.17.992.17 1.649V33h-2.21Zm4.011-8.007a6.98 6.98 0 0 1 1.615-.476 9.945 9.945 0 0 1 1.955-.187c.589 0 1.082.074 1.479.221.396.136.708.334.935.595.238.26.402.572.493.935.102.363.153.77.153 1.224 0 .499-.017 1.003-.051 1.513-.034.499-.057.992-.068 1.479 0 .487.017.963.051 1.428.034.453.119.884.255 1.292h-1.802l-.357-1.173h-.085a3.086 3.086 0 0 1-.952.918c-.397.25-.913.374-1.547.374-.397 0-.754-.057-1.071-.17a2.48 2.48 0 0 1-.816-.51 2.425 2.425 0 0 1-.527-.782 2.674 2.674 0 0 1-.187-1.02c0-.521.113-.958.34-1.309a2.507 2.507 0 0 1 1.003-.867c.442-.227.963-.38 1.564-.459.612-.09 1.292-.119 2.04-.085.079-.635.034-1.088-.136-1.36-.17-.283-.55-.425-1.139-.425-.442 0-.913.045-1.411.136-.488.09-.89.21-1.207.357l-.527-1.649Zm2.805 6.324c.442 0 .793-.096 1.054-.289.26-.204.453-.42.578-.646v-1.105a6.17 6.17 0 0 0-1.02-.017 3.664 3.664 0 0 0-.85.153c-.25.08-.448.193-.595.34a.757.757 0 0 0-.221.561c0 .317.09.567.272.748.192.17.453.255.782.255Zm11.697 1.156c-.34.25-.753.436-1.241.561a5.357 5.357 0 0 1-1.479.204c-.68 0-1.258-.108-1.734-.323a2.996 2.996 0 0 1-1.139-.901 3.945 3.945 0 0 1-.646-1.428 8.43 8.43 0 0 1-.187-1.836c0-1.44.323-2.544.969-3.315.646-.782 1.587-1.173 2.822-1.173.624 0 1.122.051 1.496.153.386.102.731.232 1.037.391l-.527 1.802a4.337 4.337 0 0 0-.782-.289 3.306 3.306 0 0 0-.867-.102c-.612 0-1.076.204-1.394.612-.317.397-.476 1.037-.476 1.921 0 .363.04.697.119 1.003.08.306.199.572.357.799.159.227.363.408.612.544.261.125.561.187.901.187.374 0 .692-.045.952-.136a3.64 3.64 0 0 0 .697-.357l.51 1.683Zm1.524-7.973h2.21V33h-2.21v-8.5Zm-.323-2.397c0-.329.119-.606.357-.833.249-.238.589-.357 1.02-.357.43 0 .776.119 1.037.357.272.227.408.504.408.833 0 .329-.136.606-.408.833-.261.215-.607.323-1.037.323-.431 0-.771-.108-1.02-.323a1.106 1.106 0 0 1-.357-.833Zm4.293 6.647c0-1.44.352-2.544 1.054-3.315.703-.782 1.689-1.173 2.958-1.173.68 0 1.27.108 1.768.323.499.215.913.521 1.241.918.329.385.573.856.731 1.411.17.555.255 1.167.255 1.836 0 1.44-.351 2.55-1.054 3.332-.691.77-1.671 1.156-2.941 1.156-.68 0-1.269-.108-1.768-.323a3.51 3.51 0 0 1-1.258-.901 4.092 4.092 0 0 1-.748-1.428 6.694 6.694 0 0 1-.238-1.836Zm2.278 0c0 .374.034.72.102 1.037.068.317.17.595.306.833.136.238.312.425.527.561.227.125.493.187.799.187.578 0 1.009-.21 1.292-.629.284-.42.425-1.082.425-1.989 0-.782-.13-1.411-.391-1.887-.26-.487-.702-.731-1.326-.731-.544 0-.969.204-1.275.612-.306.408-.459 1.077-.459 2.006Zm1.836-7.99h2.244v.51l-1.887 2.108h-1.258l.901-2.618ZM161.982 33v-4.828c0-.691-.102-1.19-.306-1.496-.193-.306-.527-.459-1.003-.459-.419 0-.776.125-1.071.374a2.007 2.007 0 0 0-.612.901V33h-2.21v-8.5h1.751l.255 1.122h.068c.261-.363.606-.68 1.037-.952.431-.272.986-.408 1.666-.408.419 0 .793.057 1.122.17.329.113.606.3.833.561.227.26.397.618.51 1.071.113.442.17.992.17 1.649V33h-2.21ZM80.404 67.956c-.768.552-1.752.948-2.952 1.188a18.14 18.14 0 0 1-3.636.36 13.57 13.57 0 0 1-4.32-.684 9.513 9.513 0 0 1-3.564-2.268c-1.032-1.056-1.86-2.412-2.484-4.068-.6-1.68-.9-3.708-.9-6.084 0-2.472.336-4.536 1.008-6.192.696-1.68 1.584-3.024 2.664-4.032 1.104-1.032 2.328-1.764 3.672-2.196a12.482 12.482 0 0 1 4.032-.684c1.44 0 2.652.096 3.636.288 1.008.192 1.836.42 2.484.684l-.972 4.176c-.552-.264-1.212-.456-1.98-.576-.744-.12-1.656-.18-2.736-.18-1.992 0-3.6.708-4.824 2.124-1.2 1.416-1.8 3.612-1.8 6.588 0 1.296.144 2.484.432 3.564.288 1.056.72 1.968 1.296 2.736a6.55 6.55 0 0 0 2.196 1.764c.888.408 1.908.612 3.06.612 1.08 0 1.992-.108 2.736-.324a8.035 8.035 0 0 0 1.944-.828l1.008 4.032ZM81.176 60c0-3.048.744-5.388 2.232-7.02 1.488-1.656 3.576-2.484 6.264-2.484 1.44 0 2.688.228 3.744.684 1.056.456 1.932 1.104 2.628 1.944.696.816 1.212 1.812 1.548 2.988.36 1.176.54 2.472.54 3.888 0 3.048-.744 5.4-2.232 7.056-1.464 1.632-3.54 2.448-6.228 2.448-1.44 0-2.688-.228-3.744-.684a7.42 7.42 0 0 1-2.664-1.908c-.696-.84-1.224-1.848-1.584-3.024-.336-1.176-.504-2.472-.504-3.888ZM86 60c0 .792.072 1.524.216 2.196.144.672.36 1.26.648 1.764.288.504.66.9 1.116 1.188.48.264 1.044.396 1.692.396 1.224 0 2.136-.444 2.736-1.332.6-.888.9-2.292.9-4.212 0-1.656-.276-2.988-.828-3.996-.552-1.032-1.488-1.548-2.808-1.548-1.152 0-2.052.432-2.7 1.296-.648.864-.972 2.28-.972 4.248Zm26.392 9V58.776c0-1.464-.216-2.52-.648-3.168-.408-.648-1.116-.972-2.124-.972-.888 0-1.644.264-2.268.792a4.24 4.24 0 0 0-1.296 1.908V69h-4.68V51h3.708l.54 2.376h.144c.552-.768 1.284-1.44 2.196-2.016.912-.576 2.088-.864 3.528-.864.888 0 1.68.12 2.376.36s1.284.636 1.764 1.188c.48.552.84 1.308 1.08 2.268.24.936.36 2.1.36 3.492V69h-4.68Zm22.773-9.36-8.28-15.84h5.868l4.608 9.468.504 2.664h.18l.54-2.736 4.464-9.396h5.292l-8.244 15.804V69h-4.932v-9.36Zm12.439-7.596c.96-.432 2.1-.768 3.42-1.008a21.07 21.07 0 0 1 4.14-.396c1.248 0 2.292.156 3.132.468.84.288 1.5.708 1.98 1.26a4.503 4.503 0 0 1 1.044 1.98c.216.768.324 1.632.324 2.592a48.16 48.16 0 0 1-.108 3.204c-.072 1.056-.12 2.1-.144 3.132 0 1.032.036 2.04.108 3.024.072.96.252 1.872.54 2.736h-3.816l-.756-2.484h-.18c-.48.744-1.152 1.392-2.016 1.944-.84.528-1.932.792-3.276.792-.84 0-1.596-.12-2.268-.36a5.279 5.279 0 0 1-1.728-1.08 5.17 5.17 0 0 1-1.116-1.656c-.264-.648-.396-1.368-.396-2.16 0-1.104.24-2.028.72-2.772.504-.768 1.212-1.38 2.124-1.836.936-.48 2.04-.804 3.312-.972 1.296-.192 2.736-.252 4.32-.18.168-1.344.072-2.304-.288-2.88-.36-.6-1.164-.9-2.412-.9-.936 0-1.932.096-2.988.288-1.032.192-1.884.444-2.556.756l-1.116-3.492Zm5.94 13.392c.936 0 1.68-.204 2.232-.612.552-.432.96-.888 1.224-1.368v-2.34a13.07 13.07 0 0 0-2.16-.036 7.772 7.772 0 0 0-1.8.324c-.528.168-.948.408-1.26.72-.312.312-.468.708-.468 1.188 0 .672.192 1.2.576 1.584.408.36.96.54 1.656.54ZM165.572 51h3.42l.54 2.16h.144c.624-.912 1.356-1.584 2.196-2.016.864-.432 1.908-.648 3.132-.648 2.256 0 3.948.72 5.076 2.16 1.128 1.416 1.692 3.708 1.692 6.876 0 1.536-.18 2.928-.54 4.176-.36 1.224-.9 2.268-1.62 3.132a6.813 6.813 0 0 1-2.592 1.98c-1.008.456-2.172.684-3.492.684-.744 0-1.356-.06-1.836-.18a5.73 5.73 0 0 1-1.44-.504v7.38h-4.68V51Zm8.028 3.456c-.912 0-1.632.228-2.16.684-.504.456-.9 1.14-1.188 2.052v7.488c.336.264.696.48 1.08.648.408.144.936.216 1.584.216 1.344 0 2.352-.468 3.024-1.404.672-.96 1.008-2.532 1.008-4.716 0-1.584-.264-2.808-.792-3.672-.528-.864-1.38-1.296-2.556-1.296Zm11.305-2.412c.96-.432 2.1-.768 3.42-1.008a21.07 21.07 0 0 1 4.14-.396c1.248 0 2.292.156 3.132.468.84.288 1.5.708 1.98 1.26a4.503 4.503 0 0 1 1.044 1.98c.216.768.324 1.632.324 2.592a48.16 48.16 0 0 1-.108 3.204c-.072 1.056-.12 2.1-.144 3.132 0 1.032.036 2.04.108 3.024.072.96.252 1.872.54 2.736h-3.816l-.756-2.484h-.18c-.48.744-1.152 1.392-2.016 1.944-.84.528-1.932.792-3.276.792-.84 0-1.596-.12-2.268-.36a5.279 5.279 0 0 1-1.728-1.08 5.17 5.17 0 0 1-1.116-1.656c-.264-.648-.396-1.368-.396-2.16 0-1.104.24-2.028.72-2.772.504-.768 1.212-1.38 2.124-1.836.936-.48 2.04-.804 3.312-.972 1.296-.192 2.736-.252 4.32-.18.168-1.344.072-2.304-.288-2.88-.36-.6-1.164-.9-2.412-.9-.936 0-1.932.096-2.988.288-1.032.192-1.884.444-2.556.756l-1.116-3.492Zm5.94 13.392c.936 0 1.68-.204 2.232-.612.552-.432.96-.888 1.224-1.368v-2.34a13.07 13.07 0 0 0-2.16-.036 7.772 7.772 0 0 0-1.8.324c-.528.168-.948.408-1.26.72-.312.312-.468.708-.468 1.188 0 .672.192 1.2.576 1.584.408.36.96.54 1.656.54ZM83.385 99.39c-1.14-.04-2.14-.16-3-.36-.86-.2-1.53-.43-2.01-.69l1.17-3.39c.36.22.86.43 1.5.63.66.2 1.44.34 2.34.42v-6.15c-.62-.28-1.24-.59-1.86-.93-.6-.34-1.14-.75-1.62-1.23-.48-.48-.87-1.05-1.17-1.71-.28-.68-.42-1.48-.42-2.4 0-1.72.45-3.05 1.35-3.99.92-.96 2.16-1.58 3.72-1.86V75h3.12v2.61c.88.06 1.65.18 2.31.36.66.18 1.27.39 1.83.63l-1.08 3.33a10.225 10.225 0 0 0-3.06-.84v5.61c.62.28 1.24.6 1.86.96.64.34 1.2.75 1.68 1.23.5.48.9 1.05 1.2 1.71.32.64.48 1.41.48 2.31 0 1.84-.47 3.28-1.41 4.32-.92 1.02-2.19 1.68-3.81 1.98V102h-3.12v-2.61Zm4.44-6.03c0-.64-.26-1.16-.78-1.56-.5-.42-1.11-.8-1.83-1.14V96c.88-.1 1.53-.38 1.95-.84.44-.46.66-1.06.66-1.8Zm-5.61-10.11c0 .6.23 1.1.69 1.5.48.4 1.07.77 1.77 1.11V81c-.94.04-1.59.27-1.95.69-.34.42-.51.94-.51 1.56Zm25.301-.12c0 1.02-.19 2.05-.57 3.09-.36 1.04-.83 2.06-1.41 3.06-.56 1-1.19 1.97-1.89 2.91-.68.92-1.35 1.77-2.01 2.55l-1.59 1.23v.15l2.16-.42h5.76V99h-12.63v-2.01c.48-.5 1.02-1.08 1.62-1.74.6-.68 1.2-1.39 1.8-2.13.62-.76 1.22-1.54 1.8-2.34.58-.8 1.1-1.6 1.56-2.4.46-.82.82-1.61 1.08-2.37.28-.76.42-1.48.42-2.16 0-.82-.24-1.49-.72-2.01-.46-.54-1.2-.81-2.22-.81-.64 0-1.3.14-1.98.42-.66.26-1.22.6-1.68 1.02l-1.56-2.76c.78-.64 1.66-1.15 2.64-1.53 1-.4 2.17-.6 3.51-.6.86 0 1.65.12 2.37.36.72.24 1.34.59 1.86 1.05.52.46.93 1.04 1.23 1.74.3.68.45 1.48.45 2.4Zm3.971 5.34c0-3.68.63-6.41 1.89-8.19 1.26-1.8 3.07-2.7 5.43-2.7 2.52 0 4.37.89 5.55 2.67 1.18 1.76 1.77 4.5 1.77 8.22 0 3.7-.64 6.45-1.92 8.25-1.26 1.8-3.07 2.7-5.43 2.7-2.5 0-4.34-.94-5.52-2.82-1.18-1.9-1.77-4.61-1.77-8.13Zm3.9 0c0 2.44.26 4.33.78 5.67.54 1.32 1.42 1.98 2.64 1.98 1.18 0 2.04-.61 2.58-1.83.56-1.22.84-3.16.84-5.82 0-2.42-.26-4.29-.78-5.61-.52-1.32-1.41-1.98-2.67-1.98-1.2 0-2.07.62-2.61 1.86-.52 1.24-.78 3.15-.78 5.73Zm13.182 8.55c0-.7.22-1.25.66-1.65.44-.42 1.02-.63 1.74-.63.76 0 1.36.21 1.8.63.44.4.66.95.66 1.65s-.22 1.26-.66 1.68c-.44.42-1.04.63-1.8.63-.72 0-1.3-.21-1.74-.63-.44-.42-.66-.98-.66-1.68Zm7.322-8.55c0-3.68.63-6.41 1.89-8.19 1.26-1.8 3.07-2.7 5.43-2.7 2.52 0 4.37.89 5.55 2.67 1.18 1.76 1.77 4.5 1.77 8.22 0 3.7-.64 6.45-1.92 8.25-1.26 1.8-3.07 2.7-5.43 2.7-2.5 0-4.34-.94-5.52-2.82-1.18-1.9-1.77-4.61-1.77-8.13Zm3.9 0c0 2.44.26 4.33.78 5.67.54 1.32 1.42 1.98 2.64 1.98 1.18 0 2.04-.61 2.58-1.83.56-1.22.84-3.16.84-5.82 0-2.42-.26-4.29-.78-5.61-.52-1.32-1.41-1.98-2.67-1.98-1.2 0-2.07.62-2.61 1.86-.52 1.24-.78 3.15-.78 5.73Zm13.122 0c0-3.68.63-6.41 1.89-8.19 1.26-1.8 3.07-2.7 5.43-2.7 2.52 0 4.37.89 5.55 2.67 1.18 1.76 1.77 4.5 1.77 8.22 0 3.7-.64 6.45-1.92 8.25-1.26 1.8-3.07 2.7-5.43 2.7-2.5 0-4.34-.94-5.52-2.82-1.18-1.9-1.77-4.61-1.77-8.13Zm3.9 0c0 2.44.26 4.33.78 5.67.54 1.32 1.42 1.98 2.64 1.98 1.18 0 2.04-.61 2.58-1.83.56-1.22.84-3.16.84-5.82 0-2.42-.26-4.29-.78-5.61-.52-1.32-1.41-1.98-2.67-1.98-1.2 0-2.07.62-2.61 1.86-.52 1.24-.78 3.15-.78 5.73Zm13.121 0c0-3.68.63-6.41 1.89-8.19 1.26-1.8 3.07-2.7 5.43-2.7 2.52 0 4.37.89 5.55 2.67 1.18 1.76 1.77 4.5 1.77 8.22 0 3.7-.64 6.45-1.92 8.25-1.26 1.8-3.07 2.7-5.43 2.7-2.5 0-4.34-.94-5.52-2.82-1.18-1.9-1.77-4.61-1.77-8.13Zm3.9 0c0 2.44.26 4.33.78 5.67.54 1.32 1.42 1.98 2.64 1.98 1.18 0 2.04-.61 2.58-1.83.56-1.22.84-3.16.84-5.82 0-2.42-.26-4.29-.78-5.61-.52-1.32-1.41-1.98-2.67-1.98-1.2 0-2.07.62-2.61 1.86-.52 1.24-.78 3.15-.78 5.73Z" fill="#139BC8"/><defs><linearGradient id="c" x1="131.5" y1="7.07" x2="131.5" y2="373.44" gradientUnits="userSpaceOnUse"><stop stop-color="#BFFFFF"/><stop offset="1" stop-color="#3FD8FF"/></linearGradient><linearGradient id="e" x1="172.279" y1="297.14" x2="172.279" y2="320.37" gradientUnits="userSpaceOnUse"><stop stop-color="#3FFFFF"/><stop offset="1" stop-color="#3FBAFF"/></linearGradient><linearGradient id="g" x1="84.629" y1="300.14" x2="84.629" y2="323.37" gradientUnits="userSpaceOnUse"><stop stop-color="#3FFFFF"/><stop offset="1" stop-color="#3FBAFF"/></linearGradient><clipPath id="a"><rect width="263" height="420" rx="60" fill="#fff"/></clipPath><clipPath id="b"><path fill="#fff" d="M0 0h263v420H0z"/></clipPath></defs></svg>