<svg width="444" height="543" fill="none" xmlns="http://www.w3.org/2000/svg"><mask id="a" style="mask-type:luminance" maskUnits="userSpaceOnUse" x="0" y="0" width="444" height="543"><path d="M444 .614H0v541.562h444V.614Z" fill="#fff"/></mask><g mask="url(#a)"><path d="M173.498 505.474s24.209-26.944 46.898-26.944c22.69 0 45.818 26.944 45.818 26.944s-24.546-22.858-45.126-22.858c-20.579 0-40.247 16.544-47.574 22.858h-.016Z" fill="#B17F4A"/><path d="M320.642 36.776s-11.767-1.064-17.659 3.477c0 0-22.064-23.33-81-23.33-51.355 0-81 23.33-81 23.33-5.892-4.541-17.659-3.477-17.659-3.477-59.375 8.829-124.64 83.988-124.64 83.988v318.161c18.553 45.294 113.076 45.294 113.076 45.294 69.199-1.435 60.286-72.407 60.286-72.407-2.853-53.854-63.849-44.552-63.849-44.552-18.198 3.967-32.818 0-32.818 0-63.849-10.298-63.494-49.262-63.494-49.262 4.997-24.969 26.758-34.963 26.758-34.963C120.42 366.602 206.671 366.939 222 366.939c12.493 0 101.58-.337 183.357-83.904 0 0 21.761 9.994 26.758 34.963 0 0 .354 38.964-63.494 49.262 0 0-14.62 3.967-32.819 0 0 0-60.995-9.319-63.848 44.552 0 0-8.914 70.972 60.286 72.407 0 0 94.523 0 113.077-45.294V120.764S380.05 45.588 320.659 36.759l-.017.017Z" fill="url(#b)"/><mask id="c" style="mask-type:luminance" maskUnits="userSpaceOnUse" x="267" y="183" width="73" height="77"><path d="M273.086 250.571s36.567 28.21 64.777-14.857c0 0 10.838-48.958-32.38-52.689 0 0-54.395-1.587-32.38 67.546h-.017Z" fill="#fff"/></mask><g mask="url(#c)"><path d="M311.176 265.096c16.721-2.726 27.425-22.422 23.908-43.992-3.517-21.57-19.922-36.846-36.643-34.12-16.72 2.726-27.424 22.422-23.907 43.992 3.516 21.57 19.922 36.847 36.642 34.12Z" fill="url(#d)"/></g><mask id="e" style="mask-type:luminance" maskUnits="userSpaceOnUse" x="106" y="183" width="72" height="77"><path d="M172.08 250.571s-36.567 28.21-64.777-14.857c0 0-10.838-48.958 32.38-52.689 0 0 54.394-1.587 32.38 67.546h.017Z" fill="#fff"/></mask><g mask="url(#e)"><path d="M170.604 230.96c3.517-21.57-7.187-41.266-23.908-43.992-16.72-2.726-33.126 12.55-36.642 34.12-3.517 21.57 7.187 41.266 23.907 43.992 16.721 2.726 33.126-12.55 36.643-34.12Z" fill="url(#f)"/></g><path d="M157.898 337.885s5.994-19.364 29.139-24.141c0 0 46.274 14.4 79.127-8.205 0 0 33.257.523 40.28 27.585v2.28s-52.419 34.068-112.975 16.308c0 0-32.059-7.445-35.571-13.844v.017ZM245.855 258.269s-11.379-3.933-23.433-4.254v-.034H220.937v.034c-12.071.321-23.433 4.254-23.433 4.254-5.554 2.145-3.714 7.665-3.714 7.665 1.148 2.684 4.018 6.027 5.521 8.12 2.853-2.498 4.912-1.958 4.912-1.958 2.938 1.03 2.347 3.326 2.009 8.255 5.977 5.791 12.004 7.293 14.722 7.682v.135s.27 0 .742-.051c.473.051.743.051.743.051v-.135c2.718-.389 8.728-1.891 14.722-7.682-.338-4.912-.929-7.225 2.008-8.255 0 0 2.043-.54 4.913 1.958 1.52-2.093 4.373-5.419 5.521-8.12 0 0 1.84-5.52-3.714-7.665h-.034Z" fill="#F98CC0"/><path d="M213.002 487.242s6.702 1.367 5.571-33.883c0 0 0-44.906-6.482-51.271 0 0-1.03-1.367-3.073 1.132 0 0-4.085 5.351-11.936 3.072 0 0-5.351-.118-5.571 2.954 0 0-6.702-20.917 11.818-20.343 0 0 10.23-.793 13.522 14.772 0 0 3.208-12.611 1.84-16.932 0 0-2.059-7.614-.354-12.51 0 0-.338 7.732 2.043 11.362 0 0 3.866 9.319 0 18.536 0 0-3.073 4.541-.338 16.713 0 0 3.191 12.73 1.249 22.623 0 0 2.955-7.277 5.791-12.172 0 0 10.011-22.741 29.898-13.422 0 0 10.686 5.453 9.201 19.786 0 0-.794-3.984-4.997-1.823 0 0-8.644 7.057-16.258-1.368 0 0-9.319-9.437-18.182 4.086 0 0-3.866 4.541-3.748 27.518 0 0-.118 17.506 6.601 22.959 0 0-9.741 11.767-16.595-1.823v.034Z" fill="url(#g)"/><path d="M191.528 409.246s2.043-12.391 14.148-12.391c0 0-11.649-4.997-14.148 12.391ZM216.817 404.3s-.624-5.166-6.938-6.77c0 0 6.938-.337 6.938 6.77ZM266.215 437.659s-.541-11.142-14.857-12.763c0 0 11.058 2.245 14.857 12.763ZM224.921 439.06s3.731-13.843 16.883-13.387c0 0-10.738 1.029-16.883 13.387Z" fill="#8EAD0B" style="mix-blend-mode:multiply"/><path d="M-4 149.464s52.013-28.092 54.056 3.917c0 0-.203 5.132-1.705 12.07 0 0-7.8 22.521-7.175 37.968l-1.283.979s-34.575-7.833-45.666 1.874l1.79-56.825-.018.017ZM447.09 149.464s-52.014-28.092-54.057 3.917c0 0 .203 5.132 1.705 12.07 0 0 7.8 22.521 7.175 37.968l1.283.979s34.575-7.833 45.666 1.874l-1.789-56.825.017.017Z" fill="#FFC0DB"/><path d="M141.152 38.802s-27.265 15.7-42.138 60.252c0 0-5.672 11.159-13.117-.304 0 0-17.49-34.558 5.435-54.698 0 0 36.652-15.346 49.82-5.25ZM302.73 38.11s23.973 16.392 38.846 60.944c0 0 5.673 11.159 13.118-.304 0 0 17.49-34.558-5.436-54.698 0 0-33.343-16.021-46.528-5.943Z" fill="#9E9E9E" style="mix-blend-mode:multiply" opacity=".1"/><path d="M44.18 138.068s22.2 4.761 16.832 34.119c0 0-23.737 120.674 89.559 173.143 0 0 61.992 34.22 149.222 9.674 0 0-90.843 37.748-188.793-14.671 0 0-50.14-30.118-74.45-56.15 0 0-31.705 26.286-19.955 47.034 0 0-31.637-34.642-10.146-92.075 0 0 7.158-17.879-7.783-22.791v-12.645s33.46-7.563 44.383 4.018c0 0-3.174-17.861 5.656-48.148 0 0 4.237-16.375-4.542-21.491l.017-.017Z" fill="#9E9E9E" style="mix-blend-mode:multiply" opacity=".41"/><path d="M-4.001 172.17s48.266-26.437 48.654 4.491c0 0 10.872-25.357.963-36.212 0 0-19.364-10.906-48.503 9.032L-4 172.187v-.017ZM447.039 172.17s-48.266-26.437-48.654 4.491c0 0-10.872-25.357-.963-36.212 0 0 19.364-10.906 48.503 9.032l1.114 22.706v-.017Z" fill="#FFC0DB" style="mix-blend-mode:multiply"/><path d="M-2.717 404.3s31.096 59.391 115.794 56.909c0 0 32.616-3.106 35.655-15.7 0 0 5.959-12.594-9.977-20.157 0 0 37.225-4.322 19.144-48.334 0 0 31.772 24.412 8.542 79.599 0 0-11.446 35.064-69.706 28.852 0 0-82.435-1.857-99.47-45.548v-35.638l.018.017ZM446.921 404.3s-31.097 59.391-115.795 56.909c0 0-32.616-3.106-35.655-15.7 0 0-5.959-12.594 9.978-20.157 0 0-37.226-4.322-19.145-48.334 0 0-31.772 24.412-8.542 79.599 0 0 11.446 35.064 69.706 28.852 0 0 82.436-1.857 99.47-45.548v-35.638l-.017.017ZM444.591 216.334v-12.645s-33.46-7.563-44.383 4.018c0 0 3.174-17.861-5.656-48.148 0 0-4.237-16.375 4.542-21.491 0 0-19.432 4.17-17.541 28.751.068.371 23.736 129.047-43.741 170.07 13.708-8.61 49.498-31.941 68.895-52.706 0 0 31.705 26.286 19.955 47.034 0 0 31.637-34.642 10.146-92.075 0 0-7.158-17.878 7.783-22.791v-.017ZM168.011 360.524a240.487 240.487 0 0 1-24.53-5.537s9.302 3.866 25.137 7.394a255.93 255.93 0 0 0-.607-1.857Z" fill="#9E9E9E" style="mix-blend-mode:multiply" opacity=".41"/><path d="M206.198 280.334s12.341 10.231 26.387-3.309c0 0 15.717-11.885 10.079-19.735 0 0 9.319 1.79 6.904 8.644 0 0-2.65 5.453-5.52 8.12 0 0-4.643-4.761-7.006.405 0 0-.422 3.512.101 5.892 0 0-10.197 9.842-18.57 7.192 0 0-6.196-1.3-12.358-7.192l-.017-.017ZM177.313 345.938s4.44-29.392 32.819-27.011c0 0 20.461 2.684 35.723-3.123 0 0 30.826-4.913 44.062 26.251 0 0 5.892-.861 14.35-6.753 0 0-2.482-23.044-36.432-29.037 0 0-31.738 22.065-81.625 8.492 0 0-21.997 7.006-24.074 23.854 0 0-1.705 1.705 15.177 7.344v-.017Z" fill="#FFC0DB" style="mix-blend-mode:multiply"/><path d="M234.966 368.138s-82.74 8.644-163.943-36.938c0 0-21.069 15.312 0 31.198l1.233 2.566s-57.18-5.706-59.425-45.463c0 0-1.452-16.309 23.719-35.318 0 0 93.662 95.215 198.399 83.972l.017-.017Z" fill="#9E9E9E" style="mix-blend-mode:multiply" opacity=".62"/><path d="M208.393 368.138s82.739 8.644 163.942-36.938c0 0 21.069 15.312 0 31.198l-1.232 2.566s57.179-5.706 59.425-45.463c0 0 1.451-16.309-23.72-35.318 0 0-93.662 95.215-198.399 83.972l-.016-.017Z" fill="#9E9E9E" style="mix-blend-mode:multiply" opacity=".62"/><path style="mix-blend-mode:multiply" d="M191.663 408.605s6.382-12.713 18.891-8.644c0 0 3.782.827 4.558 9.285 0 0-1.654-7.935-4.018-7.58 0 0-1.401.236-2.464 1.992 0 0-4.052 4.93-11.565 2.617 0 0-3.849-.152-5.402 2.33Z" fill="url(#h)"/><path style="mix-blend-mode:multiply" d="M260.035 420.118c2.499 1.925.946 3.866.946 3.866-.777.388-1.081 1.688-1.081 1.688.017.541.102 1.013.203 1.469-5.436-4.018-16.713-8.627-31.755 5.234 0 0 16.19-13.185 30.978-1.925-2.363.844-3.444 4.237-3.444 4.237-2.009 3.799-13.556-2.312-13.556-2.312 1.401 1.097 2.954 2.448 2.954 2.448 5.892 6.887 14.046 2.228 14.046 2.228 5.808-4.373 6.905.608 6.905.608.878-12.527-6.179-17.541-6.179-17.541h-.017Z" fill="url(#i)"/><path style="mix-blend-mode:multiply" d="M214.488 489.723s8.491 3.36 9.285-3.494c0 0 .726.287-.726-18.402 0 0-.068 15.565 6.55 21.221 0 0-3.072 4.44-9.066 4.71 0 0-2.971.304-6.06-4.035h.017Z" fill="url(#j)"/><path d="M307.947 254.049s33.207-12.425 24.53-47.76c0 0-1.52-20.208-27.923-29.628 0 0 31.654-1.063 44.45 26.775 0 0 6.939 34.963-41.057 50.613ZM111.22 239.361s29.29 16.595 53.094.693c0 0 18.587-9.91 10.332-50.934 0 0 28.716 39.758-10.129 66.566 0 0-32.634 13.658-53.297-16.325Z" fill="#9E9E9E" style="mix-blend-mode:multiply" opacity=".23"/><path opacity=".72" d="M289.596 225.619c11.226 0 20.326-9.1 20.326-20.326s-9.1-20.326-20.326-20.326-20.326 9.1-20.326 20.326 9.1 20.326 20.326 20.326ZM131.343 225.619c11.226 0 20.326-9.1 20.326-20.326s-9.1-20.326-20.326-20.326-20.326 9.1-20.326 20.326 9.1 20.326 20.326 20.326Z" fill="#fff"/><path d="M224.583 255.703s-31.299-.472-23.702 10.383c0 0 4.035 4.963 6.668 0 0 0 .777-2.229 2.009-4.44 0 0 0-4.542 15.025-5.943Z" fill="#FFC0DB"/><path d="M204.055 345.516c8.424 3.461 27.18 8.323 52.081-2.211.996-.422.523-1.942-.54-1.705-10.265 2.312-28.227 4.878-51.103 2.194-1.046-.118-1.418 1.317-.455 1.705l.017.017Z" fill="#F9D4E5"/><path opacity=".52" d="M236.282 421.891s9.589-10.535 22.504-1.165c0 0-11.497-5.419-22.504 1.165ZM192.625 396.179s4.424-10.365 15.836-4.473c0 0-8.593-2.516-15.836 4.473Z" fill="#FFFFC1"/><path d="M85.897 193.526c4.81 38.255 31.569 57.788 31.569 57.788 39.589 25.678 59.037-4.643 59.037-4.643 14.974-18.992 8.12-45.919 8.12-45.919-6.955-27.282-39.318-29.696-39.318-29.696-27.282-.81-43.607 19.533-43.607 19.533-8.289 7.766-15.785 2.937-15.785 2.937h-.016Zm23.719-4.997s32.464-23.905 58.851-3.916c0 0 26.623 19.313 4.508 58.547 0 0-8.965 20.106-37.681 10.652 0 0-15.515-4.288-24.074-14.451 0 0-11.244-11.412-11.953-29.78 0 0-2.853-9.268 10.349-21.052ZM344.716 209.581c-.709 18.368-11.953 29.78-11.953 29.78-8.559 10.163-24.073 14.451-24.073 14.451-28.717 9.454-37.681-10.652-37.681-10.652-22.116-39.234 4.507-58.548 4.507-58.548 26.387-19.971 58.851 3.917 58.851 3.917 13.202 11.767 10.349 21.052 10.349 21.052Zm-2.414-18.992s-16.325-20.326-43.607-19.533c0 0-32.363 2.414-39.318 29.696 0 0-6.871 26.927 8.12 45.919 0 0 19.431 30.32 59.037 4.643 0 0 26.758-19.533 31.57-57.788 0 0-7.496 4.812-15.785-2.937h-.017Z" fill="#575756"/><path d="M266.214 505.475s5.183 15.953-47.608 11.733c0 0 32.228-1.233 26.657-16.427 0 0-3.477-14.839-19.06-18.131 0 0 17.17-2.212 40.011 22.841v-.016Z" fill="#B17F4A" style="mix-blend-mode:multiply" opacity=".48"/><path d="M157.899 337.886s-1.908-16.309 29.139-24.142c0 0-16.376-3.95-17.609-6.584 0 0-20.14-7.597-23.55 10.838 0 0 .051 15.751 12.037 19.888h-.017ZM267.835 306.248s23.686-.354 35.773 17.777l4.339 10.315s16.342-6.905 18.773-17.439c0 0 8.171-15.734-8.559-28.092 0 0-6.973-2.6-16.123-.658 0 0 5.369 21.761-7.698 24.563 0 0-3.309-.135-5.943-4.946 0 0-4.727-7.445-11.749-9.302l-8.847 7.782h.034Z" fill="#1D1D1B"/><path d="M308.201 288.151c6.196 0 11.75 2.296 15.295 8.643 0 0 9.099 16.579-3.208 27.822 0 0-37.292 30.371-91.231 30.371-18.806 0-39.656-3.697-61.636-13.657 0 0-25.813-10.299-18.588-27.957 0 0 4.12-6.601 12.848-6.601 3.765 0 8.373 1.215 13.894 4.727.405.253 19.414 7.749 43.488 7.749 16.477 0 35.318-3.512 52.183-15.245 0 0 20.68-15.869 36.955-15.869m0-3.005c-16.832 0-37.225 15.295-38.728 16.443-14.029 9.741-30.995 14.671-50.427 14.671-22.824 0-40.567-6.804-42.07-7.412-5.352-3.359-10.518-5.081-15.312-5.081-10.281 0-15.194 7.681-15.397 8.019l-.135.219-.101.237c-1.992 4.879-2.009 9.707-.034 14.35 4.66 10.956 18.959 16.983 20.225 17.506 20.377 9.218 41.513 13.894 62.818 13.894 54.395 0 91.586-29.78 93.139-31.046l.068-.051.067-.05c11.109-10.146 7.361-25.036 3.816-31.485-3.731-6.686-9.927-10.197-17.929-10.197v-.017Z" fill="#3C3C3B"/><path d="M195.985 317.087s31.3 1.637 22.386-30.287h6.955s-9.757 34.102 20.546 29.004c0 0-19.111 7.327-49.887 1.283Z" fill="#3C3C3B"/><path d="M276.682 298.398s10.349 4.997 13.016 11.413c0 0 1.79 4.457 6.77 2.312 0 0 10.517-4.439 5.166-23.972 0 0-15.515.608-24.969 10.247h.017Z" stroke="#3C3C3B" stroke-width="1.503" stroke-miterlimit="10"/><path d="M312.607 331.031c-.624.709-10.889-24.968-45.801-25.509 0 0 35.368 6.247 37.512 31.384l8.289-5.892v.017ZM162.001 340.317s.541-17.305 27.282-26.573c0 0-26.758-.017-34.592 21.407l7.31 5.166Z" fill="#3C3C3B"/><path d="M403.23 285.213c.658-.675 14.89-14.282 17.996-28.868 0 0-21.136 6.212-19.803-26.961 0 0 .541-45.481-7.495-69.825 0 0 9.623 17.102 12.037 52.436 0 0 .81 48.148 25.154 32.633 0 0 3.934 18.773-26.556 44.181l-1.333-3.596Z" fill="#706F6F"/><path d="M282.388 152.064s-12.037 5.622-14.451-1.604c0 0-2.938-7.495 8.289-9.369 0 0 43.606-5.892 65.266 17.388 0 0-28.885-17.929-59.121-6.415h.017Z" fill="#EDEDED"/><path d="M393.944 152.604s-1.873-23.804 26.489-16.055l27.551 9.893v6.145s-50.022-29.155-54.04 0v.017ZM404.108 207.707s-1.098-8.829 16.848-8.559h29.713l-1.064 8.559s-44.67-9.623-45.48 0h-.017ZM276.057 390.254s-8.509 43.336 41.665 30.489c0 0-37.563 20.056-47.557-13.151 0 0-4.812-9.741 5.892-17.338ZM317.722 463.185c1.249-.608-32.127 8.829-44.974-19.803 0 0 1.603 9.099 6.685 16.325 0 0 9.893 17.388 38.289 3.478ZM40.754 285.213c-.658-.675-14.89-14.097-17.996-28.868 0 0 21.136 6.212 19.802-26.961 0 0-.54-45.481 7.496-69.825 0 0-9.623 17.102-12.037 52.436 0 0-.81 48.148-25.154 32.633 0 0-1.486 21.069 26.606 44.08l1.3-3.495h-.017Z" fill="#706F6F"/><path d="M161.596 152.064s12.037 5.622 14.451-1.604c0 0 2.937-7.495-8.289-9.369 0 0-43.607-5.892-65.267 17.388 0 0 28.886-17.929 59.121-6.415h-.016Z" fill="#EDEDED"/><path d="M50.039 152.604s1.874-23.804-26.488-16.055l-27.552 9.91v6.145s50.022-29.156 54.04 0ZM39.876 207.707s1.097-8.829-16.849-8.559H-6.668l1.063 8.559s44.67-9.623 45.48 0ZM144.832 37.586c-.827.49-17.946 11.953-33.73 33.09 0 0 8.137-23.366 27.636-34.069l6.094.98ZM299.793 37.502c.793.557 16.967 13.303 31.097 35.57 0 0-6.044-23.854-24.648-36.01l-6.449.44ZM167.927 390.254s8.508 43.336-41.665 30.489c0 0 37.562 20.056 47.557-13.151 0 0 4.811-9.741-5.892-17.338ZM126.261 463.185c-1.249-.608 32.127 8.829 44.974-19.803 0 0-1.604 9.099-6.685 16.325 0 0-9.893 17.388-38.289 3.478Z" fill="#706F6F"/><path d="M222.001 16.922c58.918 0 81 23.331 81 23.331 4.001-3.089 10.72-3.579 14.62-3.579 1.823 0 3.039.102 3.039.102 59.391 8.829 124.657 84.005 124.657 84.005v318.161c-18.553 45.295-113.076 45.295-113.076 45.295-69.2-1.435-60.286-72.408-60.286-72.408 2.127-40.027 36.33-45.16 53.786-45.16 6.027 0 10.062.608 10.062.608 6.061 1.317 11.733 1.756 16.595 1.756 9.724 0 16.224-1.756 16.224-1.756 63.848-10.298 63.494-49.262 63.494-49.262-4.998-24.969-26.759-34.963-26.759-34.963-81.777 83.567-170.864 83.904-183.356 83.904-15.329 0-101.58-.337-183.357-83.904 0 0-21.761 9.994-26.758 34.963 0 0-.355 38.964 63.493 49.262 0 0 6.5 1.756 16.224 1.756 4.862 0 10.534-.439 16.595-1.756 0 0 4.035-.608 10.062-.608 17.439 0 51.659 5.149 53.786 45.16 0 0 8.914 70.973-60.286 72.408 0 0-94.523 0-113.076-45.295V120.764S63.95 45.605 123.34 36.776c0 0 1.199-.102 3.039-.102 3.9 0 10.619.49 14.62 3.58 0 0 29.628-23.332 81.001-23.332Zm0-3.477c-45.042 0-73.539 17.354-81.136 22.622-4.457-2.33-10.163-2.87-14.485-2.87-1.975 0-3.292.118-3.359.118h-.102l-.101.017C97.546 37.096 68.508 52.594 36.5 79.42 12.83 99.256-3.781 118.299-3.95 118.485l-.844.979v320.153l.253.642c19.212 46.915 112.334 47.455 116.284 47.455 21.12-.439 37.377-7.124 48.418-19.904 18.925-21.896 15.633-53.651 15.329-56.285-2.38-43.623-40.821-48.333-57.247-48.333-6.229 0-10.416.624-10.585.658h-.101l-.102.034a74.638 74.638 0 0 1-15.852 1.688c-9.083 0-15.261-1.621-15.312-1.638l-.169-.05-.186-.034c-24.918-4.018-43.285-13.252-53.128-26.691-6.6-9.015-7.343-17.202-7.428-18.823 3.799-18.165 17.372-27.822 22.622-30.945 34.44 34.642 73.522 58.969 116.2 72.306 22.875 7.141 45.683 10.771 67.799 10.771 20.866 0 43.944-3.731 66.735-10.771 43.488-13.455 82.925-37.765 117.28-72.306 5.25 3.123 18.84 12.78 22.622 30.962-.085 1.587-.81 9.791-7.428 18.823-9.843 13.438-28.21 22.673-53.128 26.691l-.186.034-.169.05s-6.229 1.638-15.312 1.638a74.64 74.64 0 0 1-15.852-1.688h-.102l-.101-.034c-.169-.034-4.355-.658-10.585-.658-16.426 0-54.867 4.71-57.247 48.333-.304 2.634-3.596 34.389 15.329 56.285 11.041 12.78 27.298 19.482 48.35 19.904 4.136 0 97.157-.574 116.352-47.456l.253-.641v-320.17l-.844-.979c-.169-.186-16.781-19.229-40.45-39.082C375.51 52.577 346.473 37.08 321.2 33.315h-.101l-.102-.017c-.05 0-1.384-.118-3.359-.118-4.221 0-9.792.523-14.215 2.735-6.888-5.825-31.029-22.47-81.406-22.47h-.016Z" fill="#706F6F"/></g><defs><linearGradient id="b" x1="222" y1="556.458" x2="222" y2="215.574" gradientUnits="userSpaceOnUse"><stop stop-color="#DADADA"/><stop offset=".51" stop-color="#FFFEFF"/></linearGradient><linearGradient id="d" x1="287.451" y1="180.119" x2="324.643" y2="278.458" gradientUnits="userSpaceOnUse"><stop stop-color="#3FFFFF"/><stop offset="1" stop-color="#3FBAFF"/></linearGradient><linearGradient id="f" x1="157.686" y1="179.918" x2="120.512" y2="278.256" gradientUnits="userSpaceOnUse"><stop stop-color="#3FFFFF"/><stop offset="1" stop-color="#3FBAFF"/></linearGradient><linearGradient id="g" x1="190.346" y1="434.013" x2="266.35" y2="434.013" gradientUnits="userSpaceOnUse"><stop stop-color="#BCED01"/><stop offset="1" stop-color="#BCED01"/></linearGradient><linearGradient id="h" x1="191.663" y1="404.198" x2="215.112" y2="404.198" gradientUnits="userSpaceOnUse"><stop stop-color="#BCED01"/><stop offset="1" stop-color="#BCED01"/></linearGradient><linearGradient id="i" x1="228.348" y1="429.353" x2="266.282" y2="429.353" gradientUnits="userSpaceOnUse"><stop stop-color="#BCED01"/><stop offset="1" stop-color="#BCED01"/></linearGradient><linearGradient id="j" x1="214.488" y1="480.793" x2="229.614" y2="480.793" gradientUnits="userSpaceOnUse"><stop stop-color="#BCED01"/><stop offset="1" stop-color="#BCED01"/></linearGradient></defs></svg>