<svg width="205" height="70" fill="none" xmlns="http://www.w3.org/2000/svg"><path d="m52.707 13.935-.016-.012c-2.848-1.56-5.978-1.149-8.767-.04-1.138-.079-2.722-.514-4.56-1.917a.645.645 0 0 1-.127-.127c-.195-.257-.94-1.16-1.977-1.537a.624.624 0 0 1-.373-.78c.139-.409.234-1.007.052-1.752a.633.633 0 0 0-.531-.483c-.678-.083-2.072-.468-2.742-2.23a.668.668 0 0 1-.035-.127c-.076-.456-.686-3.376-3.883-4.874a.622.622 0 0 0-.757.195c-.285.384-.67 1.192-1.022 2.892a.633.633 0 0 1-.436.475 2.122 2.122 0 0 0-.59.29v-.004c-1.019-1.363-2.595-2.156-3.225-2.342a.456.456 0 0 0-.559.265c-.495 1.296-.051 3.4.071 3.919.02.08.012.162-.012.241-.23.761-.154 1.712-.154 1.712-.107.578-.535.955-1.03 1.197a2.259 2.259 0 0 1-.369-.73s-.309-.645-.78-.126c0 0-.297.455.622 1.062a5.306 5.306 0 0 1-.872.194.462.462 0 0 0-.404.48v.007c-.19-.004-.416.071-.416.483 0 0 .056.313.567.385.44 1.497 1.688 2.484 2.325 2.904a.462.462 0 0 1 .032.749c-.63.49-1.806.344-1.989.32l-.051-.003c-2.817-.14-3.364 2.365-3.364 2.365-.27.959-1.775 1.937-2.124 2.151a.44.44 0 0 0-.126.115c-1.248 1.652 1.723 2.571 1.723 2.571 3.17 1.03 3.978-2.167 3.978-2.167.123-.863.927-.586 1.105-.515.028.012.056.02.087.024 2.2.424 3.788-.15 3.788-.15.369-.052.559.142.654.368-.282.04-.527.083-.733.123a.263.263 0 0 0-.083.035c-.69-.09-1.49-.06-2.401.17 0 0-3.15.868-2.639 3.729 0 0-.016.261.111.697-1.561 1.902-6.18 8.181-2.575 11.945a20.852 20.852 0 0 0-.123 4.065c.008.095-.024.194-.107.242-1.553.876-1.55 2.052-1.55 2.052-.13 4.232 3.325 5.04 4.038 5.17.095.016.17.08.21.167 3.383 7.496 9.568 11.11 11.26 11.961-1.838 2.262.436 4.58.436 4.58 2.785 2.318 4.449.59 5.158-.547 0 0 .476-.55.642-.994 0 0 .329-.721 1.157-.579 0 0 .812.179.515 1.268-.333 1.173-1.157 5.57 4.766 6.446a6.635 6.635 0 0 0 2.5-.107c1.74-.416 4.548-1.549 4.572-4.564 0 0 .135-1.545-.202-3.435v-.024c-.087-.546.436-.538.436-.538 1.125.107 2.92-.115 2.967-2.057 0 0 .06-.455-.09-1.073a17.314 17.314 0 0 0 2.891-2.623c.012-.012.024-.02.024-.02.27-.317.535-.65.785-.998 15.261 3.502 18.074-8.04 18.193-8.927C72.026 27.842 53.13 14.24 52.71 13.94l-.004-.004ZM21.352 18.06c-.919-.332-1.763 1.629-1.763 1.629-.919 1.363-2.27.753-2.27.753-1.846-.579-.428-1.557-.428-1.557 1.225-.745 1.17-1.78 1.17-1.78.237-1.26 2.376-1.576 2.618-1.608h.048c2.163-.036 2.999-.673 3.32-1.228a5.273 5.273 0 0 0 1.779.23c.237-.012.273-.349.043-.404-1.45-.353-2.345-1.007-2.888-1.59-.02-.023-.044-.035-.068-.047-.566-.653-.982-1.446-1.228-1.985.242-.075.511-.178.816-.309.032-.011-.36.06-.863.024a.448.448 0 0 1 .328-.384c.175-.044.33-.123.476-.214.154.063.317.127.503.19.024.008-.139-.095-.356-.285.586-.444.895-1.165.982-1.403a.431.431 0 0 0 .028-.158c-.008-1.018.241-1.732.345-1.985a.354.354 0 0 0 .027-.111l.016.008c.222-.65 1.102-.92 1.102-.92.13-1.033-.302-1.933-.682-2.46a.442.442 0 0 1 .408.04c1.228.8 1.656 1.933 1.712 1.826l1.684-.158c.336-.008 1.097-.06 2.06.947 0 0 .582.519.527-1.05 0 0-.416-2.243-1.082-3.237.13-.028.27-.02.396.044.73.352 2.076 1.402 2.591 4.437a.676.676 0 0 0 .06.178c.234.46 1.383 2.62 2.567 3.007.115.04.214.111.285.202.218 1.094-.61 2.73-2.666 3.88-.166.094-.044.348.139.288.451-.15.974-.376 1.493-.685.789-.258 1.993-.935 2.552-.388.024.024.832.856.852.88.118.154.693.61 1.474 1.113 1.568 1.022.384 2.214-.254 2.717-.111.08-.218.155-.325.234-.008.008-.016.012-.016.012-.182.135-.36.265-.53.392l-.013.012-.376.29c-1.612 1.061-3.284-.266-3.32-.298a4.627 4.627 0 0 1-.42-.38s-1.01-.555-.511.527c0 0 .087.087.222.226.016.015 1.426 1.676-1.007 1.632-.059 0-.11-.004-.17-.008-.04 0-.075 0-.115-.004a46.425 46.425 0 0 0-3.134-.012c-1.688.083-2.135-.618-2.238-.864a.638.638 0 0 0-.095-.201c-.186-.238-.555-.258-.63-.238-2.548.764-5.175.238-5.175.238v-.005Zm-.784 9.33.844-1.802c.594.824 1.608 1.799 3.328 2.762.305 1.64.816 5.673-1.264 6.707-.178.087-.115.357.083.36.8.013 1.906-.197 2.516-1.315 0 0 .788 2.04 4.877 1.64.753.4 1.704 1.142.8 2.243-1.283.452-2.4.97-3.375 1.521-1.403-.558-4.54-1.822-6.458-2.662-1.565-.685-4.608-2.615-1.359-9.453h.008Zm14.707 21.32c-2.227 3.447-7.675 2.706-7.675 2.706-5.34-1.113-2.78-6.676-2.78-6.676 1.905-3.494 5.768-5.59 8.985-6.787.182-.063 3.906-1.343 7.92 1.894 0 0 4.286 3.063 0 6.062-.713-.012-1.26-.095-1.26-.095-2.63-.297-5.19 2.892-5.19 2.892v.004Zm-2.152-13.237.393-.012c.954.274 1.77.773 1.291 1.672-.186.04-.368.084-.55.127.035-.11.332-1.16-1.138-1.787h.004Zm-1.038.111s.1-.02.278-.047c.63.443 1.382 1.176.99 1.949-.119.032-.238.067-.356.103.031-.452-.052-1.47-1.284-1.945.123-.02.245-.04.372-.064v.004ZM21.471 45.896c-.46.15-.887.178-1.275.139-1.363-.143-2.449-1.205-2.75-2.54a2.47 2.47 0 0 1-.032-.986c.579-1.47 2.2-.852 2.2-.852s-.326-2.698 1.64-2.995c0 0 2.737-.626 5.3 2.02-2.943 2.163-3.942 4.338-3.942 4.338a7.284 7.284 0 0 0-.55 1.918c-.107-.353-.175-.634-.222-.832a.29.29 0 0 0-.373-.21h.004Zm29.37 13.883a8.332 8.332 0 0 0-1.11-2.096s3.78 7.781-1.846 10.392c-1.002.468-2.12.646-3.224.566-2.084-.154-5.345-1.14-4.129-5.954 0 0 .052-.147.048-.389 0 0 .333-1.481-.999-2.54-1.248.52-2.163 2.433-2.163 2.433-1.818 3.198-4.247.872-4.247.872-2.762-2.967 1.723-4.378 1.723-4.378 1.93-.297 2.029-1.133 1.93-1.002-.384.495-1.419.562-1.93.562-3.292-.677-5.772-2.024-7.638-3.565 3.296.657 6.085-1.328 7.864-3.134.789.558 2.31 1.379 4.319 1.244 0 0 5.578-.436 8.324 2.337l.123-.206a.725.725 0 0 1 .305-.02c1.212.333 5.3 1.605 5.21 3.665 0 0-.092 1.819-2.564 1.217l.004-.004Zm20.844-12.033c-7.23 4.485-14.08 1.64-14.085 1.64-3.8-1.628-1.45-5.582-1.272-5.89l.012-.029c1.462-4.187 1.102-7.642.515-9.853-.067-.25-.435-.17-.404.083 1.062 7.762-4.1 14.14-4.405 14.513a.082.082 0 0 0-.024.04c-1.636 3.597 2.341 5.039 2.543 5.11a39.423 39.423 0 0 0 2.013.638c-1.2 1.185-2.968 1.545-3.93 1.652a6.804 6.804 0 0 0-1.55-.562c-.776-.262-1.965-.642-2.765-.9 0 0-2.08-.836-2.187-2.955a3.646 3.646 0 0 1 .444-1.692c.872-1.173 1.569-2.797 1.97-5.024 0 0-3.73 9.156-12.227 5.674.57-.717.883-1.224.883-1.224 1.755-2.108 3.558-1.89 3.558-1.89s4.564 1.422 6.882-8.075c.194-.543.372-1.101.515-1.668a.435.435 0 0 0 0-.214c.21-.269-.373-.812-.626-.582-1.177 1.062-4.972 1.125-7.068-.725 0 0-1.704-1.89-7.528-1.446 0 0-5.467 1.232-6.858-2.373 0 0-.884-1.914-1.327-3.634l.067.036s.892.583 2.476-2.337c0 0 .274-.662 1.114-1.446 0 0 1.608-1.209.697-2.98 3.205-1.256 7.27-1.375 10.075-1.26.476.02.543-.681.067-.745l-.364-.051c-.166-.024-.242-.226-.127-.349 3.257-3.522 8.348-5.154 8.669-5.253.012 0 .024-.004.035-.008 7.845-1.993 22.897 22.302 22.897 22.302 4.524 7.341 1.335 11.477 1.335 11.477h-.02Z" fill="#00494F"/><path d="M35.928 40.254s-2.139 1.224-3.66 2.893c0 0 2.337-2.298 5.86-2.67 0 0 1.964-.112 1.334-.964 0 0-1.359-.594-3.534.741ZM48.032 15.983c-2.183.361-3.617 2.706-3.197 5.234.42 2.528 2.527 4.287 4.715 3.923 2.183-.361 3.617-2.707 3.197-5.234-.42-2.528-2.528-4.287-4.715-3.922Zm.74 7.267c-1.45.241-2.848-.927-3.129-2.603-.277-1.68.673-3.233 2.124-3.475 1.45-.242 2.848.927 3.13 2.603.277 1.68-.674 3.233-2.124 3.475ZM42.93 63.428s1.632.364 1.964-1.236c0 0 .484-1.712-.907-2.065 0 0-1.39-.388-1.819 1.427 0 0-.443 1.521.761 1.874ZM48.71 61.819s-1.264-.701-2.1.967c0 0-.785 1.374.305 1.997 0 0 1.502.733 2.199-.75 0 0 .864-1.552-.404-2.218v.004ZM45.6 65.08c-.983-.024-.706.594-1.764-.115 0 0-.752-.911-1.335-.183 0 0-1.05 1.498.65 2.421.258.139.539.218.824.262.733.107 2.155.182 2.58-.753 0 0 .598-1.593-.963-1.632h.008ZM29.954 12.94a.336.336 0 0 0 .083-.098c.17-.274.832-1.49-.238-2.572a.416.416 0 0 0-.566-.011c-.54.479-1.843 1.477-3.467 1.584a.42.42 0 0 0-.27.71c.849.887 2.516 2.056 4.458.384v.004ZM28.294 8.21c.444.19.986-.083 1.208-.61.222-.523.044-1.105-.404-1.292-.444-.19-.986.084-1.208.61-.222.524-.044 1.106.404 1.292ZM25.156 8.273c.475-.099.765-.63.646-1.188-.12-.559-.595-.931-1.066-.832-.476.099-.765.63-.646 1.188.119.56.595.932 1.066.832ZM26.523 9.76s-.202-1.03-1.26-.583c0 0-.444.277-1.086.25 0 0-.753.05-.471.582 0 0 .36 1.252 1.585 1.085 0 0 1.184-.25 1.232-1.335ZM15.14 26.526c.012-.02.012-.016 0 0Z" fill="#00494F"/><path d="M17.208 23.911a.286.286 0 0 0-.083-.495c-1.474-.539-2.42.008-2.809.27-.135.09-.567.166-.567.166.468-.717.468-1.161.468-1.161.59-2.528-1.014-5.099-1.795-6.165-.146-.198-.455-.127-.507.12-.317 1.544-.986 2.451-1.577 2.97-.57.322-1.18.61-1.707.741h-.008c-.052.024-1.15.5-2.171 1.24-.333-.213-.88-.416-1.74-.38 0 0-1.168.139-2.092-1.28-.087-.13-.289-.087-.3.072-.052.72-.04 2.116.586 3.466.04.088 0 .19-.091.222-.579.198-2.441 1.042-2.813 3.713-.016.115.09.206.202.182l.107-.028s-.028.016-.016.012c1.43-.4 2.936.515 3.138.61.011.008.023.012.035.02 7.092 4.984 11.466-1.383 11.664-1.68.753-1.446 1.589-2.242 2.068-2.619l.008.004Zm-1.347.515c-.792.71-1.398 1.692-1.513 1.878a.313.313 0 0 1-.048.06C9.51 31.15 3.785 27.69 3.286 27.449c-.012-.008-.028-.016-.04-.027h.004c-.027-.02-.06-.036-.087-.052-.04-.024-.075-.047-.115-.067-.733-.416-1.47-.408-1.98-.317.02-.793.356-2.52 2.888-2.71.122-.008.19-.15.118-.254-.297-.436-.907-1.45-1.295-2.908-.044-.166.162-.285.281-.154.357.4.876.871 1.355.903.024 0 .048 0 .068-.012.162-.06.93-.309 1.755-.099-1.395 1.078-2.496 2.639-.365 4.204.068.047.15-.036.095-.1-.586-.68-1.303-1.976.389-3.066 2.373-1.53 4.556-1.07 5.808-4.204.004-.011 0-.023 0-.035.024-.048.043-.1.063-.143a.286.286 0 0 1 .52 0c.998 2.258.859 3.887.498 4.925-.784 2.246-3.534 2.722-3.534 2.722.19-.028.365-.06.54-.091-.171.035-.346.067-.54.09 0 0 3.503-.201 4.497-1.612.396-.368.97-.483 1.442-.51.266-.017.4.312.202.49l.008.004ZM32.695 7.335c-.471-.52-.78.126-.78.126-.27.979-1.331 1.625-1.28 1.605 2.595-.903 2.06-1.728 2.06-1.728v-.003ZM31.075 9.446c2.524 1.09 2.686.119 2.686.119 0-.701-.661-.436-.661-.436-.86.54-2.08.293-2.025.317ZM100.666 34.224V24.105c0-2.472-1.018-3.137-2.353-3.137-.824 0-1.727.273-2.393.705v12.551h-5.57V24.105c0-2.472-1.019-3.137-2.354-3.137-.864 0-1.802.352-2.393.705v12.551h-5.57V17.121l5.491-.472v1.842c1.803-1.687 3.372-2 4.509-2 2.353 0 4.04.744 5.02 2.626 1.921-2 3.648-2.626 5.293-2.626 3.648 0 5.883 1.767 5.883 6.628V34.22h-5.57l.007.004ZM120.199 34.617l-.511-1.649c-1.688 1.018-2.98 1.648-4.905 1.648-2.98 0-4.707-2.04-4.707-4.746 0-2.04.903-3.764 2.433-4.826l6.826-.665v-.864c0-1.763-.903-2.314-2.627-2.314-1.256 0-2.706.472-4.156 1.371l-1.45-4.041c2.353-1.37 4.826-2.04 7.254-2.04 4.042 0 6.316 1.45 6.316 5.843 0 .393-.119 6.355-.119 6.827 0 .55 0 1.295.198 1.921l.745 2.433-5.297 1.097v.005Zm-4.354-6.787c-.08.233-.159.824-.159 1.097 0 1.058.392 1.727 1.609 1.727.59 0 1.295-.233 1.961-.55l.039-2.746-3.45.472ZM140.555 34.224V24.105c0-2.472-1.371-3.137-2.706-3.137-.864 0-1.882.352-2.472.705v12.551h-5.571V17.121l5.492-.472v1.842c1.802-1.687 3.45-2 4.588-2 3.649 0 6.236 1.767 6.236 6.628V34.22h-5.571l.004.004ZM160.088 34.617l-.511-1.649c-1.688 1.018-2.98 1.648-4.905 1.648-2.98 0-4.707-2.04-4.707-4.746 0-2.04.903-3.764 2.432-4.826l6.827-.665v-.864c0-1.763-.903-2.314-2.627-2.314-1.256 0-2.706.472-4.156 1.371l-1.45-4.041c2.353-1.37 4.826-2.04 7.254-2.04 4.041 0 6.316 1.45 6.316 5.843 0 .393-.119 6.355-.119 6.827 0 .55 0 1.295.198 1.921l.745 2.433-5.297 1.097v.005Zm-4.355-6.787c-.079.233-.158.824-.158 1.097 0 1.058.392 1.727 1.608 1.727.591 0 1.296-.233 1.962-.55l.039-2.746-3.451.472ZM180.797 34.418l-.119-1.921c-1.728 1.41-3.178 2.12-5.139 2.12-3.688 0-7.179-2.552-7.179-8.396 0-6.434 4.548-9.727 8.982-9.727 1.295 0 2.001.159 2.706.393V6.689l5.57-.472v23.534c0 1.177.119 3.02.313 4.473l-5.138.198.004-.004Zm-.745-13.062a4.484 4.484 0 0 0-1.843-.432c-2.155 0-3.803 1.137-3.803 4.746 0 3.138 1.216 4.434 3.257 4.434.863 0 1.767-.234 2.393-.587V21.36l-.004-.004ZM199.703 34.617l-.511-1.649c-1.688 1.018-2.98 1.648-4.905 1.648-2.98 0-4.707-2.04-4.707-4.746 0-2.04.903-3.764 2.433-4.826l6.826-.665v-.864c0-1.763-.903-2.314-2.627-2.314-1.256 0-2.706.472-4.156 1.371l-1.45-4.041c2.354-1.37 4.826-2.04 7.255-2.04 4.041 0 6.315 1.45 6.315 5.843 0 .393-.119 6.355-.119 6.827 0 .55 0 1.295.198 1.921l.745 2.433-5.297 1.097v.005Zm-4.354-6.787c-.08.233-.159.824-.159 1.097 0 1.058.392 1.727 1.609 1.727.59 0 1.295-.233 1.961-.55l.039-2.746-3.45.472ZM90.88 58.812l-.598-1.933c-1.977 1.196-3.498 1.933-5.752 1.933-3.499 0-5.523-2.393-5.523-5.566 0-2.394 1.057-4.418 2.852-5.662l8.007-.78v-1.015c0-2.072-1.058-2.714-3.082-2.714-1.474 0-3.174.55-4.877 1.609l-1.704-4.739c2.762-1.608 5.662-2.393 8.514-2.393 4.739 0 7.41 1.704 7.41 6.858 0 .46-.14 7.457-.14 8.007 0 .646 0 1.518.23 2.255l.876 2.852-6.213 1.288Zm-5.106-7.96c-.091.278-.183.967-.183 1.288 0 1.244.46 2.025 1.886 2.025.69 0 1.518-.278 2.302-.646l.048-3.221-4.05.55-.003.005ZM114.763 58.352V46.478c0-2.9-1.608-3.68-3.173-3.68-1.011 0-2.207.412-2.901.828v14.726h-6.533V38.29l6.442-.55v2.163c2.116-1.977 4.049-2.346 5.385-2.346 4.279 0 7.317 2.072 7.317 7.777v13.023h-6.533l-.004-.004ZM127.37 58.352V43.226l6.533-.416v15.542h-6.533Zm3.268-16.572c-1.608 0-2.852-1.336-2.852-2.944 0-1.609 1.244-2.853 2.852-2.853 1.609 0 2.901 1.244 2.901 2.853 0 1.608-1.288 2.944-2.901 2.944ZM164.275 58.352V46.478c0-2.9-1.196-3.68-2.761-3.68-.967 0-2.025.32-2.809.828v14.726h-6.533V46.478c0-2.9-1.197-3.68-2.762-3.68-1.01 0-2.116.412-2.809.828v14.726h-6.533V38.29l6.442-.55v2.163c2.116-1.977 3.958-2.346 5.293-2.346 2.762 0 4.739.876 5.892 3.083 2.254-2.346 4.278-3.083 6.212-3.083 4.279 0 6.902 2.072 6.902 7.777v13.023h-6.534v-.004ZM187.191 58.812l-.598-1.933c-1.977 1.196-3.498 1.933-5.753 1.933-3.498 0-5.523-2.393-5.523-5.566 0-2.394 1.058-4.418 2.853-5.662l8.007-.78v-1.015c0-2.072-1.058-2.714-3.082-2.714-1.474 0-3.174.55-4.877 1.609l-1.704-4.739c2.761-1.608 5.661-2.393 8.514-2.393 4.739 0 7.409 1.704 7.409 6.858 0 .46-.139 7.457-.139 8.007 0 .646 0 1.518.23 2.255l.876 2.852-6.213 1.288Zm-5.107-7.96c-.091.278-.182.967-.182 1.288 0 1.244.46 2.025 1.886 2.025.689 0 1.517-.278 2.302-.646l.047-3.221-4.049.55-.004.005ZM198.463 58.352v-22.25l6.533-.38v22.63h-6.533Z" fill="#00494F"/></svg>