<svg width="30" height="27" fill="none" xmlns="http://www.w3.org/2000/svg"><g clip-path="url(#a)" fill="#fff"><path d="M25.002 5.61v3.333s-1.014 1.376-3.1 1.376c-2.085 0-2.821-1.376-2.821-1.376V5.522h.01c.109-.904 1.37-1.617 2.916-1.63L17.901 1.54c.006.029.014.059.018.087h.01v3.424s-1.014 1.375-3.1 1.375c-2.085 0-2.82-1.375-2.82-1.375V1.629h.01c0-.016.005-.032.01-.046L7.992 3.895h.028c1.563 0 2.84.719 2.95 1.629h.01v3.421s-1.014 1.376-3.1 1.376c-2.085 0-2.82-1.376-2.82-1.376V5.573L.005 8.47H0v9.9l15.001 8.496v-9.607l15.001-8.787-5-2.865v.002Zm-7.07 7.587s-1.015 1.376-3.1 1.376c-2.086 0-2.822-1.376-2.822-1.376v-3.42h.01c.11-.911 1.388-1.63 2.95-1.63 1.564 0 2.84.719 2.951 1.63h.01v3.42Z"/><path d="M15.001 11.052c1.363 0 2.469-.551 2.469-1.231S16.364 8.59 15 8.59c-1.363 0-2.468.551-2.468 1.23 0 .68 1.105 1.232 2.468 1.232ZM15.001 2.462c1.363 0 2.469-.55 2.469-1.23C17.47.551 16.364 0 15 0c-1.363 0-2.468.551-2.468 1.231S13.638 2.462 15 2.462ZM22.04 6.81c1.363 0 2.468-.551 2.468-1.231s-1.105-1.231-2.468-1.231c-1.364 0-2.469.551-2.469 1.23 0 .68 1.105 1.232 2.469 1.232ZM8.023 6.81c1.363 0 2.469-.551 2.469-1.231s-1.106-1.231-2.47-1.231c-1.362 0-2.468.551-2.468 1.23 0 .68 1.106 1.232 2.469 1.232Z"/></g><defs><clipPath id="a"><path fill="#fff" d="M0 0h30v26.866H0z"/></clipPath></defs></svg>